M48
; DRILL file {KiCad (6.0.9-0)} date Wednesday, December 14, 2022 at 04:06:12 PM
; FORMAT={-:-/ absolute / inch / decimal}
; #@! TF.CreationDate,2022-12-14T16:06:12+03:00
; #@! TF.GenerationSoftware,Kicad,Pcbnew,(6.0.9-0)
; #@! TF.FileFunction,Plated,1,2,PTH
FMAT,2
INCH
; #@! TA.AperFunction,Plated,PTH,ViaDrill
T1C0.0118
; #@! TA.AperFunction,Plated,PTH,ComponentDrill
T2C0.0394
%
G90
G05
T1
X4.5472Y-1.9291
X4.626Y-2.185
X4.7835Y-2.1654
X4.9252Y-2.5079
X4.9685Y-2.4843
X5.0079Y-2.4843
X5.0492Y-2.4843
X5.124Y-2.4843
X5.1673Y-2.4843
X5.1969Y-1.9291
X5.2067Y-2.4843
X5.2461Y-2.4902
X5.2854Y-2.4823
X5.3268Y-2.4823
X5.3642Y-2.4843
X5.4016Y-2.4843
X5.4409Y-2.4862
X5.4823Y-2.4862
X5.5217Y-2.4843
X5.5591Y-2.4862
X5.6004Y-2.4862
X5.6398Y-2.4862
X5.6831Y-2.4921
T2
X4.3287Y-1.7327
X4.3287Y-1.8327
X4.4287Y-1.7327
X4.4287Y-1.8327
X4.5287Y-1.7327
X4.5287Y-1.8327
X4.6287Y-1.7327
X4.6287Y-1.8327
X4.7287Y-1.7327
X4.7287Y-1.8327
X4.8287Y-1.7327
X4.8287Y-1.8327
X4.9287Y-1.7327
X4.9287Y-1.8327
X5.0287Y-1.7327
X5.0287Y-1.8327
X5.1287Y-1.7327
X5.1287Y-1.8327
X5.2287Y-1.7327
X5.2287Y-1.8327
X5.3287Y-1.7327
X5.3287Y-1.8327
X5.4287Y-1.7327
X5.4287Y-1.8327
X5.5287Y-1.7327
X5.5287Y-1.8327
X5.6287Y-1.7327
X5.6287Y-1.8327
X5.7287Y-1.7327
X5.7287Y-1.8327
X5.8287Y-1.7327
X5.8287Y-1.8327
X5.9287Y-1.7327
X5.9287Y-1.8327
X6.0287Y-1.7327
X6.0287Y-1.8327
X6.1287Y-1.7327
X6.1287Y-1.8327
X6.2287Y-1.7327
X6.2287Y-1.8327
T0
M30
