G04 #@! TF.GenerationSoftware,KiCad,Pcbnew,(6.0.9-0)*
G04 #@! TF.CreationDate,2022-12-14T16:06:14+03:00*
G04 #@! TF.ProjectId,pi3_extension_board,7069335f-6578-4746-956e-73696f6e5f62,rev?*
G04 #@! TF.SameCoordinates,Original*
G04 #@! TF.FileFunction,Legend,Top*
G04 #@! TF.FilePolarity,Positive*
%FSLAX46Y46*%
G04 Gerber Fmt 4.6, Leading zero omitted, Abs format (unit mm)*
G04 Created by KiCad (PCBNEW (6.0.9-0)) date 2022-12-14 16:06:14*
%MOMM*%
%LPD*%
G01*
G04 APERTURE LIST*
%ADD10C,0.150000*%
%ADD11C,0.120000*%
%ADD12C,0.100000*%
G04 APERTURE END LIST*
D10*
X106946666Y-44732380D02*
X106946666Y-45446666D01*
X106913333Y-45589523D01*
X106846666Y-45684761D01*
X106746666Y-45732380D01*
X106680000Y-45732380D01*
X107246666Y-44827619D02*
X107280000Y-44780000D01*
X107346666Y-44732380D01*
X107513333Y-44732380D01*
X107580000Y-44780000D01*
X107613333Y-44827619D01*
X107646666Y-44922857D01*
X107646666Y-45018095D01*
X107613333Y-45160952D01*
X107213333Y-45732380D01*
X107646666Y-45732380D01*
X122466666Y-60052380D02*
X122466666Y-60766666D01*
X122433333Y-60909523D01*
X122366666Y-61004761D01*
X122266666Y-61052380D01*
X122200000Y-61052380D01*
X123166666Y-61052380D02*
X122766666Y-61052380D01*
X122966666Y-61052380D02*
X122966666Y-60052380D01*
X122900000Y-60195238D01*
X122833333Y-60290476D01*
X122766666Y-60338095D01*
G36*
X111766250Y-59315461D02*
G01*
X111821832Y-59175483D01*
X111905094Y-59042576D01*
X112012897Y-58919334D01*
X112142101Y-58808353D01*
X112289566Y-58712229D01*
X112452153Y-58633556D01*
X112626722Y-58574931D01*
X112810132Y-58538948D01*
X112999243Y-58528203D01*
X113052629Y-58530061D01*
X113193488Y-58543183D01*
X113310184Y-58567582D01*
X113414870Y-58606903D01*
X113519697Y-58664793D01*
X113535657Y-58674962D01*
X113653907Y-58751391D01*
X113988848Y-58701408D01*
X114095765Y-58685151D01*
X114189332Y-58670347D01*
X114263633Y-58657980D01*
X114312754Y-58649032D01*
X114330711Y-58644593D01*
X114334750Y-58624271D01*
X114339758Y-58575584D01*
X114344913Y-58507232D01*
X114347200Y-58469968D01*
X114352564Y-58396196D01*
X114358937Y-58338846D01*
X114365290Y-58306198D01*
X114368108Y-58301725D01*
X114388968Y-58298967D01*
X114441153Y-58291491D01*
X114519295Y-58280081D01*
X114618023Y-58265525D01*
X114731967Y-58248609D01*
X114792270Y-58239615D01*
X114925413Y-58219805D01*
X115026325Y-58205241D01*
X115099473Y-58195676D01*
X115149323Y-58190861D01*
X115180341Y-58190547D01*
X115196996Y-58194488D01*
X115203754Y-58202434D01*
X115205082Y-58214137D01*
X115205089Y-58216684D01*
X115206984Y-58240516D01*
X115217697Y-58239638D01*
X115244766Y-58212616D01*
X115248709Y-58208370D01*
X115270353Y-58188643D01*
X115297963Y-58173376D01*
X115338371Y-58160697D01*
X115398414Y-58148731D01*
X115484925Y-58135605D01*
X115543207Y-58127622D01*
X115636668Y-58114390D01*
X115717375Y-58101695D01*
X115777927Y-58090795D01*
X115810922Y-58082947D01*
X115814007Y-58081604D01*
X115825090Y-58057955D01*
X115834402Y-58008347D01*
X115839560Y-57949265D01*
X115845192Y-57829237D01*
X115993621Y-57807348D01*
X116209626Y-57786669D01*
X116401866Y-57792572D01*
X116573146Y-57825736D01*
X116726271Y-57886839D01*
X116864046Y-57976561D01*
X116929581Y-58033823D01*
X116979665Y-58088557D01*
X117033177Y-58157924D01*
X117083122Y-58231567D01*
X117122504Y-58299130D01*
X117144327Y-58350257D01*
X117144942Y-58352645D01*
X117162303Y-58351151D01*
X117208524Y-58344473D01*
X117275927Y-58333901D01*
X117356834Y-58320725D01*
X117443566Y-58306236D01*
X117528446Y-58291724D01*
X117603796Y-58278479D01*
X117661937Y-58267792D01*
X117695192Y-58260953D01*
X117700101Y-58259343D01*
X117707926Y-58242277D01*
X117726412Y-58205355D01*
X117728893Y-58200503D01*
X117757225Y-58145215D01*
X118562794Y-58025981D01*
X119368363Y-57906746D01*
X119429435Y-57977396D01*
X119490506Y-58048045D01*
X119530894Y-57994212D01*
X119561078Y-57958373D01*
X119610057Y-57904931D01*
X119670076Y-57842209D01*
X119712036Y-57799710D01*
X119861353Y-57669245D01*
X120025003Y-57559570D01*
X120193192Y-57476855D01*
X120266220Y-57450556D01*
X120314738Y-57437573D01*
X120385062Y-57421790D01*
X120469698Y-57404548D01*
X120561150Y-57387192D01*
X120651924Y-57371064D01*
X120734527Y-57357506D01*
X120801463Y-57347862D01*
X120845239Y-57343473D01*
X120858388Y-57344461D01*
X120858511Y-57363134D01*
X120856659Y-57413114D01*
X120853103Y-57488668D01*
X120848115Y-57584065D01*
X120841966Y-57693571D01*
X120841400Y-57703316D01*
X120820712Y-58058754D01*
X120744931Y-58070003D01*
X120622678Y-58091810D01*
X120529381Y-58117562D01*
X120456913Y-58149850D01*
X120419722Y-58173675D01*
X120384199Y-58205495D01*
X120331220Y-58260767D01*
X120266060Y-58333612D01*
X120193996Y-58418155D01*
X120129980Y-58496412D01*
X119914091Y-58765650D01*
X119894817Y-59113715D01*
X119888111Y-59223898D01*
X119881037Y-59321259D01*
X119874127Y-59399757D01*
X119867914Y-59453350D01*
X119862931Y-59475994D01*
X119862880Y-59476055D01*
X119842953Y-59481436D01*
X119791774Y-59491403D01*
X119714798Y-59505094D01*
X119617475Y-59521642D01*
X119505261Y-59540185D01*
X119383608Y-59559856D01*
X119257970Y-59579792D01*
X119133798Y-59599129D01*
X119016547Y-59617002D01*
X118911670Y-59632546D01*
X118824620Y-59644896D01*
X118760850Y-59653190D01*
X118725813Y-59656561D01*
X118723997Y-59656595D01*
X118705254Y-59641001D01*
X118676936Y-59599690D01*
X118644507Y-59540869D01*
X118637522Y-59526719D01*
X118606581Y-59465430D01*
X118581049Y-59419724D01*
X118565521Y-59397705D01*
X118563857Y-59396843D01*
X118551495Y-59412350D01*
X118527174Y-59454012D01*
X118495008Y-59514537D01*
X118474809Y-59554549D01*
X118439330Y-59622654D01*
X118408315Y-59675972D01*
X118386201Y-59707174D01*
X118379342Y-59712256D01*
X118358388Y-59714875D01*
X118304881Y-59722325D01*
X118222976Y-59733998D01*
X118116826Y-59749284D01*
X117990585Y-59767573D01*
X117848407Y-59788256D01*
X117694446Y-59810724D01*
X117532855Y-59834367D01*
X117367789Y-59858575D01*
X117203401Y-59882741D01*
X117043844Y-59906253D01*
X116893274Y-59928502D01*
X116755844Y-59948880D01*
X116635707Y-59966777D01*
X116537017Y-59981583D01*
X116463929Y-59992689D01*
X116420596Y-59999486D01*
X116414271Y-60000549D01*
X116370429Y-60004183D01*
X116349408Y-59991198D01*
X116342531Y-59973119D01*
X116330785Y-59940271D01*
X116320517Y-59938617D01*
X116311494Y-59969378D01*
X116303485Y-60033772D01*
X116296256Y-60133018D01*
X116290558Y-60245546D01*
X116285095Y-60351885D01*
X116278745Y-60447465D01*
X116272092Y-60525147D01*
X116265723Y-60577793D01*
X116261811Y-60595761D01*
X116250169Y-60615353D01*
X116227937Y-60628712D01*
X116187375Y-60638162D01*
X116120740Y-60646026D01*
X116083087Y-60649417D01*
X115845188Y-60660502D01*
X115636709Y-60649999D01*
X115456661Y-60617591D01*
X115304055Y-60562959D01*
X115177903Y-60485783D01*
X115077216Y-60385746D01*
X115024818Y-60308068D01*
X114996754Y-60259214D01*
X114977295Y-60225692D01*
X114972037Y-60216923D01*
X114953310Y-60216857D01*
X114908081Y-60222123D01*
X114850102Y-60230947D01*
X114806915Y-60237778D01*
X114731446Y-60249349D01*
X114628126Y-60264994D01*
X114501385Y-60284051D01*
X114355654Y-60305852D01*
X114195362Y-60329733D01*
X114024939Y-60355030D01*
X113915608Y-60371211D01*
X113744676Y-60396547D01*
X113584099Y-60420480D01*
X113437808Y-60442413D01*
X113309731Y-60461752D01*
X113203802Y-60477901D01*
X113123949Y-60490266D01*
X113074103Y-60498250D01*
X113059119Y-60500925D01*
X113026595Y-60520269D01*
X112984638Y-60560744D01*
X112954073Y-60598142D01*
X112861498Y-60694353D01*
X112743826Y-60770980D01*
X112608994Y-60825341D01*
X112464939Y-60854752D01*
X112319600Y-60856528D01*
X112231572Y-60842397D01*
X112099526Y-60795709D01*
X111992549Y-60725280D01*
X111913124Y-60633962D01*
X111863737Y-60524607D01*
X111846872Y-60400905D01*
X111849942Y-60331098D01*
X111861973Y-60283273D01*
X111887193Y-60242609D01*
X111894623Y-60233518D01*
X111945512Y-60189823D01*
X112007217Y-60157576D01*
X112015139Y-60154967D01*
X112087904Y-60133167D01*
X111979180Y-60027110D01*
X111868659Y-59896270D01*
X111792059Y-59751597D01*
X111750690Y-59606244D01*
X111747623Y-59557469D01*
X111903028Y-59557469D01*
X111934618Y-59692824D01*
X112001542Y-59822739D01*
X112025481Y-59856138D01*
X112057995Y-59889595D01*
X112113973Y-59937881D01*
X112186133Y-59995055D01*
X112267190Y-60055172D01*
X112284960Y-60067827D01*
X112360817Y-60122162D01*
X112423795Y-60168675D01*
X112468652Y-60203383D01*
X112490147Y-60222304D01*
X112491168Y-60224473D01*
X112471335Y-60229578D01*
X112422471Y-60238515D01*
X112352291Y-60249952D01*
X112281779Y-60260624D01*
X112194820Y-60275197D01*
X112118105Y-60291388D01*
X112061238Y-60306976D01*
X112037047Y-60317155D01*
X112003039Y-60358612D01*
X111994289Y-60416751D01*
X112008380Y-60483537D01*
X112042892Y-60550938D01*
X112095407Y-60610917D01*
X112134169Y-60639764D01*
X112246678Y-60688080D01*
X112373446Y-60705125D01*
X112508743Y-60690895D01*
X112646841Y-60645385D01*
X112658141Y-60640252D01*
X112739754Y-60595584D01*
X112799161Y-60544398D01*
X112834401Y-60499804D01*
X112871226Y-60447539D01*
X112901353Y-60405442D01*
X112913709Y-60388665D01*
X112937620Y-60378800D01*
X112996501Y-60364646D01*
X113088505Y-60346544D01*
X113211784Y-60324834D01*
X113364490Y-60299858D01*
X113544775Y-60271955D01*
X113553811Y-60270591D01*
X113790348Y-60234960D01*
X114015155Y-60201215D01*
X114225557Y-60169749D01*
X114418877Y-60140959D01*
X114592439Y-60115238D01*
X114743566Y-60092983D01*
X114869582Y-60074588D01*
X114967810Y-60060448D01*
X115035574Y-60050958D01*
X115070198Y-60046514D01*
X115073869Y-60046222D01*
X115087080Y-60062439D01*
X115104064Y-60103807D01*
X115113521Y-60134352D01*
X115154784Y-60223322D01*
X115224382Y-60310228D01*
X115314048Y-60386905D01*
X115415515Y-60445189D01*
X115437585Y-60454343D01*
X115501296Y-60475368D01*
X115570645Y-60489819D01*
X115656024Y-60499290D01*
X115767824Y-60505375D01*
X115770977Y-60505495D01*
X115864951Y-60507429D01*
X115951461Y-60506321D01*
X116020291Y-60502472D01*
X116058559Y-60496948D01*
X116123497Y-60480003D01*
X116134705Y-60286305D01*
X116139125Y-60206200D01*
X116142283Y-60141555D01*
X116143820Y-60100217D01*
X116143695Y-60089227D01*
X116125690Y-60089659D01*
X116080394Y-60093971D01*
X116017312Y-60101249D01*
X116012175Y-60101883D01*
X115947122Y-60108752D01*
X115898083Y-60111682D01*
X115875121Y-60110090D01*
X115874789Y-60109835D01*
X115879568Y-60091304D01*
X115897881Y-60046012D01*
X115926680Y-59980393D01*
X115945288Y-59939561D01*
X116111233Y-59939561D01*
X116200856Y-59926218D01*
X116254294Y-59917159D01*
X116290026Y-59909029D01*
X116297616Y-59905929D01*
X116296870Y-59884648D01*
X116282554Y-59845945D01*
X116261039Y-59803692D01*
X116238699Y-59771759D01*
X116233853Y-59767115D01*
X116216012Y-59762138D01*
X116195656Y-59780726D01*
X116167953Y-59827857D01*
X116160141Y-59843046D01*
X116111233Y-59939561D01*
X115945288Y-59939561D01*
X115962915Y-59900881D01*
X116003537Y-59813910D01*
X116045495Y-59725913D01*
X116085742Y-59643325D01*
X116121227Y-59572581D01*
X116148900Y-59520113D01*
X116165713Y-59492355D01*
X116168752Y-59489612D01*
X116193384Y-59503336D01*
X116232932Y-59539345D01*
X116280514Y-59589893D01*
X116329249Y-59647233D01*
X116372257Y-59703618D01*
X116402658Y-59751302D01*
X116404725Y-59755266D01*
X116433198Y-59807015D01*
X116455853Y-59831920D01*
X116481459Y-59837260D01*
X116500163Y-59834455D01*
X116528483Y-59829730D01*
X116589585Y-59820274D01*
X116679526Y-59806675D01*
X116794362Y-59789518D01*
X116930151Y-59769392D01*
X117082949Y-59746883D01*
X117248815Y-59722579D01*
X117385148Y-59702691D01*
X117558002Y-59677468D01*
X117720472Y-59653650D01*
X117868680Y-59631815D01*
X117998749Y-59612537D01*
X118106802Y-59596395D01*
X118188964Y-59583963D01*
X118241356Y-59575817D01*
X118259181Y-59572786D01*
X118282815Y-59557736D01*
X118312287Y-59519249D01*
X118350056Y-59453532D01*
X118397010Y-59360042D01*
X118436778Y-59281475D01*
X118472942Y-59216899D01*
X118501616Y-59172802D01*
X118518915Y-59155678D01*
X118519354Y-59155645D01*
X118549116Y-59169575D01*
X118592737Y-59206099D01*
X118642931Y-59257318D01*
X118692412Y-59315332D01*
X118733894Y-59372241D01*
X118757340Y-59413665D01*
X118781122Y-59461725D01*
X118802596Y-59483399D01*
X118833423Y-59486682D01*
X118859153Y-59483460D01*
X118896815Y-59477856D01*
X118964710Y-59467709D01*
X119056378Y-59453985D01*
X119165357Y-59437654D01*
X119285185Y-59419681D01*
X119326848Y-59413429D01*
X119728592Y-59353132D01*
X119742052Y-59065936D01*
X119747474Y-58963151D01*
X119753472Y-58870720D01*
X119759465Y-58796289D01*
X119764874Y-58747504D01*
X119767158Y-58735191D01*
X119783390Y-58703993D01*
X119819451Y-58650288D01*
X119870910Y-58579647D01*
X119933332Y-58497637D01*
X120002285Y-58409829D01*
X120073333Y-58321791D01*
X120142044Y-58239093D01*
X120203985Y-58167303D01*
X120254721Y-58111991D01*
X120289712Y-58078809D01*
X120398391Y-58008981D01*
X120518725Y-57958458D01*
X120597964Y-57939226D01*
X120673630Y-57927126D01*
X120686663Y-57732565D01*
X120691243Y-57651593D01*
X120693403Y-57585334D01*
X120692974Y-57541893D01*
X120690857Y-57529165D01*
X120669913Y-57528271D01*
X120621033Y-57533190D01*
X120552757Y-57542940D01*
X120511303Y-57549787D01*
X120304607Y-57602581D01*
X120113021Y-57687511D01*
X119934952Y-57805594D01*
X119768802Y-57957847D01*
X119646527Y-58100883D01*
X119500908Y-58288577D01*
X119403913Y-58180129D01*
X119306919Y-58071682D01*
X118958305Y-58122711D01*
X118816807Y-58143508D01*
X118654207Y-58167543D01*
X118486091Y-58192504D01*
X118328048Y-58216078D01*
X118247894Y-58228091D01*
X118135994Y-58244821D01*
X118036637Y-58259524D01*
X117955662Y-58271348D01*
X117898906Y-58279442D01*
X117872206Y-58282955D01*
X117871217Y-58283032D01*
X117855479Y-58299046D01*
X117837734Y-58337024D01*
X117836894Y-58339395D01*
X117830425Y-58358802D01*
X117823284Y-58373895D01*
X117810832Y-58386066D01*
X117788430Y-58396712D01*
X117751439Y-58407225D01*
X117695221Y-58419001D01*
X117615135Y-58433435D01*
X117506544Y-58451919D01*
X117406340Y-58468818D01*
X117278855Y-58490312D01*
X117183349Y-58505962D01*
X117115207Y-58516052D01*
X117069811Y-58520864D01*
X117042543Y-58520684D01*
X117028786Y-58515794D01*
X117023923Y-58506479D01*
X117023336Y-58493022D01*
X117023336Y-58492351D01*
X117012748Y-58444443D01*
X116984810Y-58377887D01*
X116945211Y-58303120D01*
X116899643Y-58230581D01*
X116853796Y-58170707D01*
X116839848Y-58155780D01*
X116723969Y-58064660D01*
X116584520Y-57996009D01*
X116429189Y-57952303D01*
X116265664Y-57936017D01*
X116169881Y-57940130D01*
X116085851Y-57948957D01*
X116032015Y-57958449D01*
X116001636Y-57972865D01*
X115987974Y-57996467D01*
X115984293Y-58033513D01*
X115984091Y-58057589D01*
X115983868Y-58115922D01*
X115980223Y-58158763D01*
X115968106Y-58189376D01*
X115942467Y-58211024D01*
X115898254Y-58226971D01*
X115830418Y-58240479D01*
X115733907Y-58254812D01*
X115663560Y-58264681D01*
X115364222Y-58306894D01*
X115280118Y-58401942D01*
X115219546Y-58469498D01*
X115152840Y-58542574D01*
X115112422Y-58586118D01*
X115028829Y-58675247D01*
X115035372Y-58516542D01*
X115037391Y-58445066D01*
X115037172Y-58390300D01*
X115034827Y-58360719D01*
X115033315Y-58357837D01*
X115012775Y-58360512D01*
X114962694Y-58367831D01*
X114890197Y-58378731D01*
X114802412Y-58392152D01*
X114785575Y-58394747D01*
X114694474Y-58408592D01*
X114616075Y-58420101D01*
X114557967Y-58428189D01*
X114527737Y-58431772D01*
X114526020Y-58431855D01*
X114514695Y-58449699D01*
X114504202Y-58499735D01*
X114495476Y-58577047D01*
X114493532Y-58602145D01*
X114487646Y-58677223D01*
X114481930Y-58736740D01*
X114477257Y-58772135D01*
X114475562Y-58778135D01*
X114456348Y-58782415D01*
X114405521Y-58791290D01*
X114328179Y-58803938D01*
X114229419Y-58819536D01*
X114114339Y-58837263D01*
X114027698Y-58850364D01*
X113585729Y-58916697D01*
X113528024Y-58861197D01*
X113414668Y-58777027D01*
X113280299Y-58718802D01*
X113129848Y-58685936D01*
X112968245Y-58677845D01*
X112800420Y-58693940D01*
X112631304Y-58733638D01*
X112465828Y-58796352D01*
X112308921Y-58881496D01*
X112165514Y-58988484D01*
X112122235Y-59028249D01*
X112016377Y-59152065D01*
X111944297Y-59283760D01*
X111906384Y-59420005D01*
X111903028Y-59557469D01*
X111747623Y-59557469D01*
X111741490Y-59459913D01*
X111766250Y-59315461D01*
G37*
G36*
X112582740Y-59306393D02*
G01*
X112586339Y-59228435D01*
X112587945Y-59181111D01*
X112587983Y-59178361D01*
X112589019Y-59080477D01*
X112537997Y-59107255D01*
X112461663Y-59161291D01*
X112392074Y-59235489D01*
X112336172Y-59319837D01*
X112300900Y-59404324D01*
X112292160Y-59461781D01*
X112307506Y-59542421D01*
X112349142Y-59626931D01*
X112410466Y-59702007D01*
X112412196Y-59703650D01*
X112476320Y-59764127D01*
X112385035Y-59849513D01*
X112336357Y-59892759D01*
X112297117Y-59923475D01*
X112276121Y-59934900D01*
X112248192Y-59920125D01*
X112208413Y-59881327D01*
X112163177Y-59826799D01*
X112118876Y-59764833D01*
X112081900Y-59703720D01*
X112059213Y-59653505D01*
X112036718Y-59530462D01*
X112048117Y-59406979D01*
X112090361Y-59286100D01*
X112160401Y-59170866D01*
X112255186Y-59064320D01*
X112371668Y-58969506D01*
X112506797Y-58889465D01*
X112657523Y-58827241D01*
X112820798Y-58785877D01*
X112943910Y-58770753D01*
X113085920Y-58772834D01*
X113213153Y-58797818D01*
X113321689Y-58843280D01*
X113407612Y-58906795D01*
X113467002Y-58985940D01*
X113495940Y-59078290D01*
X113498150Y-59113675D01*
X113480038Y-59218776D01*
X113427441Y-59322324D01*
X113342965Y-59421715D01*
X113229217Y-59514343D01*
X113088805Y-59597605D01*
X112953541Y-59657864D01*
X112820940Y-59709403D01*
X112800955Y-60035958D01*
X112793516Y-60153820D01*
X112786980Y-60241001D01*
X112780177Y-60303868D01*
X112771932Y-60348789D01*
X112761073Y-60382131D01*
X112746428Y-60410263D01*
X112726824Y-60439552D01*
X112726570Y-60439913D01*
X112654267Y-60515172D01*
X112561440Y-60571599D01*
X112458157Y-60605675D01*
X112354485Y-60613877D01*
X112274249Y-60598118D01*
X112221112Y-60566286D01*
X112171872Y-60516195D01*
X112136618Y-60460174D01*
X112125177Y-60416026D01*
X112128683Y-60398297D01*
X112143656Y-60385136D01*
X112176781Y-60374144D01*
X112234744Y-60362923D01*
X112302896Y-60352258D01*
X112360304Y-60348856D01*
X112394572Y-60361778D01*
X112402575Y-60369818D01*
X112433060Y-60393935D01*
X112449866Y-60398742D01*
X112469201Y-60395736D01*
X112485168Y-60384250D01*
X112498424Y-60360579D01*
X112509624Y-60321022D01*
X112519426Y-60261874D01*
X112528486Y-60179433D01*
X112537460Y-60069995D01*
X112547004Y-59929857D01*
X112554595Y-59807919D01*
X112563075Y-59665749D01*
X112570799Y-59530882D01*
X112573140Y-59488073D01*
X112830731Y-59488073D01*
X112918474Y-59450461D01*
X112983920Y-59420096D01*
X113045827Y-59387735D01*
X113065350Y-59376305D01*
X113123268Y-59332670D01*
X113176647Y-59279176D01*
X113217425Y-59225325D01*
X113237541Y-59180618D01*
X113238398Y-59172333D01*
X113221077Y-59109065D01*
X113173197Y-59055362D01*
X113100887Y-59015208D01*
X113010274Y-58992588D01*
X112956591Y-58989069D01*
X112869598Y-58988662D01*
X112860052Y-59067515D01*
X112854583Y-59122632D01*
X112848330Y-59200764D01*
X112842386Y-59287866D01*
X112840619Y-59317220D01*
X112830731Y-59488073D01*
X112573140Y-59488073D01*
X112577457Y-59409153D01*
X112582740Y-59306393D01*
G37*
G36*
X115774824Y-58346222D02*
G01*
X115764678Y-58361121D01*
X115732847Y-58399771D01*
X115682567Y-58458429D01*
X115617076Y-58533356D01*
X115539610Y-58620811D01*
X115467488Y-58701401D01*
X115153862Y-59050291D01*
X115235278Y-59150248D01*
X115330668Y-59281619D01*
X115399684Y-59412699D01*
X115446019Y-59553382D01*
X115473367Y-59713563D01*
X115481418Y-59809599D01*
X115488681Y-59910299D01*
X115497135Y-59981450D01*
X115508204Y-60030611D01*
X115523311Y-60065339D01*
X115532066Y-60078628D01*
X115585862Y-60134187D01*
X115654911Y-60170350D01*
X115746095Y-60189629D01*
X115849830Y-60194623D01*
X115928768Y-60195287D01*
X115976704Y-60201648D01*
X115999728Y-60220314D01*
X116003935Y-60257894D01*
X115995418Y-60320994D01*
X115990989Y-60347720D01*
X115979489Y-60417296D01*
X115801018Y-60416055D01*
X115712474Y-60412825D01*
X115628141Y-60405256D01*
X115561611Y-60394726D01*
X115542271Y-60389762D01*
X115428624Y-60338818D01*
X115335868Y-60265765D01*
X115279670Y-60191336D01*
X115260176Y-60150959D01*
X115246095Y-60105050D01*
X115235862Y-60045154D01*
X115227913Y-59962818D01*
X115222621Y-59883139D01*
X115216135Y-59784298D01*
X115208816Y-59711996D01*
X115198222Y-59655699D01*
X115181912Y-59604872D01*
X115157445Y-59548983D01*
X115134077Y-59501043D01*
X115094491Y-59427070D01*
X115053961Y-59361039D01*
X115019406Y-59313939D01*
X115009948Y-59303908D01*
X114960603Y-59257690D01*
X114914655Y-59313351D01*
X114887253Y-59348594D01*
X114867140Y-59382444D01*
X114852791Y-59421764D01*
X114842680Y-59473418D01*
X114835282Y-59544268D01*
X114829069Y-59641177D01*
X114825233Y-59715578D01*
X114811736Y-59987929D01*
X114734746Y-59999515D01*
X114671657Y-60009522D01*
X114614953Y-60019320D01*
X114606733Y-60020859D01*
X114573615Y-60024368D01*
X114559163Y-60011481D01*
X114555621Y-59972913D01*
X114555535Y-59959566D01*
X114556542Y-59920636D01*
X114559480Y-59852044D01*
X114564056Y-59758788D01*
X114569976Y-59645868D01*
X114576947Y-59518281D01*
X114584677Y-59381027D01*
X114592871Y-59239104D01*
X114601237Y-59097510D01*
X114609481Y-58961244D01*
X114617312Y-58835304D01*
X114624434Y-58724690D01*
X114630556Y-58634399D01*
X114635384Y-58569430D01*
X114638625Y-58534781D01*
X114639326Y-58530757D01*
X114660296Y-58515680D01*
X114705769Y-58501949D01*
X114735528Y-58496728D01*
X114796317Y-58487434D01*
X114846167Y-58478064D01*
X114860060Y-58474720D01*
X114873493Y-58472599D01*
X114882630Y-58478548D01*
X114887908Y-58497849D01*
X114889759Y-58535783D01*
X114888619Y-58597635D01*
X114884922Y-58688684D01*
X114882321Y-58745309D01*
X114878278Y-58842497D01*
X114875766Y-58925076D01*
X114874903Y-58986668D01*
X114875812Y-59020899D01*
X114877025Y-59025769D01*
X114891067Y-59012551D01*
X114926186Y-58975492D01*
X114978803Y-58918485D01*
X115045342Y-58845423D01*
X115122224Y-58760198D01*
X115166887Y-58710372D01*
X115252979Y-58615701D01*
X115331359Y-58532533D01*
X115398263Y-58464645D01*
X115449928Y-58415815D01*
X115482589Y-58389822D01*
X115489382Y-58386686D01*
X115553365Y-58374651D01*
X115623514Y-58363115D01*
X115689937Y-58353482D01*
X115742743Y-58347154D01*
X115772041Y-58345531D01*
X115774824Y-58346222D01*
G37*
G36*
X114444388Y-58981179D02*
G01*
X114440739Y-59038752D01*
X114431387Y-59080092D01*
X114423596Y-59092090D01*
X114397702Y-59099873D01*
X114343409Y-59111138D01*
X114269077Y-59124280D01*
X114196314Y-59135739D01*
X113989823Y-59166537D01*
X113975238Y-59284113D01*
X113968598Y-59345613D01*
X113965628Y-59390363D01*
X113966757Y-59407793D01*
X113986207Y-59405981D01*
X114030812Y-59395186D01*
X114083387Y-59380000D01*
X114156368Y-59359109D01*
X114227011Y-59341281D01*
X114264446Y-59333346D01*
X114334979Y-59320588D01*
X114323789Y-59533424D01*
X114190344Y-59566150D01*
X114115339Y-59586658D01*
X114047009Y-59608958D01*
X114000168Y-59628212D01*
X113969494Y-59646332D01*
X113952504Y-59667579D01*
X113945169Y-59702567D01*
X113943460Y-59761913D01*
X113943438Y-59777670D01*
X113945398Y-59838889D01*
X113950522Y-59882046D01*
X113957354Y-59897460D01*
X113980652Y-59894650D01*
X114031843Y-59887372D01*
X114102158Y-59876895D01*
X114147529Y-59869962D01*
X114245431Y-59855036D01*
X114312463Y-59846373D01*
X114354466Y-59844843D01*
X114377283Y-59851316D01*
X114386757Y-59866660D01*
X114388730Y-59891745D01*
X114388727Y-59905862D01*
X114388283Y-59953637D01*
X114383932Y-59990267D01*
X114371147Y-60018048D01*
X114345402Y-60039280D01*
X114302169Y-60056260D01*
X114236921Y-60071287D01*
X114145132Y-60086658D01*
X114022273Y-60104672D01*
X113987167Y-60109715D01*
X113873465Y-60126315D01*
X113771663Y-60141666D01*
X113687725Y-60154828D01*
X113627613Y-60164864D01*
X113597293Y-60170834D01*
X113595557Y-60171367D01*
X113581844Y-60165374D01*
X113574460Y-60131430D01*
X113572365Y-60069080D01*
X113573320Y-60007312D01*
X113579121Y-59972985D01*
X113594174Y-59956435D01*
X113622882Y-59948000D01*
X113628026Y-59946960D01*
X113667955Y-59932936D01*
X113682397Y-59904040D01*
X113683687Y-59879050D01*
X113680984Y-59841069D01*
X113668055Y-59832808D01*
X113646819Y-59842003D01*
X113613347Y-59868836D01*
X113565892Y-59917911D01*
X113511449Y-59980862D01*
X113457017Y-60049327D01*
X113409592Y-60114939D01*
X113382188Y-60158366D01*
X113360052Y-60195029D01*
X113338933Y-60216774D01*
X113309638Y-60226297D01*
X113262979Y-60226295D01*
X113189764Y-60219463D01*
X113178099Y-60218243D01*
X113131078Y-60207564D01*
X113109039Y-60190342D01*
X113108522Y-60187131D01*
X113119934Y-60153198D01*
X113150879Y-60098472D01*
X113196419Y-60030057D01*
X113251619Y-59955056D01*
X113311540Y-59880574D01*
X113358964Y-59826776D01*
X113428217Y-59757667D01*
X113507750Y-59686682D01*
X113581026Y-59628534D01*
X113584973Y-59625696D01*
X113702240Y-59542015D01*
X113702445Y-59446237D01*
X113704939Y-59373821D01*
X113710985Y-59303667D01*
X113714149Y-59280883D01*
X113719587Y-59235592D01*
X113711704Y-59215969D01*
X113684788Y-59211363D01*
X113676838Y-59211306D01*
X113648905Y-59208954D01*
X113634363Y-59195827D01*
X113628857Y-59162821D01*
X113628026Y-59109261D01*
X113628791Y-59053099D01*
X113630763Y-59015527D01*
X113632664Y-59006022D01*
X113651531Y-59003034D01*
X113701774Y-58995330D01*
X113778075Y-58983719D01*
X113875116Y-58969010D01*
X113987578Y-58952011D01*
X114040845Y-58943974D01*
X114444388Y-58883118D01*
X114444388Y-58981179D01*
G37*
G36*
X115752872Y-59114843D02*
G01*
X115820070Y-59108466D01*
X115943378Y-59097444D01*
X116051544Y-58867169D01*
X116092467Y-58782522D01*
X116129392Y-58710694D01*
X116158859Y-58658092D01*
X116177406Y-58631127D01*
X116180116Y-58629065D01*
X116208118Y-58623156D01*
X116261126Y-58615441D01*
X116321886Y-58608237D01*
X116443250Y-58595240D01*
X116626905Y-59143575D01*
X116810561Y-59691910D01*
X116736058Y-59703309D01*
X116670861Y-59713494D01*
X116609872Y-59723338D01*
X116603754Y-59724354D01*
X116563303Y-59726348D01*
X116535001Y-59709991D01*
X116506224Y-59669717D01*
X116432376Y-59576233D01*
X116334319Y-59488494D01*
X116224657Y-59416257D01*
X116119514Y-59370351D01*
X116102091Y-59367994D01*
X116085217Y-59375689D01*
X116065553Y-59398143D01*
X116039758Y-59440061D01*
X116004494Y-59506151D01*
X115957963Y-59598041D01*
X115837504Y-59838431D01*
X115739302Y-59850900D01*
X115676564Y-59859857D01*
X115625035Y-59868928D01*
X115606800Y-59873136D01*
X115583110Y-59874852D01*
X115581955Y-59853855D01*
X115586078Y-59839325D01*
X115599315Y-59806647D01*
X115625704Y-59748736D01*
X115661572Y-59673432D01*
X115703245Y-59588574D01*
X115708508Y-59578027D01*
X115749068Y-59495788D01*
X115782767Y-59425337D01*
X115806482Y-59373366D01*
X115817086Y-59346568D01*
X115817361Y-59344922D01*
X115800574Y-59338072D01*
X115756887Y-59335662D01*
X115704989Y-59337666D01*
X115592618Y-59345794D01*
X115598306Y-59246441D01*
X115602944Y-59195513D01*
X115614251Y-59160914D01*
X115638696Y-59138619D01*
X115668359Y-59129181D01*
X116189273Y-59129181D01*
X116204769Y-59146353D01*
X116244339Y-59164360D01*
X116258011Y-59168582D01*
X116315560Y-59184060D01*
X116345081Y-59189065D01*
X116354124Y-59183675D01*
X116350829Y-59169560D01*
X116340582Y-59139966D01*
X116323236Y-59088254D01*
X116309153Y-59045673D01*
X116276036Y-58944977D01*
X116233074Y-59027119D01*
X116207928Y-59078636D01*
X116192035Y-59117781D01*
X116189273Y-59129181D01*
X115668359Y-59129181D01*
X115682747Y-59124603D01*
X115752872Y-59114843D01*
G37*
G36*
X117973474Y-58361743D02*
G01*
X118105423Y-58342159D01*
X118170265Y-58333075D01*
X118218392Y-58327355D01*
X118240341Y-58326110D01*
X118240748Y-58326290D01*
X118235828Y-58343950D01*
X118219891Y-58388882D01*
X118195573Y-58453854D01*
X118171799Y-58515543D01*
X118140928Y-58595227D01*
X118114475Y-58664415D01*
X118095782Y-58714312D01*
X118088942Y-58733549D01*
X118087496Y-58752336D01*
X118103968Y-58762132D01*
X118146016Y-58765703D01*
X118178860Y-58766018D01*
X118279310Y-58766018D01*
X118508070Y-58285832D01*
X118586711Y-58274045D01*
X118654206Y-58265474D01*
X118718901Y-58259580D01*
X118728274Y-58259025D01*
X118791196Y-58255791D01*
X118972222Y-58797226D01*
X119025915Y-58959205D01*
X119067815Y-59088956D01*
X119098684Y-59189168D01*
X119119287Y-59262532D01*
X119130386Y-59311736D01*
X119132744Y-59339472D01*
X119128559Y-59348135D01*
X119097643Y-59355234D01*
X119043102Y-59363830D01*
X118992916Y-59370163D01*
X118931051Y-59376254D01*
X118895073Y-59374545D01*
X118874028Y-59361689D01*
X118856964Y-59334340D01*
X118853432Y-59327546D01*
X118810560Y-59267152D01*
X118744737Y-59199739D01*
X118666521Y-59134229D01*
X118586467Y-59079547D01*
X118521432Y-59046913D01*
X118424154Y-59009898D01*
X118306941Y-59248290D01*
X118189728Y-59486681D01*
X118059893Y-59508581D01*
X117995095Y-59518445D01*
X117946346Y-59523862D01*
X117923479Y-59523762D01*
X117923061Y-59523483D01*
X117928329Y-59505303D01*
X117947414Y-59459619D01*
X117977738Y-59392215D01*
X118016724Y-59308875D01*
X118044169Y-59251628D01*
X118172276Y-58986771D01*
X117985030Y-58997939D01*
X117881811Y-59266967D01*
X117845062Y-59360456D01*
X117811554Y-59441463D01*
X117784020Y-59503699D01*
X117765192Y-59540877D01*
X117759560Y-59548350D01*
X117733632Y-59555912D01*
X117684215Y-59564292D01*
X117622754Y-59572220D01*
X117560697Y-59578430D01*
X117509490Y-59581652D01*
X117480578Y-59580618D01*
X117478157Y-59579529D01*
X117472337Y-59559453D01*
X117462275Y-59511067D01*
X117449631Y-59442696D01*
X117441680Y-59396637D01*
X117422711Y-59283627D01*
X117408437Y-59206541D01*
X117396577Y-59164861D01*
X117384849Y-59158063D01*
X117370972Y-59185629D01*
X117352663Y-59247037D01*
X117327642Y-59341766D01*
X117320494Y-59368986D01*
X117252091Y-59628711D01*
X117151636Y-59642223D01*
X117084056Y-59651755D01*
X117023654Y-59661005D01*
X117000159Y-59664978D01*
X116963372Y-59669963D01*
X116949136Y-59668783D01*
X116943659Y-59641897D01*
X116928301Y-59584871D01*
X116904668Y-59502847D01*
X116874369Y-59400969D01*
X116839012Y-59284382D01*
X116800204Y-59158227D01*
X116759552Y-59027648D01*
X116718665Y-58897790D01*
X116679150Y-58773794D01*
X116642615Y-58660805D01*
X116610667Y-58563966D01*
X116584915Y-58488420D01*
X116566966Y-58439311D01*
X116559819Y-58423276D01*
X116491251Y-58346386D01*
X116395886Y-58289738D01*
X116279928Y-58256611D01*
X116234081Y-58251055D01*
X116114220Y-58241434D01*
X116114220Y-58142770D01*
X116115283Y-58085465D01*
X116122649Y-58054800D01*
X116142586Y-58040304D01*
X116180763Y-58031622D01*
X116307518Y-58024688D01*
X116438966Y-58046930D01*
X116565970Y-58094608D01*
X116679396Y-58163980D01*
X116770108Y-58251308D01*
X116792631Y-58282109D01*
X116815081Y-58326580D01*
X116845350Y-58402611D01*
X116881899Y-58505857D01*
X116923189Y-58631970D01*
X116967319Y-58775399D01*
X117002990Y-58893795D01*
X117035466Y-58999960D01*
X117063161Y-59088841D01*
X117084489Y-59155384D01*
X117097865Y-59194537D01*
X117101472Y-59202844D01*
X117108823Y-59188885D01*
X117123568Y-59144574D01*
X117144025Y-59075540D01*
X117168511Y-58987411D01*
X117189697Y-58907616D01*
X117216578Y-58805976D01*
X117240971Y-58716651D01*
X117261092Y-58645945D01*
X117275158Y-58600165D01*
X117280658Y-58585987D01*
X117302939Y-58575724D01*
X117350482Y-58563459D01*
X117411659Y-58551233D01*
X117474846Y-58541087D01*
X117528416Y-58535062D01*
X117560744Y-58535199D01*
X117563870Y-58536269D01*
X117570637Y-58555972D01*
X117581445Y-58605830D01*
X117595037Y-58679272D01*
X117610157Y-58769726D01*
X117617516Y-58816790D01*
X117633014Y-58913787D01*
X117647655Y-58997638D01*
X117660153Y-59061530D01*
X117669221Y-59098654D01*
X117671895Y-59104874D01*
X117681793Y-59092566D01*
X117702565Y-59050216D01*
X117732167Y-58982570D01*
X117768555Y-58894371D01*
X117809685Y-58790365D01*
X117810650Y-58787857D01*
X118529819Y-58787857D01*
X118529989Y-58793552D01*
X118549201Y-58801725D01*
X118591797Y-58817405D01*
X118618968Y-58826951D01*
X118668344Y-58844129D01*
X118699840Y-58855246D01*
X118705417Y-58857321D01*
X118701661Y-58841973D01*
X118688987Y-58800256D01*
X118670093Y-58741040D01*
X118669166Y-58738187D01*
X118648091Y-58677951D01*
X118630122Y-58634717D01*
X118619060Y-58617603D01*
X118618882Y-58617588D01*
X118605935Y-58632348D01*
X118584531Y-58668680D01*
X118560694Y-58714658D01*
X118540449Y-58758358D01*
X118529819Y-58787857D01*
X117810650Y-58787857D01*
X117828920Y-58740392D01*
X117973474Y-58361743D01*
G37*
G36*
X120544857Y-57737841D02*
G01*
X120539275Y-57842619D01*
X120427746Y-57882920D01*
X120285842Y-57949326D01*
X120158628Y-58038133D01*
X120092672Y-58100952D01*
X120062361Y-58135993D01*
X120014242Y-58194009D01*
X119953398Y-58268766D01*
X119884910Y-58354033D01*
X119830246Y-58422822D01*
X119624796Y-58682621D01*
X119612079Y-58951602D01*
X119606963Y-59049877D01*
X119601574Y-59136510D01*
X119596448Y-59203951D01*
X119592121Y-59244651D01*
X119590832Y-59251411D01*
X119569099Y-59274181D01*
X119516112Y-59289879D01*
X119485623Y-59294499D01*
X119423227Y-59303424D01*
X119372013Y-59312496D01*
X119354531Y-59316562D01*
X119332935Y-59318547D01*
X119325910Y-59301713D01*
X119330118Y-59257507D01*
X119330492Y-59254920D01*
X119335477Y-59208480D01*
X119341346Y-59135107D01*
X119347359Y-59044943D01*
X119352697Y-58949744D01*
X119364526Y-58716013D01*
X119147312Y-58471036D01*
X119077644Y-58391758D01*
X119018012Y-58322548D01*
X118972216Y-58267927D01*
X118944054Y-58232417D01*
X118936878Y-58220565D01*
X118957140Y-58215605D01*
X119004981Y-58207289D01*
X119071197Y-58197178D01*
X119092087Y-58194195D01*
X119240517Y-58173319D01*
X119285141Y-58223832D01*
X119366650Y-58315782D01*
X119426906Y-58382893D01*
X119468944Y-58428378D01*
X119495800Y-58455453D01*
X119510512Y-58467331D01*
X119515716Y-58467901D01*
X119528996Y-58451304D01*
X119561171Y-58410820D01*
X119608107Y-58351658D01*
X119665670Y-58279028D01*
X119699470Y-58236354D01*
X119827745Y-58081121D01*
X119944793Y-57955376D01*
X120055767Y-57855309D01*
X120165815Y-57777110D01*
X120280091Y-57716969D01*
X120403745Y-57671077D01*
X120498473Y-57645431D01*
X120550439Y-57633062D01*
X120544857Y-57737841D01*
G37*
D11*
X108620000Y-42680000D02*
X109950000Y-42680000D01*
X108620000Y-44010000D02*
X108620000Y-42680000D01*
X111220000Y-45280000D02*
X111220000Y-42680000D01*
X108620000Y-45280000D02*
X111220000Y-45280000D01*
X159540000Y-47880000D02*
X159540000Y-42680000D01*
X108620000Y-47880000D02*
X108620000Y-45280000D01*
X111220000Y-42680000D02*
X159540000Y-42680000D01*
X108620000Y-47880000D02*
X159540000Y-47880000D01*
D12*
X123600000Y-62350000D02*
X123600000Y-58650000D01*
X146400000Y-62350000D02*
X146400000Y-58650000D01*
M02*
