G04 #@! TF.GenerationSoftware,KiCad,Pcbnew,(6.0.9-0)*
G04 #@! TF.CreationDate,2022-12-14T16:06:14+03:00*
G04 #@! TF.ProjectId,pi3_extension_board,7069335f-6578-4746-956e-73696f6e5f62,rev?*
G04 #@! TF.SameCoordinates,Original*
G04 #@! TF.FileFunction,Soldermask,Top*
G04 #@! TF.FilePolarity,Negative*
%FSLAX46Y46*%
G04 Gerber Fmt 4.6, Leading zero omitted, Abs format (unit mm)*
G04 Created by KiCad (PCBNEW (6.0.9-0)) date 2022-12-14 16:06:14*
%MOMM*%
%LPD*%
G01*
G04 APERTURE LIST*
%ADD10C,3.200000*%
%ADD11O,1.700000X1.700000*%
%ADD12R,1.700000X1.700000*%
%ADD13R,0.600000X1.200000*%
%ADD14R,0.800000X1.400000*%
G04 APERTURE END LIST*
D10*
X157500000Y-54500000D03*
X110500000Y-54500000D03*
D11*
X158210000Y-46550000D03*
X158210000Y-44010000D03*
X155670000Y-46550000D03*
X155670000Y-44010000D03*
X153130000Y-46550000D03*
X153130000Y-44010000D03*
X150590000Y-46550000D03*
X150590000Y-44010000D03*
X148050000Y-46550000D03*
X148050000Y-44010000D03*
X145510000Y-46550000D03*
X145510000Y-44010000D03*
X142970000Y-46550000D03*
X142970000Y-44010000D03*
X140430000Y-46550000D03*
X140430000Y-44010000D03*
X137890000Y-46550000D03*
X137890000Y-44010000D03*
X135350000Y-46550000D03*
X135350000Y-44010000D03*
X132810000Y-46550000D03*
X132810000Y-44010000D03*
X130270000Y-46550000D03*
X130270000Y-44010000D03*
X127730000Y-46550000D03*
X127730000Y-44010000D03*
X125190000Y-46550000D03*
X125190000Y-44010000D03*
X122650000Y-46550000D03*
X122650000Y-44010000D03*
X120110000Y-46550000D03*
X120110000Y-44010000D03*
X117570000Y-46550000D03*
X117570000Y-44010000D03*
X115030000Y-46550000D03*
X115030000Y-44010000D03*
X112490000Y-46550000D03*
X112490000Y-44010000D03*
X109950000Y-46550000D03*
D12*
X109950000Y-44010000D03*
D13*
X125250000Y-61950000D03*
X125750000Y-59050000D03*
X126250000Y-61950000D03*
X126750000Y-59050000D03*
X127250000Y-61950000D03*
X127750000Y-59050000D03*
X128250000Y-61950000D03*
X128750000Y-59050000D03*
X129250000Y-61950000D03*
X129750000Y-59050000D03*
X130250000Y-61950000D03*
X130750000Y-59050000D03*
X131250000Y-61950000D03*
X131750000Y-59050000D03*
X132250000Y-61950000D03*
X132750000Y-59050000D03*
X133250000Y-61950000D03*
X133750000Y-59050000D03*
X134250000Y-61950000D03*
X134750000Y-59050000D03*
X135250000Y-61950000D03*
X135750000Y-59050000D03*
X136250000Y-61950000D03*
X136750000Y-59050000D03*
X137250000Y-61950000D03*
X137750000Y-59050000D03*
X138250000Y-61950000D03*
X138750000Y-59050000D03*
X139250000Y-61950000D03*
X139750000Y-59050000D03*
X140250000Y-61950000D03*
X140750000Y-59050000D03*
X141250000Y-61950000D03*
X141750000Y-59050000D03*
X142250000Y-61950000D03*
X142750000Y-59050000D03*
X143250000Y-61950000D03*
X143750000Y-59050000D03*
X144250000Y-61950000D03*
X144750000Y-59050000D03*
D14*
X124250000Y-59150000D03*
X124250000Y-61850000D03*
X145750000Y-61850000D03*
X145750000Y-59150000D03*
M02*
