G04 #@! TF.GenerationSoftware,KiCad,Pcbnew,(6.0.9-0)*
G04 #@! TF.CreationDate,2022-12-14T16:06:14+03:00*
G04 #@! TF.ProjectId,pi3_extension_board,7069335f-6578-4746-956e-73696f6e5f62,rev?*
G04 #@! TF.SameCoordinates,Original*
G04 #@! TF.FileFunction,Copper,L1,Top*
G04 #@! TF.FilePolarity,Positive*
%FSLAX46Y46*%
G04 Gerber Fmt 4.6, Leading zero omitted, Abs format (unit mm)*
G04 Created by KiCad (PCBNEW (6.0.9-0)) date 2022-12-14 16:06:14*
%MOMM*%
%LPD*%
G01*
G04 APERTURE LIST*
G04 #@! TA.AperFunction,ComponentPad*
%ADD10O,1.700000X1.700000*%
G04 #@! TD*
G04 #@! TA.AperFunction,ComponentPad*
%ADD11R,1.700000X1.700000*%
G04 #@! TD*
G04 #@! TA.AperFunction,SMDPad,CuDef*
%ADD12R,0.600000X1.200000*%
G04 #@! TD*
G04 #@! TA.AperFunction,SMDPad,CuDef*
%ADD13R,0.800000X1.400000*%
G04 #@! TD*
G04 #@! TA.AperFunction,ViaPad*
%ADD14C,0.600000*%
G04 #@! TD*
G04 #@! TA.AperFunction,Conductor*
%ADD15C,0.304800*%
G04 #@! TD*
G04 #@! TA.AperFunction,Conductor*
%ADD16C,0.250000*%
G04 #@! TD*
G04 #@! TA.AperFunction,Conductor*
%ADD17C,0.800000*%
G04 #@! TD*
G04 #@! TA.AperFunction,Conductor*
%ADD18C,0.254000*%
G04 #@! TD*
G04 APERTURE END LIST*
D10*
X158210000Y-46550000D03*
X158210000Y-44010000D03*
X155670000Y-46550000D03*
X155670000Y-44010000D03*
X153130000Y-46550000D03*
X153130000Y-44010000D03*
X150590000Y-46550000D03*
X150590000Y-44010000D03*
X148050000Y-46550000D03*
X148050000Y-44010000D03*
X145510000Y-46550000D03*
X145510000Y-44010000D03*
X142970000Y-46550000D03*
X142970000Y-44010000D03*
X140430000Y-46550000D03*
X140430000Y-44010000D03*
X137890000Y-46550000D03*
X137890000Y-44010000D03*
X135350000Y-46550000D03*
X135350000Y-44010000D03*
X132810000Y-46550000D03*
X132810000Y-44010000D03*
X130270000Y-46550000D03*
X130270000Y-44010000D03*
X127730000Y-46550000D03*
X127730000Y-44010000D03*
X125190000Y-46550000D03*
X125190000Y-44010000D03*
X122650000Y-46550000D03*
X122650000Y-44010000D03*
X120110000Y-46550000D03*
X120110000Y-44010000D03*
X117570000Y-46550000D03*
X117570000Y-44010000D03*
X115030000Y-46550000D03*
X115030000Y-44010000D03*
X112490000Y-46550000D03*
X112490000Y-44010000D03*
X109950000Y-46550000D03*
D11*
X109950000Y-44010000D03*
D12*
X125250000Y-61950000D03*
X125750000Y-59050000D03*
X126250000Y-61950000D03*
X126750000Y-59050000D03*
X127250000Y-61950000D03*
X127750000Y-59050000D03*
X128250000Y-61950000D03*
X128750000Y-59050000D03*
X129250000Y-61950000D03*
X129750000Y-59050000D03*
X130250000Y-61950000D03*
X130750000Y-59050000D03*
X131250000Y-61950000D03*
X131750000Y-59050000D03*
X132250000Y-61950000D03*
X132750000Y-59050000D03*
X133250000Y-61950000D03*
X133750000Y-59050000D03*
X134250000Y-61950000D03*
X134750000Y-59050000D03*
X135250000Y-61950000D03*
X135750000Y-59050000D03*
X136250000Y-61950000D03*
X136750000Y-59050000D03*
X137250000Y-61950000D03*
X137750000Y-59050000D03*
X138250000Y-61950000D03*
X138750000Y-59050000D03*
X139250000Y-61950000D03*
X139750000Y-59050000D03*
X140250000Y-61950000D03*
X140750000Y-59050000D03*
X141250000Y-61950000D03*
X141750000Y-59050000D03*
X142250000Y-61950000D03*
X142750000Y-59050000D03*
X143250000Y-61950000D03*
X143750000Y-59050000D03*
X144250000Y-61950000D03*
X144750000Y-59050000D03*
D13*
X124250000Y-59150000D03*
X124250000Y-61850000D03*
X145750000Y-61850000D03*
X145750000Y-59150000D03*
D14*
X132000000Y-49000000D03*
X115500000Y-49000000D03*
X121500000Y-55000000D03*
X117500000Y-55500000D03*
X144350000Y-63300000D03*
X133250000Y-63250000D03*
X125100000Y-63700000D03*
X143250000Y-63150000D03*
X142250000Y-63150000D03*
X141200000Y-63150000D03*
X140250000Y-63100000D03*
X139250000Y-63150000D03*
X138200000Y-63150000D03*
X137200000Y-63100000D03*
X136250000Y-63100000D03*
X135300000Y-63050000D03*
X134250000Y-63050000D03*
X132250000Y-63100000D03*
X131250000Y-63100000D03*
X130150000Y-63100000D03*
X128250000Y-63100000D03*
X127200000Y-63100000D03*
X126200000Y-63100000D03*
D15*
X115030000Y-46550000D02*
X115100000Y-46480000D01*
X115100000Y-46480000D02*
X115100000Y-45850000D01*
X115500000Y-45450000D02*
X115900000Y-45450000D01*
X115100000Y-45850000D02*
X115500000Y-45450000D01*
X115900000Y-45450000D02*
X116002400Y-45347600D01*
X120110000Y-44290000D02*
X120110000Y-44010000D01*
X116002400Y-45347600D02*
X119052400Y-45347600D01*
X119052400Y-45347600D02*
X120110000Y-44290000D01*
X145510000Y-46550000D02*
X145510000Y-45990000D01*
X145510000Y-45990000D02*
X146152400Y-45347600D01*
X146152400Y-45347600D02*
X149387600Y-45347600D01*
X149387600Y-45347600D02*
X150590000Y-46550000D01*
D16*
X141736396Y-51900000D02*
X146550000Y-51900000D01*
X146550000Y-51900000D02*
X147900000Y-50550000D01*
X147900000Y-50550000D02*
X147900000Y-47050000D01*
X140750000Y-52886396D02*
X141736396Y-51900000D01*
X140750000Y-59050000D02*
X140750000Y-52886396D01*
X147900000Y-47050000D02*
X147400000Y-46550000D01*
X127450000Y-46550000D02*
X127550000Y-46550000D01*
X127550000Y-46550000D02*
X128800000Y-47800000D01*
X128800000Y-49300000D02*
X130150000Y-50650000D01*
X128800000Y-47800000D02*
X128800000Y-49300000D01*
X132050000Y-50650000D02*
X132750000Y-51350000D01*
X130150000Y-50650000D02*
X132050000Y-50650000D01*
X132750000Y-51350000D02*
X132750000Y-59050000D01*
X130350000Y-46550000D02*
X129250000Y-47650000D01*
X130336396Y-50200000D02*
X132900000Y-50200000D01*
X129250000Y-47650000D02*
X129250000Y-49113604D01*
X129250000Y-49113604D02*
X130336396Y-50200000D01*
X130550000Y-46550000D02*
X130350000Y-46550000D01*
X132900000Y-50200000D02*
X133700000Y-51000000D01*
X133700000Y-51000000D02*
X133700000Y-59000000D01*
X122550000Y-46550000D02*
X121500000Y-47600000D01*
X130450000Y-53400000D02*
X130450000Y-57500000D01*
X121500000Y-47600000D02*
X121500000Y-50577208D01*
X128350000Y-51300000D02*
X130450000Y-53400000D01*
X121500000Y-50577208D02*
X122222792Y-51300000D01*
X122222792Y-51300000D02*
X128350000Y-51300000D01*
X130450000Y-57500000D02*
X130750000Y-57800000D01*
X130750000Y-57800000D02*
X130750000Y-59050000D01*
X120110000Y-46550000D02*
X121000000Y-47440000D01*
X121000000Y-47440000D02*
X121000000Y-50713604D01*
X121000000Y-50713604D02*
X122036396Y-51750000D01*
X128150000Y-51750000D02*
X130000000Y-53600000D01*
X122036396Y-51750000D02*
X128150000Y-51750000D01*
X129750000Y-57800000D02*
X129750000Y-59050000D01*
X130000000Y-53600000D02*
X130000000Y-57550000D01*
X130000000Y-57550000D02*
X129750000Y-57800000D01*
X117570000Y-46550000D02*
X117570000Y-47870000D01*
X127250000Y-52200000D02*
X128500000Y-53450000D01*
X117990000Y-48290000D02*
X119890000Y-48290000D01*
X119890000Y-48290000D02*
X120550000Y-48950000D01*
X117570000Y-47870000D02*
X117990000Y-48290000D01*
X121850000Y-52200000D02*
X127250000Y-52200000D01*
X120550000Y-48950000D02*
X120550000Y-50900000D01*
X120550000Y-50900000D02*
X121850000Y-52200000D01*
X128500000Y-53450000D02*
X128500000Y-57500000D01*
X128500000Y-57500000D02*
X128750000Y-57750000D01*
X128750000Y-57750000D02*
X128750000Y-59050000D01*
X152700000Y-46550000D02*
X152000000Y-47250000D01*
X152000000Y-47250000D02*
X152000000Y-51350000D01*
X152000000Y-51350000D02*
X150550000Y-52800000D01*
X150550000Y-52800000D02*
X143686396Y-52800000D01*
X143686396Y-52800000D02*
X142750000Y-53736396D01*
X142750000Y-53736396D02*
X142750000Y-59050000D01*
D15*
X144400000Y-63250000D02*
X144350000Y-63300000D01*
X144400000Y-63000000D02*
X144400000Y-63250000D01*
X144250000Y-61950000D02*
X144250000Y-62850000D01*
X144250000Y-62850000D02*
X144400000Y-63000000D01*
X139750000Y-60500000D02*
X141950000Y-60500000D01*
X141750000Y-60300000D02*
X141950000Y-60500000D01*
X141950000Y-60500000D02*
X143900000Y-60500000D01*
X141750000Y-59050000D02*
X141750000Y-60300000D01*
X134900000Y-60500000D02*
X139750000Y-60500000D01*
X139750000Y-59050000D02*
X139750000Y-60500000D01*
X131750000Y-60500000D02*
X134900000Y-60500000D01*
X134750000Y-59050000D02*
X134750000Y-60350000D01*
X134750000Y-60350000D02*
X134900000Y-60500000D01*
X129350000Y-60500000D02*
X131750000Y-60500000D01*
X131750000Y-59050000D02*
X131750000Y-60500000D01*
X128550000Y-60500000D02*
X129350000Y-60500000D01*
X129250000Y-61950000D02*
X129250000Y-60600000D01*
X129250000Y-60600000D02*
X129350000Y-60500000D01*
X127750000Y-59050000D02*
X127750000Y-59700000D01*
X127750000Y-59700000D02*
X128550000Y-60500000D01*
X143900000Y-60500000D02*
X144250000Y-60850000D01*
X144250000Y-60850000D02*
X144250000Y-61950000D01*
X133250000Y-61950000D02*
X133250000Y-63250000D01*
X125250000Y-61950000D02*
X125250000Y-63200000D01*
D17*
X125100000Y-63700000D02*
X125250000Y-63550000D01*
X125250000Y-63550000D02*
X125250000Y-63200000D01*
X109950000Y-44010000D02*
X109950000Y-43150000D01*
X109950000Y-43150000D02*
X110900000Y-42200000D01*
X110900000Y-42200000D02*
X128460000Y-42200000D01*
X128460000Y-42200000D02*
X130270000Y-44010000D01*
D15*
X126200000Y-59050000D02*
X126100000Y-58950000D01*
X126750000Y-59050000D02*
X126200000Y-59050000D01*
X126100000Y-58950000D02*
X125850000Y-58950000D01*
X125750000Y-59050000D02*
X125750000Y-57250000D01*
D17*
X124400000Y-53450000D02*
X125750000Y-54800000D01*
X125750000Y-54800000D02*
X125750000Y-57250000D01*
X115100000Y-53450000D02*
X124400000Y-53450000D01*
X112490000Y-50840000D02*
X115100000Y-53450000D01*
X112490000Y-46550000D02*
X112490000Y-50840000D01*
X112490000Y-46550000D02*
X109950000Y-46550000D01*
D18*
X143250000Y-63150000D02*
X143250000Y-61950000D01*
X142250000Y-63150000D02*
X142250000Y-61950000D01*
X141200000Y-63150000D02*
X141200000Y-62000000D01*
X140250000Y-63100000D02*
X140250000Y-61950000D01*
X139250000Y-63150000D02*
X139250000Y-61950000D01*
X138200000Y-63150000D02*
X138200000Y-62000000D01*
X137200000Y-63100000D02*
X137200000Y-62000000D01*
X136250000Y-63100000D02*
X136250000Y-61950000D01*
X135300000Y-63050000D02*
X135300000Y-62000000D01*
X134250000Y-63050000D02*
X134250000Y-61950000D01*
X132250000Y-63100000D02*
X132250000Y-61950000D01*
X131250000Y-63100000D02*
X131250000Y-61950000D01*
X130150000Y-63100000D02*
X130300000Y-62950000D01*
X130300000Y-62950000D02*
X130300000Y-62000000D01*
X128250000Y-63100000D02*
X128250000Y-61950000D01*
X127200000Y-63100000D02*
X127200000Y-62000000D01*
X126200000Y-63100000D02*
X126200000Y-62000000D01*
D16*
X140750000Y-46550000D02*
X141400000Y-47200000D01*
X141400000Y-47200000D02*
X141400000Y-49613604D01*
X140513604Y-50500000D02*
X139263604Y-50500000D01*
X138000000Y-57300000D02*
X137750000Y-57550000D01*
X141400000Y-49613604D02*
X140513604Y-50500000D01*
X139263604Y-50500000D02*
X138000000Y-51763604D01*
X138000000Y-51763604D02*
X138000000Y-57300000D01*
X137750000Y-57550000D02*
X137750000Y-59050000D01*
X142450000Y-46550000D02*
X141850000Y-47150000D01*
X141850000Y-47150000D02*
X141850000Y-49800000D01*
X141850000Y-49800000D02*
X140700000Y-50950000D01*
X139450000Y-50950000D02*
X138450000Y-51950000D01*
X138750000Y-57600000D02*
X138750000Y-59050000D01*
X140700000Y-50950000D02*
X139450000Y-50950000D01*
X138450000Y-51950000D02*
X138450000Y-57300000D01*
X138450000Y-57300000D02*
X138750000Y-57600000D01*
X153163604Y-53250000D02*
X144900000Y-53250000D01*
X156200000Y-46550000D02*
X156700000Y-47050000D01*
X143950000Y-54200000D02*
X143950000Y-57750000D01*
X156700000Y-47050000D02*
X156700000Y-49713604D01*
X156700000Y-49713604D02*
X153163604Y-53250000D01*
X144900000Y-53250000D02*
X143950000Y-54200000D01*
X143950000Y-57750000D02*
X143750000Y-57950000D01*
X143750000Y-57950000D02*
X143750000Y-59050000D01*
X157600000Y-46550000D02*
X157150000Y-47000000D01*
X157150000Y-47000000D02*
X157150000Y-49900000D01*
X157150000Y-49900000D02*
X153350000Y-53700000D01*
X153350000Y-53700000D02*
X145100000Y-53700000D01*
X145100000Y-53700000D02*
X144400000Y-54400000D01*
X144400000Y-54400000D02*
X144400000Y-57600000D01*
X144400000Y-57600000D02*
X144750000Y-57950000D01*
X144750000Y-57950000D02*
X144750000Y-59050000D01*
X137890000Y-46550000D02*
X137200000Y-47240000D01*
X137200000Y-47240000D02*
X137200000Y-56300000D01*
X137200000Y-56300000D02*
X136750000Y-56750000D01*
X136750000Y-56750000D02*
X136750000Y-59050000D01*
X135350000Y-46550000D02*
X135350000Y-56100000D01*
X135350000Y-56100000D02*
X135750000Y-56500000D01*
X135750000Y-56500000D02*
X135750000Y-59050000D01*
G04 #@! TA.AperFunction,Conductor*
G36*
X110183828Y-41774502D02*
G01*
X110230321Y-41828158D01*
X110240425Y-41898432D01*
X110210931Y-41963012D01*
X110204802Y-41969595D01*
X109544852Y-42629545D01*
X109536148Y-42637465D01*
X109529490Y-42641691D01*
X109524065Y-42647468D01*
X109481273Y-42693037D01*
X109478518Y-42695879D01*
X109458081Y-42716316D01*
X109455402Y-42719770D01*
X109447694Y-42728795D01*
X109416290Y-42762237D01*
X109412473Y-42769180D01*
X109406051Y-42780862D01*
X109395198Y-42797384D01*
X109382167Y-42814184D01*
X109379017Y-42821464D01*
X109375520Y-42829544D01*
X109330108Y-42884118D01*
X109259884Y-42905501D01*
X109074934Y-42905501D01*
X109039182Y-42912612D01*
X109012874Y-42917844D01*
X109012872Y-42917845D01*
X109000699Y-42920266D01*
X108990379Y-42927161D01*
X108990378Y-42927162D01*
X108955209Y-42950662D01*
X108916516Y-42976516D01*
X108860266Y-43060699D01*
X108845500Y-43134933D01*
X108845501Y-44885066D01*
X108860266Y-44959301D01*
X108867161Y-44969620D01*
X108867162Y-44969622D01*
X108905370Y-45026803D01*
X108916516Y-45043484D01*
X109000699Y-45099734D01*
X109074933Y-45114500D01*
X109949858Y-45114500D01*
X110825066Y-45114499D01*
X110860818Y-45107388D01*
X110887126Y-45102156D01*
X110887128Y-45102155D01*
X110899301Y-45099734D01*
X110909621Y-45092839D01*
X110909622Y-45092838D01*
X110973168Y-45050377D01*
X110983484Y-45043484D01*
X111039734Y-44959301D01*
X111054500Y-44885067D01*
X111054499Y-43134934D01*
X111040457Y-43064335D01*
X111046786Y-42993623D01*
X111074941Y-42950662D01*
X111134198Y-42891405D01*
X111196510Y-42857379D01*
X111223293Y-42854500D01*
X111813637Y-42854500D01*
X111881758Y-42874502D01*
X111928251Y-42928158D01*
X111938355Y-42998432D01*
X111908861Y-43063012D01*
X111878061Y-43088784D01*
X111838010Y-43112612D01*
X111833670Y-43116418D01*
X111833666Y-43116421D01*
X111689733Y-43242648D01*
X111685392Y-43246455D01*
X111559720Y-43405869D01*
X111557031Y-43410980D01*
X111557029Y-43410983D01*
X111544073Y-43435609D01*
X111465203Y-43585515D01*
X111405007Y-43779378D01*
X111381148Y-43980964D01*
X111394424Y-44183522D01*
X111395845Y-44189118D01*
X111395846Y-44189123D01*
X111416119Y-44268945D01*
X111444392Y-44380269D01*
X111446809Y-44385512D01*
X111484010Y-44466208D01*
X111529377Y-44564616D01*
X111646533Y-44730389D01*
X111791938Y-44872035D01*
X111960720Y-44984812D01*
X111966023Y-44987090D01*
X111966026Y-44987092D01*
X112141921Y-45062662D01*
X112147228Y-45064942D01*
X112220244Y-45081464D01*
X112339579Y-45108467D01*
X112339584Y-45108468D01*
X112345216Y-45109742D01*
X112350987Y-45109969D01*
X112350989Y-45109969D01*
X112410756Y-45112317D01*
X112548053Y-45117712D01*
X112655348Y-45102155D01*
X112743231Y-45089413D01*
X112743236Y-45089412D01*
X112748945Y-45088584D01*
X112754409Y-45086729D01*
X112754414Y-45086728D01*
X112935693Y-45025192D01*
X112935698Y-45025190D01*
X112941165Y-45023334D01*
X113118276Y-44924147D01*
X113157969Y-44891135D01*
X113245696Y-44818172D01*
X113274345Y-44794345D01*
X113404147Y-44638276D01*
X113503334Y-44461165D01*
X113505190Y-44455698D01*
X113505192Y-44455693D01*
X113566728Y-44274414D01*
X113566729Y-44274409D01*
X113568584Y-44268945D01*
X113569412Y-44263236D01*
X113569413Y-44263231D01*
X113597179Y-44071727D01*
X113597712Y-44068053D01*
X113599232Y-44010000D01*
X113583894Y-43843071D01*
X113581187Y-43813613D01*
X113581186Y-43813610D01*
X113580658Y-43807859D01*
X113578401Y-43799856D01*
X113527125Y-43618046D01*
X113527124Y-43618044D01*
X113525557Y-43612487D01*
X113514978Y-43591033D01*
X113438331Y-43435609D01*
X113435776Y-43430428D01*
X113314320Y-43267779D01*
X113165258Y-43129987D01*
X113160375Y-43126906D01*
X113160371Y-43126903D01*
X113097226Y-43087062D01*
X113050287Y-43033795D01*
X113039598Y-42963608D01*
X113068553Y-42898784D01*
X113127957Y-42859904D01*
X113164461Y-42854500D01*
X114353637Y-42854500D01*
X114421758Y-42874502D01*
X114468251Y-42928158D01*
X114478355Y-42998432D01*
X114448861Y-43063012D01*
X114418061Y-43088784D01*
X114378010Y-43112612D01*
X114373670Y-43116418D01*
X114373666Y-43116421D01*
X114229733Y-43242648D01*
X114225392Y-43246455D01*
X114099720Y-43405869D01*
X114097031Y-43410980D01*
X114097029Y-43410983D01*
X114084073Y-43435609D01*
X114005203Y-43585515D01*
X113945007Y-43779378D01*
X113921148Y-43980964D01*
X113934424Y-44183522D01*
X113935845Y-44189118D01*
X113935846Y-44189123D01*
X113956119Y-44268945D01*
X113984392Y-44380269D01*
X113986809Y-44385512D01*
X114024010Y-44466208D01*
X114069377Y-44564616D01*
X114186533Y-44730389D01*
X114331938Y-44872035D01*
X114500720Y-44984812D01*
X114506023Y-44987090D01*
X114506026Y-44987092D01*
X114602954Y-45028735D01*
X114657647Y-45074003D01*
X114679184Y-45141654D01*
X114660727Y-45210210D01*
X114608136Y-45257904D01*
X114592361Y-45264268D01*
X114506868Y-45292212D01*
X114497359Y-45296209D01*
X114308463Y-45394542D01*
X114299738Y-45400036D01*
X114129433Y-45527905D01*
X114121726Y-45534748D01*
X113974590Y-45688717D01*
X113968104Y-45696727D01*
X113848098Y-45872649D01*
X113843000Y-45881623D01*
X113753338Y-46074783D01*
X113749777Y-46084464D01*
X113745291Y-46100640D01*
X113707813Y-46160939D01*
X113643684Y-46191403D01*
X113573266Y-46182360D01*
X113518915Y-46136682D01*
X113510867Y-46122698D01*
X113438331Y-45975609D01*
X113435776Y-45970428D01*
X113314320Y-45807779D01*
X113165258Y-45669987D01*
X113160375Y-45666906D01*
X113160371Y-45666903D01*
X112998464Y-45564748D01*
X112993581Y-45561667D01*
X112805039Y-45486446D01*
X112799379Y-45485320D01*
X112799375Y-45485319D01*
X112611613Y-45447971D01*
X112611610Y-45447971D01*
X112605946Y-45446844D01*
X112600171Y-45446768D01*
X112600167Y-45446768D01*
X112498793Y-45445441D01*
X112402971Y-45444187D01*
X112397274Y-45445166D01*
X112397273Y-45445166D01*
X112208607Y-45477585D01*
X112202910Y-45478564D01*
X112012463Y-45548824D01*
X111838010Y-45652612D01*
X111833670Y-45656418D01*
X111833666Y-45656421D01*
X111689733Y-45782648D01*
X111685392Y-45786455D01*
X111681817Y-45790990D01*
X111681816Y-45790991D01*
X111637263Y-45847506D01*
X111579382Y-45888619D01*
X111538313Y-45895500D01*
X110902990Y-45895500D01*
X110834869Y-45875498D01*
X110802033Y-45844890D01*
X110777779Y-45812411D01*
X110777777Y-45812409D01*
X110774320Y-45807779D01*
X110625258Y-45669987D01*
X110620375Y-45666906D01*
X110620371Y-45666903D01*
X110458464Y-45564748D01*
X110453581Y-45561667D01*
X110265039Y-45486446D01*
X110259379Y-45485320D01*
X110259375Y-45485319D01*
X110071613Y-45447971D01*
X110071610Y-45447971D01*
X110065946Y-45446844D01*
X110060171Y-45446768D01*
X110060167Y-45446768D01*
X109958793Y-45445441D01*
X109862971Y-45444187D01*
X109857274Y-45445166D01*
X109857273Y-45445166D01*
X109668607Y-45477585D01*
X109662910Y-45478564D01*
X109472463Y-45548824D01*
X109298010Y-45652612D01*
X109293670Y-45656418D01*
X109293666Y-45656421D01*
X109149733Y-45782648D01*
X109145392Y-45786455D01*
X109019720Y-45945869D01*
X109017031Y-45950980D01*
X109017029Y-45950983D01*
X109004073Y-45975609D01*
X108925203Y-46125515D01*
X108865007Y-46319378D01*
X108841148Y-46520964D01*
X108854424Y-46723522D01*
X108855845Y-46729118D01*
X108855846Y-46729123D01*
X108900208Y-46903796D01*
X108904392Y-46920269D01*
X108906809Y-46925512D01*
X108978367Y-47080734D01*
X108989377Y-47104616D01*
X108992710Y-47109332D01*
X109103194Y-47265664D01*
X109106533Y-47270389D01*
X109251938Y-47412035D01*
X109256742Y-47415245D01*
X109297288Y-47442337D01*
X109420720Y-47524812D01*
X109426023Y-47527090D01*
X109426026Y-47527092D01*
X109599635Y-47601680D01*
X109607228Y-47604942D01*
X109648386Y-47614255D01*
X109799579Y-47648467D01*
X109799584Y-47648468D01*
X109805216Y-47649742D01*
X109810987Y-47649969D01*
X109810989Y-47649969D01*
X109870756Y-47652317D01*
X110008053Y-47657712D01*
X110108499Y-47643148D01*
X110203231Y-47629413D01*
X110203236Y-47629412D01*
X110208945Y-47628584D01*
X110214409Y-47626729D01*
X110214414Y-47626728D01*
X110395693Y-47565192D01*
X110395698Y-47565190D01*
X110401165Y-47563334D01*
X110414508Y-47555862D01*
X110517625Y-47498113D01*
X110578276Y-47464147D01*
X110600501Y-47445663D01*
X110711908Y-47353006D01*
X110734345Y-47334345D01*
X110738032Y-47329912D01*
X110804553Y-47249930D01*
X110863491Y-47210346D01*
X110901427Y-47204500D01*
X111534725Y-47204500D01*
X111602846Y-47224502D01*
X111637622Y-47257781D01*
X111643193Y-47265664D01*
X111643197Y-47265669D01*
X111646533Y-47270389D01*
X111789141Y-47409310D01*
X111791938Y-47412035D01*
X111791403Y-47412584D01*
X111829146Y-47467222D01*
X111835500Y-47506729D01*
X111835500Y-50758479D01*
X111834947Y-50770220D01*
X111833226Y-50777917D01*
X111833475Y-50785843D01*
X111833475Y-50785844D01*
X111835438Y-50848307D01*
X111835500Y-50852265D01*
X111835500Y-50881178D01*
X111835995Y-50885097D01*
X111835995Y-50885099D01*
X111836049Y-50885525D01*
X111836978Y-50897339D01*
X111838053Y-50931524D01*
X111838420Y-50943200D01*
X111842128Y-50955963D01*
X111844351Y-50963615D01*
X111848360Y-50982973D01*
X111851024Y-51004061D01*
X111853943Y-51011433D01*
X111853943Y-51011434D01*
X111867910Y-51046712D01*
X111871755Y-51057941D01*
X111884555Y-51101999D01*
X111888592Y-51108825D01*
X111895377Y-51120298D01*
X111904072Y-51138045D01*
X111911899Y-51157814D01*
X111925000Y-51175846D01*
X111938861Y-51194924D01*
X111945378Y-51204846D01*
X111964693Y-51237506D01*
X111964696Y-51237510D01*
X111968733Y-51244336D01*
X111983762Y-51259365D01*
X111996602Y-51274398D01*
X112009098Y-51291597D01*
X112044462Y-51320852D01*
X112053228Y-51328831D01*
X114579543Y-53855145D01*
X114587464Y-53863849D01*
X114591691Y-53870510D01*
X114597469Y-53875936D01*
X114597470Y-53875937D01*
X114643053Y-53918742D01*
X114645895Y-53921497D01*
X114666316Y-53941918D01*
X114669771Y-53944598D01*
X114678791Y-53952302D01*
X114712237Y-53983710D01*
X114719181Y-53987527D01*
X114719183Y-53987529D01*
X114730866Y-53993952D01*
X114747390Y-54004807D01*
X114757916Y-54012972D01*
X114757922Y-54012975D01*
X114764184Y-54017833D01*
X114806288Y-54036053D01*
X114816937Y-54041270D01*
X114857147Y-54063375D01*
X114877742Y-54068663D01*
X114896437Y-54075064D01*
X114906423Y-54079385D01*
X114915949Y-54083507D01*
X114961260Y-54090683D01*
X114972883Y-54093091D01*
X115009640Y-54102529D01*
X115009641Y-54102529D01*
X115017317Y-54104500D01*
X115038574Y-54104500D01*
X115058284Y-54106051D01*
X115079278Y-54109376D01*
X115087170Y-54108630D01*
X115124947Y-54105059D01*
X115136805Y-54104500D01*
X124076706Y-54104500D01*
X124144827Y-54124502D01*
X124165801Y-54141404D01*
X125058595Y-55034197D01*
X125092620Y-55096510D01*
X125095500Y-55123293D01*
X125095500Y-57291178D01*
X125101746Y-57340616D01*
X125108075Y-57390715D01*
X125111024Y-57414061D01*
X125113941Y-57421428D01*
X125113941Y-57421429D01*
X125117220Y-57429711D01*
X125171899Y-57567814D01*
X125176557Y-57574225D01*
X125176558Y-57574227D01*
X125218239Y-57631596D01*
X125269098Y-57701597D01*
X125275202Y-57706647D01*
X125275208Y-57706653D01*
X125297416Y-57725025D01*
X125337154Y-57783859D01*
X125343100Y-57822109D01*
X125343100Y-58147996D01*
X125323098Y-58216117D01*
X125287101Y-58252761D01*
X125276834Y-58259621D01*
X125276832Y-58259623D01*
X125266516Y-58266516D01*
X125210266Y-58350699D01*
X125195500Y-58424933D01*
X125195501Y-59675066D01*
X125210266Y-59749301D01*
X125266516Y-59833484D01*
X125276832Y-59840377D01*
X125320003Y-59869223D01*
X125350699Y-59889734D01*
X125424933Y-59904500D01*
X125749947Y-59904500D01*
X126075066Y-59904499D01*
X126110818Y-59897388D01*
X126137126Y-59892156D01*
X126137128Y-59892155D01*
X126149301Y-59889734D01*
X126159621Y-59882839D01*
X126159622Y-59882838D01*
X126179998Y-59869223D01*
X126247751Y-59848008D01*
X126320002Y-59869223D01*
X126340379Y-59882839D01*
X126340382Y-59882840D01*
X126350699Y-59889734D01*
X126424933Y-59904500D01*
X126453990Y-59904500D01*
X126942825Y-59904499D01*
X127010945Y-59924501D01*
X127043650Y-59954934D01*
X127081715Y-60005724D01*
X127094276Y-60018285D01*
X127196351Y-60094786D01*
X127211946Y-60103324D01*
X127332394Y-60148478D01*
X127347649Y-60152105D01*
X127398514Y-60157631D01*
X127405328Y-60158000D01*
X127477885Y-60158000D01*
X127493124Y-60153525D01*
X127494329Y-60152135D01*
X127496000Y-60144452D01*
X127496000Y-57960116D01*
X127491525Y-57944877D01*
X127490135Y-57943672D01*
X127482452Y-57942001D01*
X127405331Y-57942001D01*
X127398510Y-57942371D01*
X127347648Y-57947895D01*
X127332396Y-57951521D01*
X127211946Y-57996676D01*
X127196351Y-58005214D01*
X127094276Y-58081715D01*
X127081719Y-58094272D01*
X127043652Y-58145065D01*
X126986792Y-58187580D01*
X126942825Y-58195500D01*
X126454000Y-58195501D01*
X126424934Y-58195501D01*
X126350699Y-58210266D01*
X126340379Y-58217162D01*
X126331117Y-58220998D01*
X126260528Y-58228587D01*
X126197041Y-58196807D01*
X126160814Y-58135749D01*
X126156900Y-58104589D01*
X126156900Y-57822689D01*
X126176902Y-57754568D01*
X126191050Y-57736436D01*
X126191536Y-57735919D01*
X126283710Y-57637763D01*
X126363375Y-57492853D01*
X126404500Y-57332683D01*
X126404500Y-54881521D01*
X126405053Y-54869780D01*
X126406774Y-54862083D01*
X126404562Y-54791693D01*
X126404500Y-54787735D01*
X126404500Y-54758822D01*
X126403951Y-54754474D01*
X126403022Y-54742661D01*
X126401829Y-54704726D01*
X126401580Y-54696800D01*
X126395649Y-54676384D01*
X126391640Y-54657025D01*
X126389970Y-54643805D01*
X126389969Y-54643803D01*
X126388976Y-54635939D01*
X126386057Y-54628566D01*
X126372087Y-54593280D01*
X126368242Y-54582051D01*
X126357655Y-54545613D01*
X126355444Y-54538001D01*
X126351408Y-54531176D01*
X126351406Y-54531172D01*
X126344624Y-54519703D01*
X126335928Y-54501953D01*
X126331021Y-54489559D01*
X126331018Y-54489554D01*
X126328101Y-54482186D01*
X126323440Y-54475770D01*
X126323438Y-54475767D01*
X126301133Y-54445066D01*
X126294616Y-54435145D01*
X126275305Y-54402491D01*
X126275303Y-54402488D01*
X126271267Y-54395664D01*
X126256238Y-54380635D01*
X126243397Y-54365601D01*
X126235562Y-54354817D01*
X126230902Y-54348403D01*
X126195538Y-54319148D01*
X126186772Y-54311169D01*
X124920455Y-53044852D01*
X124912535Y-53036148D01*
X124908309Y-53029490D01*
X124856962Y-52981272D01*
X124854121Y-52978518D01*
X124833684Y-52958081D01*
X124830226Y-52955399D01*
X124821204Y-52947693D01*
X124793541Y-52921716D01*
X124787763Y-52916290D01*
X124769133Y-52906048D01*
X124752616Y-52895198D01*
X124742082Y-52887027D01*
X124742081Y-52887026D01*
X124735816Y-52882167D01*
X124693714Y-52863948D01*
X124683054Y-52858726D01*
X124668087Y-52850498D01*
X124642853Y-52836625D01*
X124622258Y-52831337D01*
X124603569Y-52824938D01*
X124594779Y-52821134D01*
X124540208Y-52775723D01*
X124518850Y-52708015D01*
X124537488Y-52639509D01*
X124590205Y-52591954D01*
X124644825Y-52579500D01*
X127040616Y-52579500D01*
X127108737Y-52599502D01*
X127129711Y-52616405D01*
X128083595Y-53570289D01*
X128117621Y-53632601D01*
X128120500Y-53659384D01*
X128120500Y-57446080D01*
X128117951Y-57470028D01*
X128117872Y-57471693D01*
X128115680Y-57481876D01*
X128116904Y-57492217D01*
X128119627Y-57515223D01*
X128119977Y-57521154D01*
X128120072Y-57521146D01*
X128120500Y-57526324D01*
X128120500Y-57531524D01*
X128121354Y-57536653D01*
X128121354Y-57536656D01*
X128123669Y-57550565D01*
X128124506Y-57556443D01*
X128127995Y-57585918D01*
X128130530Y-57607341D01*
X128134493Y-57615593D01*
X128135996Y-57624626D01*
X128140943Y-57633795D01*
X128140944Y-57633797D01*
X128160334Y-57669732D01*
X128163031Y-57675025D01*
X128181785Y-57714082D01*
X128181788Y-57714086D01*
X128185219Y-57721232D01*
X128188814Y-57725508D01*
X128190737Y-57727431D01*
X128192509Y-57729363D01*
X128192552Y-57729442D01*
X128192429Y-57729555D01*
X128192903Y-57730092D01*
X128195990Y-57735814D01*
X128201252Y-57740678D01*
X128226517Y-57804995D01*
X128212629Y-57874620D01*
X128163304Y-57925683D01*
X128098089Y-57941060D01*
X128098089Y-57942000D01*
X128022115Y-57942000D01*
X128006876Y-57946475D01*
X128005671Y-57947865D01*
X128004000Y-57955548D01*
X128004000Y-60139884D01*
X128008475Y-60155123D01*
X128009865Y-60156328D01*
X128017548Y-60157999D01*
X128094669Y-60157999D01*
X128101490Y-60157629D01*
X128152352Y-60152105D01*
X128167604Y-60148479D01*
X128288054Y-60103324D01*
X128303649Y-60094786D01*
X128405724Y-60018285D01*
X128418281Y-60005728D01*
X128456348Y-59954935D01*
X128513208Y-59912420D01*
X128557175Y-59904500D01*
X129046000Y-59904499D01*
X129075066Y-59904499D01*
X129110818Y-59897388D01*
X129137126Y-59892156D01*
X129137128Y-59892155D01*
X129149301Y-59889734D01*
X129159621Y-59882839D01*
X129159622Y-59882838D01*
X129179998Y-59869223D01*
X129247751Y-59848008D01*
X129320002Y-59869223D01*
X129340379Y-59882839D01*
X129340382Y-59882840D01*
X129350699Y-59889734D01*
X129424933Y-59904500D01*
X129749947Y-59904500D01*
X130075066Y-59904499D01*
X130110818Y-59897388D01*
X130137126Y-59892156D01*
X130137128Y-59892155D01*
X130149301Y-59889734D01*
X130159621Y-59882839D01*
X130159622Y-59882838D01*
X130179998Y-59869223D01*
X130247751Y-59848008D01*
X130320002Y-59869223D01*
X130340379Y-59882839D01*
X130340382Y-59882840D01*
X130350699Y-59889734D01*
X130424933Y-59904500D01*
X130453990Y-59904500D01*
X130942825Y-59904499D01*
X131010945Y-59924501D01*
X131043650Y-59954934D01*
X131081715Y-60005724D01*
X131094276Y-60018285D01*
X131196351Y-60094786D01*
X131211946Y-60103324D01*
X131332394Y-60148478D01*
X131347649Y-60152105D01*
X131398514Y-60157631D01*
X131405328Y-60158000D01*
X131477885Y-60158000D01*
X131493124Y-60153525D01*
X131494329Y-60152135D01*
X131496000Y-60144452D01*
X131496000Y-57960116D01*
X131491525Y-57944877D01*
X131490135Y-57943672D01*
X131482452Y-57942001D01*
X131405331Y-57942001D01*
X131398510Y-57942371D01*
X131347648Y-57947895D01*
X131332397Y-57951521D01*
X131301635Y-57963053D01*
X131230828Y-57968236D01*
X131168459Y-57934315D01*
X131134329Y-57872060D01*
X131134276Y-57838832D01*
X131131637Y-57838707D01*
X131132128Y-57828306D01*
X131134320Y-57818124D01*
X131130373Y-57784777D01*
X131130023Y-57778846D01*
X131129928Y-57778854D01*
X131129500Y-57773676D01*
X131129500Y-57768476D01*
X131127622Y-57757194D01*
X131126331Y-57749435D01*
X131125494Y-57743557D01*
X131120694Y-57702999D01*
X131120694Y-57702998D01*
X131119470Y-57692659D01*
X131115507Y-57684407D01*
X131114004Y-57675374D01*
X131089665Y-57630266D01*
X131086969Y-57624975D01*
X131068215Y-57585918D01*
X131068212Y-57585914D01*
X131064781Y-57578768D01*
X131061186Y-57574492D01*
X131059263Y-57572569D01*
X131057491Y-57570637D01*
X131057448Y-57570558D01*
X131057572Y-57570445D01*
X131057096Y-57569905D01*
X131054010Y-57564186D01*
X131014413Y-57527583D01*
X131010848Y-57524154D01*
X130866405Y-57379711D01*
X130832379Y-57317399D01*
X130829500Y-57290616D01*
X130829500Y-53453920D01*
X130832049Y-53429973D01*
X130832128Y-53428307D01*
X130834320Y-53418124D01*
X130833096Y-53407782D01*
X130833096Y-53407779D01*
X130830374Y-53384787D01*
X130830023Y-53378846D01*
X130829928Y-53378854D01*
X130829500Y-53373674D01*
X130829500Y-53368476D01*
X130826329Y-53349424D01*
X130825492Y-53343547D01*
X130820693Y-53302997D01*
X130820692Y-53302995D01*
X130819469Y-53292659D01*
X130815508Y-53284410D01*
X130814004Y-53275374D01*
X130809056Y-53266203D01*
X130789652Y-53230240D01*
X130786957Y-53224951D01*
X130768212Y-53185915D01*
X130764780Y-53178768D01*
X130761186Y-53174492D01*
X130759246Y-53172552D01*
X130757493Y-53170641D01*
X130757444Y-53170551D01*
X130757567Y-53170439D01*
X130757095Y-53169904D01*
X130754010Y-53164186D01*
X130714413Y-53127583D01*
X130710848Y-53124154D01*
X128656478Y-51069784D01*
X128641336Y-51051036D01*
X128640221Y-51049811D01*
X128634571Y-51041060D01*
X128626393Y-51034613D01*
X128626391Y-51034611D01*
X128608200Y-51020271D01*
X128603759Y-51016325D01*
X128603697Y-51016398D01*
X128599733Y-51013039D01*
X128596056Y-51009362D01*
X128580308Y-50998108D01*
X128575638Y-50994602D01*
X128535353Y-50962844D01*
X128526719Y-50959812D01*
X128519266Y-50954486D01*
X128470150Y-50939797D01*
X128464508Y-50937964D01*
X128423633Y-50923610D01*
X128423632Y-50923610D01*
X128416149Y-50920982D01*
X128410584Y-50920500D01*
X128407876Y-50920500D01*
X128405242Y-50920386D01*
X128405144Y-50920357D01*
X128405151Y-50920193D01*
X128404447Y-50920149D01*
X128398222Y-50918287D01*
X128344365Y-50920403D01*
X128339418Y-50920500D01*
X122432176Y-50920500D01*
X122364055Y-50900498D01*
X122343081Y-50883595D01*
X121916405Y-50456919D01*
X121882379Y-50394607D01*
X121879500Y-50367824D01*
X121879500Y-47809384D01*
X121899502Y-47741263D01*
X121916405Y-47720289D01*
X122054159Y-47582535D01*
X122116471Y-47548509D01*
X122192991Y-47555862D01*
X122270499Y-47589162D01*
X122299601Y-47601665D01*
X122307228Y-47604942D01*
X122348386Y-47614255D01*
X122499579Y-47648467D01*
X122499584Y-47648468D01*
X122505216Y-47649742D01*
X122510987Y-47649969D01*
X122510989Y-47649969D01*
X122570756Y-47652317D01*
X122708053Y-47657712D01*
X122808499Y-47643148D01*
X122903231Y-47629413D01*
X122903236Y-47629412D01*
X122908945Y-47628584D01*
X122914409Y-47626729D01*
X122914414Y-47626728D01*
X123095693Y-47565192D01*
X123095698Y-47565190D01*
X123101165Y-47563334D01*
X123114508Y-47555862D01*
X123217625Y-47498113D01*
X123278276Y-47464147D01*
X123300501Y-47445663D01*
X123411908Y-47353006D01*
X123434345Y-47334345D01*
X123491467Y-47265664D01*
X123560453Y-47182718D01*
X123560455Y-47182715D01*
X123564147Y-47178276D01*
X123630155Y-47060411D01*
X123660510Y-47006208D01*
X123660511Y-47006206D01*
X123663334Y-47001165D01*
X123665720Y-46994135D01*
X123666170Y-46993496D01*
X123667541Y-46990416D01*
X123668146Y-46990685D01*
X123706553Y-46936059D01*
X123772305Y-46909278D01*
X123842098Y-46922295D01*
X123893773Y-46970980D01*
X123901777Y-46987229D01*
X123971770Y-47159603D01*
X123976413Y-47168794D01*
X124087694Y-47350388D01*
X124093777Y-47358699D01*
X124233213Y-47519667D01*
X124240580Y-47526883D01*
X124404434Y-47662916D01*
X124412881Y-47668831D01*
X124596756Y-47776279D01*
X124606042Y-47780729D01*
X124805001Y-47856703D01*
X124814899Y-47859579D01*
X124918250Y-47880606D01*
X124932299Y-47879410D01*
X124936000Y-47869065D01*
X124936000Y-46422000D01*
X124956002Y-46353879D01*
X125009658Y-46307386D01*
X125062000Y-46296000D01*
X125318000Y-46296000D01*
X125386121Y-46316002D01*
X125432614Y-46369658D01*
X125444000Y-46422000D01*
X125444000Y-47868517D01*
X125448064Y-47882359D01*
X125461478Y-47884393D01*
X125468184Y-47883534D01*
X125478262Y-47881392D01*
X125682255Y-47820191D01*
X125691842Y-47816433D01*
X125883095Y-47722739D01*
X125891945Y-47717464D01*
X126065328Y-47593792D01*
X126073200Y-47587139D01*
X126224052Y-47436812D01*
X126230730Y-47428965D01*
X126355003Y-47256020D01*
X126360313Y-47247183D01*
X126454670Y-47056267D01*
X126458469Y-47046672D01*
X126475066Y-46992047D01*
X126514007Y-46932683D01*
X126578862Y-46903796D01*
X126649038Y-46914558D01*
X126702256Y-46961551D01*
X126710048Y-46975922D01*
X126769377Y-47104616D01*
X126772710Y-47109332D01*
X126883194Y-47265664D01*
X126886533Y-47270389D01*
X127031938Y-47412035D01*
X127036742Y-47415245D01*
X127077288Y-47442337D01*
X127200720Y-47524812D01*
X127206023Y-47527090D01*
X127206026Y-47527092D01*
X127379635Y-47601680D01*
X127387228Y-47604942D01*
X127428386Y-47614255D01*
X127579579Y-47648467D01*
X127579584Y-47648468D01*
X127585216Y-47649742D01*
X127590987Y-47649969D01*
X127590989Y-47649969D01*
X127650756Y-47652317D01*
X127788053Y-47657712D01*
X127888499Y-47643148D01*
X127983231Y-47629413D01*
X127983236Y-47629412D01*
X127988945Y-47628584D01*
X127994412Y-47626728D01*
X128000031Y-47625379D01*
X128000494Y-47627309D01*
X128062541Y-47624723D01*
X128121204Y-47657898D01*
X128383595Y-47920289D01*
X128417621Y-47982601D01*
X128420500Y-48009384D01*
X128420500Y-49246080D01*
X128417951Y-49270028D01*
X128417872Y-49271693D01*
X128415680Y-49281876D01*
X128416904Y-49292217D01*
X128419627Y-49315223D01*
X128419977Y-49321154D01*
X128420072Y-49321146D01*
X128420500Y-49326324D01*
X128420500Y-49331524D01*
X128421354Y-49336653D01*
X128421354Y-49336656D01*
X128423669Y-49350565D01*
X128424506Y-49356443D01*
X128430530Y-49407341D01*
X128434493Y-49415593D01*
X128435996Y-49424626D01*
X128440943Y-49433795D01*
X128440944Y-49433797D01*
X128460334Y-49469732D01*
X128463031Y-49475025D01*
X128481785Y-49514082D01*
X128481788Y-49514086D01*
X128485219Y-49521232D01*
X128488814Y-49525508D01*
X128490737Y-49527431D01*
X128492509Y-49529363D01*
X128492552Y-49529442D01*
X128492428Y-49529555D01*
X128492904Y-49530095D01*
X128495990Y-49535814D01*
X128503635Y-49542881D01*
X128535586Y-49572416D01*
X128539152Y-49575846D01*
X129843522Y-50880216D01*
X129858664Y-50898964D01*
X129859779Y-50900189D01*
X129865429Y-50908940D01*
X129873607Y-50915387D01*
X129873609Y-50915389D01*
X129891800Y-50929729D01*
X129896244Y-50933678D01*
X129896306Y-50933604D01*
X129900263Y-50936957D01*
X129903944Y-50940638D01*
X129919654Y-50951865D01*
X129924380Y-50955413D01*
X129964647Y-50987156D01*
X129973284Y-50990189D01*
X129980734Y-50995513D01*
X129990710Y-50998497D01*
X129990711Y-50998497D01*
X130006046Y-51003083D01*
X130029849Y-51010202D01*
X130035486Y-51012034D01*
X130071344Y-51024626D01*
X130083851Y-51029018D01*
X130089416Y-51029500D01*
X130092124Y-51029500D01*
X130094758Y-51029614D01*
X130094856Y-51029643D01*
X130094849Y-51029807D01*
X130095553Y-51029851D01*
X130101778Y-51031713D01*
X130155635Y-51029597D01*
X130160582Y-51029500D01*
X131840615Y-51029500D01*
X131908736Y-51049502D01*
X131929711Y-51066405D01*
X132333596Y-51470291D01*
X132367621Y-51532603D01*
X132370500Y-51559386D01*
X132370500Y-57845785D01*
X132350498Y-57913906D01*
X132296842Y-57960399D01*
X132226568Y-57970503D01*
X132200270Y-57963767D01*
X132167606Y-57951522D01*
X132152351Y-57947895D01*
X132101486Y-57942369D01*
X132094672Y-57942000D01*
X132022115Y-57942000D01*
X132006876Y-57946475D01*
X132005671Y-57947865D01*
X132004000Y-57955548D01*
X132004000Y-60139884D01*
X132008475Y-60155123D01*
X132009865Y-60156328D01*
X132017548Y-60157999D01*
X132094669Y-60157999D01*
X132101490Y-60157629D01*
X132152352Y-60152105D01*
X132167604Y-60148479D01*
X132288054Y-60103324D01*
X132303649Y-60094786D01*
X132405724Y-60018285D01*
X132418281Y-60005728D01*
X132456348Y-59954935D01*
X132513208Y-59912420D01*
X132557175Y-59904500D01*
X133046000Y-59904499D01*
X133075066Y-59904499D01*
X133110818Y-59897388D01*
X133137126Y-59892156D01*
X133137128Y-59892155D01*
X133149301Y-59889734D01*
X133159621Y-59882839D01*
X133159622Y-59882838D01*
X133179998Y-59869223D01*
X133247751Y-59848008D01*
X133320002Y-59869223D01*
X133340379Y-59882839D01*
X133340382Y-59882840D01*
X133350699Y-59889734D01*
X133424933Y-59904500D01*
X133453990Y-59904500D01*
X133942825Y-59904499D01*
X134010945Y-59924501D01*
X134043650Y-59954934D01*
X134081715Y-60005724D01*
X134094276Y-60018285D01*
X134196351Y-60094786D01*
X134211946Y-60103324D01*
X134332394Y-60148478D01*
X134347649Y-60152105D01*
X134398514Y-60157631D01*
X134405328Y-60158000D01*
X134477885Y-60158000D01*
X134493124Y-60153525D01*
X134494329Y-60152135D01*
X134496000Y-60144452D01*
X134496000Y-57960116D01*
X134491525Y-57944877D01*
X134490135Y-57943672D01*
X134482452Y-57942001D01*
X134405331Y-57942001D01*
X134398510Y-57942371D01*
X134347648Y-57947895D01*
X134332394Y-57951522D01*
X134249729Y-57982511D01*
X134178922Y-57987694D01*
X134116553Y-57953773D01*
X134082424Y-57891518D01*
X134079500Y-57864529D01*
X134079500Y-51053920D01*
X134082049Y-51029972D01*
X134082128Y-51028307D01*
X134084320Y-51018124D01*
X134080373Y-50984777D01*
X134080023Y-50978846D01*
X134079928Y-50978854D01*
X134079500Y-50973676D01*
X134079500Y-50968476D01*
X134078646Y-50963344D01*
X134076331Y-50949435D01*
X134075494Y-50943557D01*
X134070694Y-50902999D01*
X134070694Y-50902998D01*
X134069470Y-50892659D01*
X134065507Y-50884407D01*
X134064004Y-50875374D01*
X134053809Y-50856478D01*
X134039666Y-50830268D01*
X134036969Y-50824975D01*
X134018215Y-50785918D01*
X134018212Y-50785914D01*
X134014781Y-50778768D01*
X134011186Y-50774492D01*
X134009263Y-50772569D01*
X134007491Y-50770637D01*
X134007448Y-50770558D01*
X134007572Y-50770445D01*
X134007096Y-50769905D01*
X134004010Y-50764186D01*
X133964413Y-50727583D01*
X133960848Y-50724154D01*
X133206478Y-49969784D01*
X133191336Y-49951036D01*
X133190221Y-49949811D01*
X133184571Y-49941060D01*
X133176393Y-49934613D01*
X133176391Y-49934611D01*
X133158200Y-49920271D01*
X133153759Y-49916325D01*
X133153697Y-49916398D01*
X133149733Y-49913039D01*
X133146056Y-49909362D01*
X133130308Y-49898108D01*
X133125638Y-49894602D01*
X133085353Y-49862844D01*
X133076719Y-49859812D01*
X133069266Y-49854486D01*
X133020150Y-49839797D01*
X133014508Y-49837964D01*
X132973633Y-49823610D01*
X132973632Y-49823610D01*
X132966149Y-49820982D01*
X132960584Y-49820500D01*
X132957876Y-49820500D01*
X132955242Y-49820386D01*
X132955144Y-49820357D01*
X132955151Y-49820193D01*
X132954447Y-49820149D01*
X132948222Y-49818287D01*
X132894365Y-49820403D01*
X132889418Y-49820500D01*
X130545780Y-49820500D01*
X130477659Y-49800498D01*
X130456685Y-49783595D01*
X129666405Y-48993315D01*
X129632379Y-48931003D01*
X129629500Y-48904220D01*
X129629500Y-47859384D01*
X129649502Y-47791263D01*
X129666405Y-47770289D01*
X129800988Y-47635706D01*
X129863300Y-47601680D01*
X129927063Y-47604871D01*
X129927228Y-47604942D01*
X129947619Y-47609556D01*
X130119579Y-47648467D01*
X130119584Y-47648468D01*
X130125216Y-47649742D01*
X130130987Y-47649969D01*
X130130989Y-47649969D01*
X130190756Y-47652317D01*
X130328053Y-47657712D01*
X130428499Y-47643148D01*
X130523231Y-47629413D01*
X130523236Y-47629412D01*
X130528945Y-47628584D01*
X130534409Y-47626729D01*
X130534414Y-47626728D01*
X130715693Y-47565192D01*
X130715698Y-47565190D01*
X130721165Y-47563334D01*
X130734508Y-47555862D01*
X130837625Y-47498113D01*
X130898276Y-47464147D01*
X130920501Y-47445663D01*
X131031908Y-47353006D01*
X131054345Y-47334345D01*
X131111467Y-47265664D01*
X131180453Y-47182718D01*
X131180455Y-47182715D01*
X131184147Y-47178276D01*
X131250155Y-47060411D01*
X131280510Y-47006208D01*
X131280511Y-47006206D01*
X131283334Y-47001165D01*
X131285720Y-46994135D01*
X131286170Y-46993496D01*
X131287541Y-46990416D01*
X131288146Y-46990685D01*
X131326553Y-46936059D01*
X131392305Y-46909278D01*
X131462098Y-46922295D01*
X131513773Y-46970980D01*
X131521777Y-46987229D01*
X131591770Y-47159603D01*
X131596413Y-47168794D01*
X131707694Y-47350388D01*
X131713777Y-47358699D01*
X131853213Y-47519667D01*
X131860580Y-47526883D01*
X132024434Y-47662916D01*
X132032881Y-47668831D01*
X132216756Y-47776279D01*
X132226042Y-47780729D01*
X132425001Y-47856703D01*
X132434899Y-47859579D01*
X132538250Y-47880606D01*
X132552299Y-47879410D01*
X132556000Y-47869065D01*
X132556000Y-46422000D01*
X132576002Y-46353879D01*
X132629658Y-46307386D01*
X132682000Y-46296000D01*
X132938000Y-46296000D01*
X133006121Y-46316002D01*
X133052614Y-46369658D01*
X133064000Y-46422000D01*
X133064000Y-47868517D01*
X133068064Y-47882359D01*
X133081478Y-47884393D01*
X133088184Y-47883534D01*
X133098262Y-47881392D01*
X133302255Y-47820191D01*
X133311842Y-47816433D01*
X133503095Y-47722739D01*
X133511945Y-47717464D01*
X133685328Y-47593792D01*
X133693200Y-47587139D01*
X133844052Y-47436812D01*
X133850730Y-47428965D01*
X133975003Y-47256020D01*
X133980313Y-47247183D01*
X134074670Y-47056267D01*
X134078469Y-47046672D01*
X134095066Y-46992047D01*
X134134007Y-46932683D01*
X134198862Y-46903796D01*
X134269038Y-46914558D01*
X134322256Y-46961551D01*
X134330048Y-46975922D01*
X134389377Y-47104616D01*
X134392710Y-47109332D01*
X134503194Y-47265664D01*
X134506533Y-47270389D01*
X134651938Y-47412035D01*
X134656742Y-47415245D01*
X134697288Y-47442337D01*
X134820720Y-47524812D01*
X134826023Y-47527090D01*
X134826028Y-47527093D01*
X134858187Y-47540909D01*
X134892992Y-47555862D01*
X134894237Y-47556397D01*
X134948930Y-47601665D01*
X134970500Y-47672165D01*
X134970500Y-56046080D01*
X134967951Y-56070028D01*
X134967872Y-56071693D01*
X134965680Y-56081876D01*
X134966904Y-56092217D01*
X134969627Y-56115223D01*
X134969977Y-56121154D01*
X134970072Y-56121146D01*
X134970500Y-56126324D01*
X134970500Y-56131524D01*
X134971354Y-56136653D01*
X134971354Y-56136656D01*
X134973669Y-56150565D01*
X134974506Y-56156443D01*
X134977815Y-56184398D01*
X134980530Y-56207341D01*
X134984493Y-56215593D01*
X134985996Y-56224626D01*
X134990943Y-56233795D01*
X134990944Y-56233797D01*
X135010334Y-56269732D01*
X135013031Y-56275025D01*
X135031785Y-56314082D01*
X135031788Y-56314086D01*
X135035219Y-56321232D01*
X135038814Y-56325508D01*
X135040737Y-56327431D01*
X135042509Y-56329363D01*
X135042552Y-56329442D01*
X135042428Y-56329555D01*
X135042904Y-56330095D01*
X135045990Y-56335814D01*
X135053635Y-56342881D01*
X135085586Y-56372416D01*
X135089152Y-56375846D01*
X135333595Y-56620289D01*
X135367621Y-56682601D01*
X135370500Y-56709384D01*
X135370500Y-57845785D01*
X135350498Y-57913906D01*
X135296842Y-57960399D01*
X135226568Y-57970503D01*
X135200270Y-57963767D01*
X135167606Y-57951522D01*
X135152351Y-57947895D01*
X135101486Y-57942369D01*
X135094672Y-57942000D01*
X135022115Y-57942000D01*
X135006876Y-57946475D01*
X135005671Y-57947865D01*
X135004000Y-57955548D01*
X135004000Y-60139884D01*
X135008475Y-60155123D01*
X135009865Y-60156328D01*
X135017548Y-60157999D01*
X135094669Y-60157999D01*
X135101490Y-60157629D01*
X135152352Y-60152105D01*
X135167604Y-60148479D01*
X135288054Y-60103324D01*
X135303649Y-60094786D01*
X135405724Y-60018285D01*
X135418281Y-60005728D01*
X135456348Y-59954935D01*
X135513208Y-59912420D01*
X135557175Y-59904500D01*
X136046000Y-59904499D01*
X136075066Y-59904499D01*
X136110818Y-59897388D01*
X136137126Y-59892156D01*
X136137128Y-59892155D01*
X136149301Y-59889734D01*
X136159621Y-59882839D01*
X136159622Y-59882838D01*
X136179998Y-59869223D01*
X136247751Y-59848008D01*
X136320002Y-59869223D01*
X136340379Y-59882839D01*
X136340382Y-59882840D01*
X136350699Y-59889734D01*
X136424933Y-59904500D01*
X136749947Y-59904500D01*
X137075066Y-59904499D01*
X137110818Y-59897388D01*
X137137126Y-59892156D01*
X137137128Y-59892155D01*
X137149301Y-59889734D01*
X137159621Y-59882839D01*
X137159622Y-59882838D01*
X137179998Y-59869223D01*
X137247751Y-59848008D01*
X137320002Y-59869223D01*
X137340379Y-59882839D01*
X137340382Y-59882840D01*
X137350699Y-59889734D01*
X137424933Y-59904500D01*
X137749947Y-59904500D01*
X138075066Y-59904499D01*
X138110818Y-59897388D01*
X138137126Y-59892156D01*
X138137128Y-59892155D01*
X138149301Y-59889734D01*
X138159621Y-59882839D01*
X138159622Y-59882838D01*
X138179998Y-59869223D01*
X138247751Y-59848008D01*
X138320002Y-59869223D01*
X138340379Y-59882839D01*
X138340382Y-59882840D01*
X138350699Y-59889734D01*
X138424933Y-59904500D01*
X138453990Y-59904500D01*
X138942825Y-59904499D01*
X139010945Y-59924501D01*
X139043650Y-59954934D01*
X139081715Y-60005724D01*
X139094276Y-60018285D01*
X139196351Y-60094786D01*
X139211946Y-60103324D01*
X139332394Y-60148478D01*
X139347649Y-60152105D01*
X139398514Y-60157631D01*
X139405328Y-60158000D01*
X139477885Y-60158000D01*
X139493124Y-60153525D01*
X139494329Y-60152135D01*
X139496000Y-60144452D01*
X139496000Y-57960116D01*
X139491525Y-57944877D01*
X139490135Y-57943672D01*
X139482452Y-57942001D01*
X139405331Y-57942001D01*
X139398510Y-57942371D01*
X139347648Y-57947895D01*
X139332396Y-57951521D01*
X139299730Y-57963767D01*
X139228922Y-57968950D01*
X139166553Y-57935029D01*
X139132424Y-57872774D01*
X139129500Y-57845785D01*
X139129500Y-57653920D01*
X139132049Y-57629972D01*
X139132128Y-57628307D01*
X139134320Y-57618124D01*
X139130373Y-57584777D01*
X139130023Y-57578846D01*
X139129928Y-57578854D01*
X139129500Y-57573676D01*
X139129500Y-57568476D01*
X139128163Y-57560445D01*
X139126331Y-57549435D01*
X139125494Y-57543557D01*
X139120694Y-57502999D01*
X139120694Y-57502998D01*
X139119470Y-57492659D01*
X139115507Y-57484407D01*
X139114004Y-57475374D01*
X139089665Y-57430266D01*
X139086969Y-57424975D01*
X139068215Y-57385918D01*
X139068212Y-57385914D01*
X139064781Y-57378768D01*
X139061186Y-57374492D01*
X139059263Y-57372569D01*
X139057491Y-57370637D01*
X139057448Y-57370558D01*
X139057572Y-57370445D01*
X139057096Y-57369905D01*
X139054010Y-57364186D01*
X139014413Y-57327583D01*
X139010848Y-57324154D01*
X138866405Y-57179711D01*
X138832379Y-57117399D01*
X138829500Y-57090616D01*
X138829500Y-52159384D01*
X138849502Y-52091263D01*
X138866405Y-52070289D01*
X139570289Y-51366405D01*
X139632601Y-51332379D01*
X139659384Y-51329500D01*
X140646080Y-51329500D01*
X140670028Y-51332049D01*
X140671693Y-51332128D01*
X140681876Y-51334320D01*
X140692217Y-51333096D01*
X140715223Y-51330373D01*
X140721154Y-51330023D01*
X140721146Y-51329928D01*
X140726324Y-51329500D01*
X140731524Y-51329500D01*
X140736653Y-51328646D01*
X140736656Y-51328646D01*
X140750565Y-51326331D01*
X140756443Y-51325494D01*
X140797001Y-51320694D01*
X140797002Y-51320694D01*
X140807341Y-51319470D01*
X140815593Y-51315507D01*
X140824626Y-51314004D01*
X140833795Y-51309057D01*
X140833797Y-51309056D01*
X140869732Y-51289666D01*
X140875025Y-51286969D01*
X140914082Y-51268215D01*
X140914086Y-51268212D01*
X140921232Y-51264781D01*
X140925508Y-51261186D01*
X140927431Y-51259263D01*
X140929363Y-51257491D01*
X140929442Y-51257448D01*
X140929555Y-51257572D01*
X140930095Y-51257096D01*
X140935814Y-51254010D01*
X140972417Y-51214413D01*
X140975846Y-51210848D01*
X142080216Y-50106478D01*
X142098964Y-50091336D01*
X142100189Y-50090221D01*
X142108940Y-50084571D01*
X142115387Y-50076393D01*
X142115389Y-50076391D01*
X142129729Y-50058200D01*
X142133675Y-50053759D01*
X142133602Y-50053697D01*
X142136961Y-50049733D01*
X142140638Y-50046056D01*
X142151892Y-50030308D01*
X142155398Y-50025638D01*
X142187156Y-49985353D01*
X142190188Y-49976719D01*
X142195514Y-49969266D01*
X142210203Y-49920150D01*
X142212036Y-49914508D01*
X142226390Y-49873633D01*
X142226390Y-49873632D01*
X142229018Y-49866149D01*
X142229500Y-49860584D01*
X142229500Y-49857876D01*
X142229614Y-49855242D01*
X142229643Y-49855144D01*
X142229807Y-49855151D01*
X142229851Y-49854447D01*
X142231713Y-49848222D01*
X142229597Y-49794365D01*
X142229500Y-49789418D01*
X142229500Y-47619409D01*
X142249502Y-47551288D01*
X142303158Y-47504795D01*
X142373432Y-47494691D01*
X142425500Y-47514643D01*
X142433020Y-47519667D01*
X142440720Y-47524812D01*
X142446023Y-47527090D01*
X142446026Y-47527092D01*
X142619635Y-47601680D01*
X142627228Y-47604942D01*
X142668386Y-47614255D01*
X142819579Y-47648467D01*
X142819584Y-47648468D01*
X142825216Y-47649742D01*
X142830987Y-47649969D01*
X142830989Y-47649969D01*
X142890756Y-47652317D01*
X143028053Y-47657712D01*
X143128499Y-47643148D01*
X143223231Y-47629413D01*
X143223236Y-47629412D01*
X143228945Y-47628584D01*
X143234409Y-47626729D01*
X143234414Y-47626728D01*
X143415693Y-47565192D01*
X143415698Y-47565190D01*
X143421165Y-47563334D01*
X143434508Y-47555862D01*
X143537625Y-47498113D01*
X143598276Y-47464147D01*
X143620501Y-47445663D01*
X143731908Y-47353006D01*
X143754345Y-47334345D01*
X143811467Y-47265664D01*
X143880453Y-47182718D01*
X143880455Y-47182715D01*
X143884147Y-47178276D01*
X143950155Y-47060411D01*
X143980510Y-47006208D01*
X143980511Y-47006206D01*
X143983334Y-47001165D01*
X143985720Y-46994135D01*
X143986170Y-46993496D01*
X143987541Y-46990416D01*
X143988146Y-46990685D01*
X144026553Y-46936059D01*
X144092305Y-46909278D01*
X144162098Y-46922295D01*
X144213773Y-46970980D01*
X144221777Y-46987229D01*
X144291770Y-47159603D01*
X144296413Y-47168794D01*
X144407694Y-47350388D01*
X144413777Y-47358699D01*
X144553213Y-47519667D01*
X144560580Y-47526883D01*
X144724434Y-47662916D01*
X144732881Y-47668831D01*
X144916756Y-47776279D01*
X144926042Y-47780729D01*
X145125001Y-47856703D01*
X145134899Y-47859579D01*
X145238250Y-47880606D01*
X145252299Y-47879410D01*
X145256000Y-47869065D01*
X145256000Y-46422000D01*
X145276002Y-46353879D01*
X145329658Y-46307386D01*
X145382000Y-46296000D01*
X145638000Y-46296000D01*
X145706121Y-46316002D01*
X145752614Y-46369658D01*
X145764000Y-46422000D01*
X145764000Y-47868517D01*
X145768064Y-47882359D01*
X145781478Y-47884393D01*
X145788184Y-47883534D01*
X145798262Y-47881392D01*
X146002255Y-47820191D01*
X146011842Y-47816433D01*
X146203095Y-47722739D01*
X146211945Y-47717464D01*
X146385328Y-47593792D01*
X146393200Y-47587139D01*
X146544052Y-47436812D01*
X146550730Y-47428965D01*
X146675003Y-47256020D01*
X146680313Y-47247183D01*
X146774670Y-47056267D01*
X146778469Y-47046672D01*
X146795066Y-46992047D01*
X146834007Y-46932683D01*
X146898862Y-46903796D01*
X146969038Y-46914558D01*
X147022256Y-46961551D01*
X147030048Y-46975922D01*
X147089377Y-47104616D01*
X147092710Y-47109332D01*
X147203194Y-47265664D01*
X147206533Y-47270389D01*
X147351938Y-47412035D01*
X147356742Y-47415245D01*
X147464502Y-47487248D01*
X147510030Y-47541725D01*
X147520500Y-47592013D01*
X147520500Y-50340616D01*
X147500498Y-50408737D01*
X147483595Y-50429711D01*
X146429711Y-51483595D01*
X146367399Y-51517621D01*
X146340616Y-51520500D01*
X141790321Y-51520500D01*
X141766363Y-51517950D01*
X141764704Y-51517872D01*
X141754520Y-51515679D01*
X141744178Y-51516903D01*
X141744175Y-51516903D01*
X141721175Y-51519626D01*
X141715244Y-51519976D01*
X141715252Y-51520072D01*
X141710076Y-51520500D01*
X141704872Y-51520500D01*
X141685808Y-51523673D01*
X141679962Y-51524504D01*
X141668513Y-51525859D01*
X141629055Y-51530530D01*
X141620803Y-51534493D01*
X141611770Y-51535996D01*
X141602601Y-51540943D01*
X141602599Y-51540944D01*
X141566664Y-51560334D01*
X141561371Y-51563031D01*
X141525298Y-51580353D01*
X141515164Y-51585219D01*
X141510889Y-51588813D01*
X141508964Y-51590738D01*
X141507034Y-51592509D01*
X141506949Y-51592555D01*
X141506837Y-51592432D01*
X141506302Y-51592904D01*
X141500582Y-51595990D01*
X141493515Y-51603635D01*
X141463980Y-51635586D01*
X141460550Y-51639152D01*
X140519784Y-52579918D01*
X140501036Y-52595060D01*
X140499811Y-52596175D01*
X140491060Y-52601825D01*
X140484613Y-52610003D01*
X140484611Y-52610005D01*
X140470271Y-52628196D01*
X140466325Y-52632637D01*
X140466398Y-52632699D01*
X140463039Y-52636663D01*
X140459362Y-52640340D01*
X140448108Y-52656088D01*
X140444602Y-52660758D01*
X140412844Y-52701043D01*
X140409812Y-52709677D01*
X140404486Y-52717130D01*
X140401501Y-52727111D01*
X140389799Y-52766240D01*
X140387964Y-52771888D01*
X140381385Y-52790624D01*
X140370982Y-52820247D01*
X140370500Y-52825812D01*
X140370500Y-52828520D01*
X140370386Y-52831154D01*
X140370357Y-52831252D01*
X140370193Y-52831245D01*
X140370149Y-52831949D01*
X140368287Y-52838174D01*
X140369207Y-52861587D01*
X140370403Y-52892031D01*
X140370500Y-52896978D01*
X140370500Y-57845785D01*
X140350498Y-57913906D01*
X140296842Y-57960399D01*
X140226568Y-57970503D01*
X140200270Y-57963767D01*
X140167606Y-57951522D01*
X140152351Y-57947895D01*
X140101486Y-57942369D01*
X140094672Y-57942000D01*
X140022115Y-57942000D01*
X140006876Y-57946475D01*
X140005671Y-57947865D01*
X140004000Y-57955548D01*
X140004000Y-60139884D01*
X140008475Y-60155123D01*
X140009865Y-60156328D01*
X140017548Y-60157999D01*
X140094669Y-60157999D01*
X140101490Y-60157629D01*
X140152352Y-60152105D01*
X140167604Y-60148479D01*
X140288054Y-60103324D01*
X140303649Y-60094786D01*
X140405724Y-60018285D01*
X140418281Y-60005728D01*
X140456348Y-59954935D01*
X140513208Y-59912420D01*
X140557175Y-59904500D01*
X140750000Y-59904500D01*
X140942825Y-59904499D01*
X141010944Y-59924501D01*
X141043650Y-59954934D01*
X141081715Y-60005724D01*
X141094276Y-60018285D01*
X141196351Y-60094786D01*
X141211946Y-60103324D01*
X141332394Y-60148478D01*
X141347649Y-60152105D01*
X141398514Y-60157631D01*
X141405328Y-60158000D01*
X141477885Y-60158000D01*
X141493124Y-60153525D01*
X141494329Y-60152135D01*
X141496000Y-60144452D01*
X141496000Y-57960116D01*
X141491525Y-57944877D01*
X141490135Y-57943672D01*
X141482452Y-57942001D01*
X141405331Y-57942001D01*
X141398510Y-57942371D01*
X141347648Y-57947895D01*
X141332396Y-57951521D01*
X141299730Y-57963767D01*
X141228922Y-57968950D01*
X141166553Y-57935029D01*
X141132424Y-57872774D01*
X141129500Y-57845785D01*
X141129500Y-53095780D01*
X141149502Y-53027659D01*
X141166405Y-53006685D01*
X141856685Y-52316405D01*
X141918997Y-52282379D01*
X141945780Y-52279500D01*
X143364453Y-52279500D01*
X143432574Y-52299502D01*
X143479067Y-52353158D01*
X143489171Y-52423432D01*
X143459677Y-52488012D01*
X143452143Y-52495148D01*
X143450582Y-52495990D01*
X143445860Y-52501099D01*
X143445854Y-52501104D01*
X143413980Y-52535586D01*
X143410550Y-52539152D01*
X142519784Y-53429918D01*
X142501036Y-53445060D01*
X142499811Y-53446175D01*
X142491060Y-53451825D01*
X142484613Y-53460003D01*
X142484611Y-53460005D01*
X142470271Y-53478196D01*
X142466325Y-53482637D01*
X142466398Y-53482699D01*
X142463039Y-53486663D01*
X142459362Y-53490340D01*
X142448108Y-53506088D01*
X142444602Y-53510758D01*
X142412844Y-53551043D01*
X142409812Y-53559677D01*
X142404486Y-53567130D01*
X142401501Y-53577111D01*
X142389799Y-53616240D01*
X142387964Y-53621888D01*
X142370982Y-53670247D01*
X142370500Y-53675812D01*
X142370500Y-53678520D01*
X142370386Y-53681154D01*
X142370357Y-53681252D01*
X142370193Y-53681245D01*
X142370149Y-53681949D01*
X142368287Y-53688174D01*
X142368696Y-53698579D01*
X142370403Y-53742031D01*
X142370500Y-53746978D01*
X142370500Y-57845785D01*
X142350498Y-57913906D01*
X142296842Y-57960399D01*
X142226568Y-57970503D01*
X142200270Y-57963767D01*
X142167606Y-57951522D01*
X142152351Y-57947895D01*
X142101486Y-57942369D01*
X142094672Y-57942000D01*
X142022115Y-57942000D01*
X142006876Y-57946475D01*
X142005671Y-57947865D01*
X142004000Y-57955548D01*
X142004000Y-60139884D01*
X142008475Y-60155123D01*
X142009865Y-60156328D01*
X142017548Y-60157999D01*
X142094669Y-60157999D01*
X142101490Y-60157629D01*
X142152352Y-60152105D01*
X142167604Y-60148479D01*
X142288054Y-60103324D01*
X142303649Y-60094786D01*
X142405724Y-60018285D01*
X142418281Y-60005728D01*
X142456348Y-59954935D01*
X142513208Y-59912420D01*
X142557175Y-59904500D01*
X143046000Y-59904499D01*
X143075066Y-59904499D01*
X143110818Y-59897388D01*
X143137126Y-59892156D01*
X143137128Y-59892155D01*
X143149301Y-59889734D01*
X143159621Y-59882839D01*
X143159622Y-59882838D01*
X143179998Y-59869223D01*
X143247751Y-59848008D01*
X143320002Y-59869223D01*
X143340379Y-59882839D01*
X143340382Y-59882840D01*
X143350699Y-59889734D01*
X143424933Y-59904500D01*
X143749947Y-59904500D01*
X144075066Y-59904499D01*
X144110818Y-59897388D01*
X144137126Y-59892156D01*
X144137128Y-59892155D01*
X144149301Y-59889734D01*
X144159621Y-59882839D01*
X144159622Y-59882838D01*
X144179998Y-59869223D01*
X144247751Y-59848008D01*
X144320002Y-59869223D01*
X144340379Y-59882839D01*
X144340382Y-59882840D01*
X144350699Y-59889734D01*
X144424933Y-59904500D01*
X144483851Y-59904500D01*
X145012982Y-59904499D01*
X145081103Y-59924501D01*
X145117747Y-59960497D01*
X145166516Y-60033484D01*
X145250699Y-60089734D01*
X145324933Y-60104500D01*
X145749931Y-60104500D01*
X146175066Y-60104499D01*
X146210818Y-60097388D01*
X146237126Y-60092156D01*
X146237128Y-60092155D01*
X146249301Y-60089734D01*
X146259621Y-60082839D01*
X146259622Y-60082838D01*
X146323168Y-60040377D01*
X146333484Y-60033484D01*
X146389734Y-59949301D01*
X146404500Y-59875067D01*
X146404499Y-58424934D01*
X146389734Y-58350699D01*
X146333484Y-58266516D01*
X146249301Y-58210266D01*
X146175067Y-58195500D01*
X145750069Y-58195500D01*
X145324934Y-58195501D01*
X145280077Y-58204423D01*
X145209364Y-58198093D01*
X145153298Y-58154537D01*
X145129500Y-58080843D01*
X145129500Y-58003920D01*
X145132049Y-57979972D01*
X145132128Y-57978307D01*
X145134320Y-57968124D01*
X145130373Y-57934777D01*
X145130023Y-57928846D01*
X145129928Y-57928854D01*
X145129500Y-57923676D01*
X145129500Y-57918476D01*
X145127622Y-57907194D01*
X145126331Y-57899435D01*
X145125494Y-57893557D01*
X145120694Y-57852999D01*
X145120694Y-57852998D01*
X145119470Y-57842659D01*
X145115507Y-57834407D01*
X145114004Y-57825374D01*
X145104513Y-57807783D01*
X145090388Y-57781606D01*
X145089665Y-57780266D01*
X145086969Y-57774975D01*
X145068215Y-57735919D01*
X145068214Y-57735918D01*
X145064781Y-57728768D01*
X145061187Y-57724493D01*
X145059262Y-57722568D01*
X145057491Y-57720638D01*
X145057445Y-57720553D01*
X145057568Y-57720441D01*
X145057096Y-57719906D01*
X145054010Y-57714186D01*
X145014413Y-57677583D01*
X145010848Y-57674154D01*
X144816405Y-57479711D01*
X144782379Y-57417399D01*
X144779500Y-57390616D01*
X144779500Y-54609385D01*
X144799231Y-54542186D01*
X155641018Y-54542186D01*
X155666579Y-54810100D01*
X155730547Y-55071518D01*
X155831583Y-55320963D01*
X155967569Y-55553210D01*
X156135658Y-55763395D01*
X156332327Y-55947113D01*
X156553457Y-56100516D01*
X156794416Y-56220391D01*
X156798750Y-56221812D01*
X156798753Y-56221813D01*
X157045823Y-56302807D01*
X157045829Y-56302808D01*
X157050156Y-56304227D01*
X157054647Y-56305007D01*
X157054648Y-56305007D01*
X157311538Y-56349611D01*
X157311546Y-56349612D01*
X157315319Y-56350267D01*
X157319156Y-56350458D01*
X157398777Y-56354422D01*
X157398785Y-56354422D01*
X157400348Y-56354500D01*
X157568374Y-56354500D01*
X157570642Y-56354335D01*
X157570654Y-56354335D01*
X157701457Y-56344844D01*
X157768425Y-56339985D01*
X157772880Y-56339001D01*
X157772883Y-56339001D01*
X158026770Y-56282947D01*
X158026772Y-56282946D01*
X158031226Y-56281963D01*
X158282900Y-56186613D01*
X158361768Y-56142806D01*
X158514179Y-56058149D01*
X158514180Y-56058148D01*
X158518172Y-56055931D01*
X158664842Y-55943996D01*
X158728491Y-55895421D01*
X158728495Y-55895417D01*
X158732116Y-55892654D01*
X158920249Y-55700203D01*
X159027242Y-55553210D01*
X159075942Y-55486304D01*
X159075947Y-55486297D01*
X159078630Y-55482610D01*
X159203941Y-55244433D01*
X159293557Y-54990662D01*
X159320462Y-54854156D01*
X159344720Y-54731083D01*
X159344721Y-54731077D01*
X159345601Y-54726611D01*
X159345828Y-54722055D01*
X159358755Y-54462383D01*
X159358755Y-54462377D01*
X159358982Y-54457814D01*
X159333421Y-54189900D01*
X159322400Y-54144857D01*
X159270539Y-53932920D01*
X159269453Y-53928482D01*
X159168417Y-53679037D01*
X159032431Y-53446790D01*
X158909671Y-53293286D01*
X158867194Y-53240171D01*
X158867193Y-53240169D01*
X158864342Y-53236605D01*
X158667673Y-53052887D01*
X158446543Y-52899484D01*
X158205584Y-52779609D01*
X158201250Y-52778188D01*
X158201247Y-52778187D01*
X157954177Y-52697193D01*
X157954171Y-52697192D01*
X157949844Y-52695773D01*
X157933090Y-52692864D01*
X157688462Y-52650389D01*
X157688454Y-52650388D01*
X157684681Y-52649733D01*
X157674718Y-52649237D01*
X157601223Y-52645578D01*
X157601215Y-52645578D01*
X157599652Y-52645500D01*
X157431626Y-52645500D01*
X157429358Y-52645665D01*
X157429346Y-52645665D01*
X157298543Y-52655156D01*
X157231575Y-52660015D01*
X157227120Y-52660999D01*
X157227117Y-52660999D01*
X156973230Y-52717053D01*
X156973228Y-52717054D01*
X156968774Y-52718037D01*
X156717100Y-52813387D01*
X156713114Y-52815601D01*
X156713112Y-52815602D01*
X156522071Y-52921716D01*
X156481828Y-52944069D01*
X156471752Y-52951759D01*
X156271509Y-53104579D01*
X156271505Y-53104583D01*
X156267884Y-53107346D01*
X156264699Y-53110604D01*
X156264698Y-53110605D01*
X156191409Y-53185576D01*
X156079751Y-53299797D01*
X156077066Y-53303486D01*
X155924058Y-53513696D01*
X155924053Y-53513703D01*
X155921370Y-53517390D01*
X155796059Y-53755567D01*
X155757794Y-53863925D01*
X155708325Y-54004010D01*
X155706443Y-54009338D01*
X155683744Y-54124502D01*
X155667267Y-54208104D01*
X155654399Y-54273389D01*
X155654172Y-54277942D01*
X155654172Y-54277945D01*
X155643021Y-54501953D01*
X155641018Y-54542186D01*
X144799231Y-54542186D01*
X144799502Y-54541264D01*
X144816405Y-54520289D01*
X145220291Y-54116404D01*
X145282603Y-54082379D01*
X145309386Y-54079500D01*
X153296080Y-54079500D01*
X153320028Y-54082049D01*
X153321693Y-54082128D01*
X153331876Y-54084320D01*
X153342217Y-54083096D01*
X153365223Y-54080373D01*
X153371154Y-54080023D01*
X153371146Y-54079928D01*
X153376324Y-54079500D01*
X153381524Y-54079500D01*
X153386653Y-54078646D01*
X153386656Y-54078646D01*
X153400565Y-54076331D01*
X153406443Y-54075494D01*
X153447001Y-54070694D01*
X153447002Y-54070694D01*
X153457341Y-54069470D01*
X153465593Y-54065507D01*
X153474626Y-54064004D01*
X153483795Y-54059057D01*
X153483797Y-54059056D01*
X153519732Y-54039666D01*
X153525025Y-54036969D01*
X153564082Y-54018215D01*
X153564086Y-54018212D01*
X153571232Y-54014781D01*
X153575508Y-54011186D01*
X153577431Y-54009263D01*
X153579363Y-54007491D01*
X153579442Y-54007448D01*
X153579555Y-54007572D01*
X153580095Y-54007096D01*
X153585814Y-54004010D01*
X153595112Y-53993952D01*
X153622416Y-53964414D01*
X153625846Y-53960848D01*
X157380216Y-50206478D01*
X157398964Y-50191336D01*
X157400189Y-50190221D01*
X157408940Y-50184571D01*
X157415387Y-50176393D01*
X157415389Y-50176391D01*
X157429729Y-50158200D01*
X157433676Y-50153758D01*
X157433603Y-50153696D01*
X157436961Y-50149733D01*
X157440638Y-50146056D01*
X157446635Y-50137664D01*
X157451859Y-50130354D01*
X157455422Y-50125608D01*
X157480707Y-50093533D01*
X157487156Y-50085353D01*
X157490189Y-50076717D01*
X157495514Y-50069265D01*
X157510204Y-50020145D01*
X157512039Y-50014498D01*
X157526391Y-49973630D01*
X157526391Y-49973628D01*
X157529018Y-49966149D01*
X157529500Y-49960584D01*
X157529500Y-49957877D01*
X157529614Y-49955245D01*
X157529644Y-49955144D01*
X157529807Y-49955151D01*
X157529851Y-49954451D01*
X157531714Y-49948222D01*
X157529597Y-49894350D01*
X157529500Y-49889402D01*
X157529500Y-47651114D01*
X157549502Y-47582993D01*
X157603158Y-47536500D01*
X157673432Y-47526396D01*
X157705237Y-47535346D01*
X157861917Y-47602661D01*
X157861924Y-47602663D01*
X157867228Y-47604942D01*
X157908386Y-47614255D01*
X158059579Y-47648467D01*
X158059584Y-47648468D01*
X158065216Y-47649742D01*
X158070987Y-47649969D01*
X158070989Y-47649969D01*
X158130756Y-47652317D01*
X158268053Y-47657712D01*
X158368499Y-47643148D01*
X158463231Y-47629413D01*
X158463236Y-47629412D01*
X158468945Y-47628584D01*
X158474409Y-47626729D01*
X158474414Y-47626728D01*
X158655693Y-47565192D01*
X158655698Y-47565190D01*
X158661165Y-47563334D01*
X158674508Y-47555862D01*
X158777625Y-47498113D01*
X158838276Y-47464147D01*
X158860501Y-47445663D01*
X158971908Y-47353006D01*
X158994345Y-47334345D01*
X159051467Y-47265664D01*
X159120453Y-47182718D01*
X159120455Y-47182715D01*
X159124147Y-47178276D01*
X159190155Y-47060411D01*
X159220510Y-47006208D01*
X159220511Y-47006206D01*
X159223334Y-47001165D01*
X159225190Y-46995698D01*
X159225192Y-46995693D01*
X159286728Y-46814414D01*
X159286729Y-46814409D01*
X159288584Y-46808945D01*
X159289412Y-46803236D01*
X159289413Y-46803231D01*
X159317179Y-46611727D01*
X159317712Y-46608053D01*
X159319232Y-46550000D01*
X159300658Y-46347859D01*
X159299090Y-46342299D01*
X159247125Y-46158046D01*
X159247124Y-46158044D01*
X159245557Y-46152487D01*
X159234978Y-46131033D01*
X159158331Y-45975609D01*
X159155776Y-45970428D01*
X159034320Y-45807779D01*
X158885258Y-45669987D01*
X158880375Y-45666906D01*
X158880371Y-45666903D01*
X158718464Y-45564748D01*
X158713581Y-45561667D01*
X158641614Y-45532955D01*
X158585755Y-45489134D01*
X158562455Y-45422069D01*
X158579111Y-45353054D01*
X158630436Y-45304000D01*
X158652098Y-45295239D01*
X158702252Y-45280192D01*
X158711842Y-45276433D01*
X158903095Y-45182739D01*
X158911945Y-45177464D01*
X159085328Y-45053792D01*
X159093200Y-45047139D01*
X159244052Y-44896812D01*
X159250730Y-44888965D01*
X159375003Y-44716020D01*
X159380313Y-44707183D01*
X159474670Y-44516267D01*
X159478469Y-44506672D01*
X159540377Y-44302910D01*
X159542555Y-44292837D01*
X159543986Y-44281962D01*
X159541775Y-44267778D01*
X159528617Y-44264000D01*
X158082000Y-44264000D01*
X158013879Y-44243998D01*
X157967386Y-44190342D01*
X157956000Y-44138000D01*
X157956000Y-43737885D01*
X158464000Y-43737885D01*
X158468475Y-43753124D01*
X158469865Y-43754329D01*
X158477548Y-43756000D01*
X159528344Y-43756000D01*
X159541875Y-43752027D01*
X159543180Y-43742947D01*
X159501214Y-43575875D01*
X159497894Y-43566124D01*
X159412972Y-43370814D01*
X159408105Y-43361739D01*
X159292426Y-43182926D01*
X159286136Y-43174757D01*
X159142806Y-43017240D01*
X159135273Y-43010215D01*
X158968139Y-42878222D01*
X158959552Y-42872517D01*
X158773117Y-42769599D01*
X158763705Y-42765369D01*
X158562959Y-42694280D01*
X158552988Y-42691646D01*
X158481837Y-42678972D01*
X158468540Y-42680432D01*
X158464000Y-42694989D01*
X158464000Y-43737885D01*
X157956000Y-43737885D01*
X157956000Y-42693102D01*
X157952082Y-42679758D01*
X157937806Y-42677771D01*
X157899324Y-42683660D01*
X157889288Y-42686051D01*
X157686868Y-42752212D01*
X157677359Y-42756209D01*
X157488463Y-42854542D01*
X157479738Y-42860036D01*
X157309433Y-42987905D01*
X157301726Y-42994748D01*
X157154590Y-43148717D01*
X157148104Y-43156727D01*
X157028098Y-43332649D01*
X157023000Y-43341623D01*
X156933338Y-43534783D01*
X156929777Y-43544464D01*
X156925291Y-43560640D01*
X156887813Y-43620939D01*
X156823684Y-43651403D01*
X156753266Y-43642360D01*
X156698915Y-43596682D01*
X156690867Y-43582698D01*
X156618331Y-43435609D01*
X156615776Y-43430428D01*
X156494320Y-43267779D01*
X156345258Y-43129987D01*
X156340375Y-43126906D01*
X156340371Y-43126903D01*
X156178464Y-43024748D01*
X156173581Y-43021667D01*
X155985039Y-42946446D01*
X155979379Y-42945320D01*
X155979375Y-42945319D01*
X155791613Y-42907971D01*
X155791610Y-42907971D01*
X155785946Y-42906844D01*
X155780171Y-42906768D01*
X155780167Y-42906768D01*
X155678793Y-42905441D01*
X155582971Y-42904187D01*
X155577274Y-42905166D01*
X155577273Y-42905166D01*
X155427191Y-42930955D01*
X155382910Y-42938564D01*
X155192463Y-43008824D01*
X155018010Y-43112612D01*
X155013670Y-43116418D01*
X155013666Y-43116421D01*
X154869733Y-43242648D01*
X154865392Y-43246455D01*
X154739720Y-43405869D01*
X154737031Y-43410980D01*
X154737029Y-43410983D01*
X154724073Y-43435609D01*
X154645203Y-43585515D01*
X154585007Y-43779378D01*
X154561148Y-43980964D01*
X154574424Y-44183522D01*
X154575845Y-44189118D01*
X154575846Y-44189123D01*
X154596119Y-44268945D01*
X154624392Y-44380269D01*
X154626809Y-44385512D01*
X154664010Y-44466208D01*
X154709377Y-44564616D01*
X154826533Y-44730389D01*
X154971938Y-44872035D01*
X155140720Y-44984812D01*
X155146023Y-44987090D01*
X155146026Y-44987092D01*
X155321921Y-45062662D01*
X155327228Y-45064942D01*
X155400244Y-45081464D01*
X155519579Y-45108467D01*
X155519584Y-45108468D01*
X155525216Y-45109742D01*
X155530987Y-45109969D01*
X155530989Y-45109969D01*
X155590756Y-45112317D01*
X155728053Y-45117712D01*
X155835348Y-45102155D01*
X155923231Y-45089413D01*
X155923236Y-45089412D01*
X155928945Y-45088584D01*
X155934409Y-45086729D01*
X155934414Y-45086728D01*
X156115693Y-45025192D01*
X156115698Y-45025190D01*
X156121165Y-45023334D01*
X156298276Y-44924147D01*
X156337969Y-44891135D01*
X156425696Y-44818172D01*
X156454345Y-44794345D01*
X156584147Y-44638276D01*
X156683334Y-44461165D01*
X156685720Y-44454135D01*
X156686170Y-44453496D01*
X156687541Y-44450416D01*
X156688146Y-44450685D01*
X156726553Y-44396059D01*
X156792305Y-44369278D01*
X156862098Y-44382295D01*
X156913773Y-44430980D01*
X156921777Y-44447229D01*
X156991770Y-44619603D01*
X156996413Y-44628794D01*
X157107694Y-44810388D01*
X157113777Y-44818699D01*
X157253213Y-44979667D01*
X157260580Y-44986883D01*
X157424434Y-45122916D01*
X157432881Y-45128831D01*
X157616756Y-45236279D01*
X157626042Y-45240729D01*
X157775124Y-45297657D01*
X157831627Y-45340644D01*
X157855920Y-45407355D01*
X157840290Y-45476610D01*
X157789699Y-45526421D01*
X157773785Y-45533579D01*
X157732463Y-45548824D01*
X157558010Y-45652612D01*
X157553670Y-45656418D01*
X157553666Y-45656421D01*
X157409733Y-45782648D01*
X157405392Y-45786455D01*
X157279720Y-45945869D01*
X157277031Y-45950980D01*
X157277029Y-45950983D01*
X157264073Y-45975609D01*
X157185203Y-46125515D01*
X157125007Y-46319378D01*
X157124328Y-46325115D01*
X157107465Y-46467588D01*
X157079594Y-46532885D01*
X157071433Y-46541873D01*
X156993120Y-46620186D01*
X156930808Y-46654212D01*
X156859993Y-46649147D01*
X156803157Y-46606600D01*
X156778554Y-46542620D01*
X156761187Y-46353613D01*
X156761186Y-46353610D01*
X156760658Y-46347859D01*
X156759090Y-46342299D01*
X156707125Y-46158046D01*
X156707124Y-46158044D01*
X156705557Y-46152487D01*
X156694978Y-46131033D01*
X156618331Y-45975609D01*
X156615776Y-45970428D01*
X156494320Y-45807779D01*
X156345258Y-45669987D01*
X156340375Y-45666906D01*
X156340371Y-45666903D01*
X156178464Y-45564748D01*
X156173581Y-45561667D01*
X155985039Y-45486446D01*
X155979379Y-45485320D01*
X155979375Y-45485319D01*
X155791613Y-45447971D01*
X155791610Y-45447971D01*
X155785946Y-45446844D01*
X155780171Y-45446768D01*
X155780167Y-45446768D01*
X155678793Y-45445441D01*
X155582971Y-45444187D01*
X155577274Y-45445166D01*
X155577273Y-45445166D01*
X155388607Y-45477585D01*
X155382910Y-45478564D01*
X155192463Y-45548824D01*
X155018010Y-45652612D01*
X155013670Y-45656418D01*
X155013666Y-45656421D01*
X154869733Y-45782648D01*
X154865392Y-45786455D01*
X154739720Y-45945869D01*
X154737031Y-45950980D01*
X154737029Y-45950983D01*
X154724073Y-45975609D01*
X154645203Y-46125515D01*
X154585007Y-46319378D01*
X154561148Y-46520964D01*
X154574424Y-46723522D01*
X154575845Y-46729118D01*
X154575846Y-46729123D01*
X154620208Y-46903796D01*
X154624392Y-46920269D01*
X154626809Y-46925512D01*
X154698367Y-47080734D01*
X154709377Y-47104616D01*
X154712710Y-47109332D01*
X154823194Y-47265664D01*
X154826533Y-47270389D01*
X154971938Y-47412035D01*
X154976742Y-47415245D01*
X155017288Y-47442337D01*
X155140720Y-47524812D01*
X155146023Y-47527090D01*
X155146026Y-47527092D01*
X155319635Y-47601680D01*
X155327228Y-47604942D01*
X155368386Y-47614255D01*
X155519579Y-47648467D01*
X155519584Y-47648468D01*
X155525216Y-47649742D01*
X155530987Y-47649969D01*
X155530989Y-47649969D01*
X155590756Y-47652317D01*
X155728053Y-47657712D01*
X155828499Y-47643148D01*
X155923231Y-47629413D01*
X155923236Y-47629412D01*
X155928945Y-47628584D01*
X155934409Y-47626729D01*
X155934414Y-47626728D01*
X156115693Y-47565192D01*
X156115698Y-47565190D01*
X156121165Y-47563334D01*
X156132935Y-47556743D01*
X156202142Y-47540909D01*
X156268924Y-47565006D01*
X156312077Y-47621382D01*
X156320500Y-47666677D01*
X156320500Y-49504220D01*
X156300498Y-49572341D01*
X156283595Y-49593315D01*
X153043315Y-52833595D01*
X152981003Y-52867621D01*
X152954220Y-52870500D01*
X151320384Y-52870500D01*
X151252263Y-52850498D01*
X151205770Y-52796842D01*
X151195666Y-52726568D01*
X151225160Y-52661988D01*
X151231289Y-52655405D01*
X152230216Y-51656478D01*
X152248964Y-51641336D01*
X152250189Y-51640221D01*
X152258940Y-51634571D01*
X152265387Y-51626393D01*
X152265389Y-51626391D01*
X152279729Y-51608200D01*
X152283675Y-51603759D01*
X152283602Y-51603697D01*
X152286961Y-51599733D01*
X152290638Y-51596056D01*
X152301892Y-51580308D01*
X152305398Y-51575638D01*
X152337156Y-51535353D01*
X152340188Y-51526719D01*
X152345514Y-51519266D01*
X152360203Y-51470150D01*
X152362036Y-51464508D01*
X152376390Y-51423633D01*
X152376390Y-51423632D01*
X152379018Y-51416149D01*
X152379500Y-51410584D01*
X152379500Y-51407876D01*
X152379614Y-51405242D01*
X152379643Y-51405144D01*
X152379807Y-51405151D01*
X152379851Y-51404447D01*
X152381713Y-51398222D01*
X152379597Y-51344365D01*
X152379500Y-51339418D01*
X152379500Y-47612727D01*
X152399502Y-47544606D01*
X152453158Y-47498113D01*
X152523432Y-47488009D01*
X152575501Y-47507962D01*
X152595422Y-47521272D01*
X152600720Y-47524812D01*
X152606023Y-47527090D01*
X152606026Y-47527092D01*
X152779635Y-47601680D01*
X152787228Y-47604942D01*
X152828386Y-47614255D01*
X152979579Y-47648467D01*
X152979584Y-47648468D01*
X152985216Y-47649742D01*
X152990987Y-47649969D01*
X152990989Y-47649969D01*
X153050756Y-47652317D01*
X153188053Y-47657712D01*
X153288499Y-47643148D01*
X153383231Y-47629413D01*
X153383236Y-47629412D01*
X153388945Y-47628584D01*
X153394409Y-47626729D01*
X153394414Y-47626728D01*
X153575693Y-47565192D01*
X153575698Y-47565190D01*
X153581165Y-47563334D01*
X153594508Y-47555862D01*
X153697625Y-47498113D01*
X153758276Y-47464147D01*
X153780501Y-47445663D01*
X153891908Y-47353006D01*
X153914345Y-47334345D01*
X153971467Y-47265664D01*
X154040453Y-47182718D01*
X154040455Y-47182715D01*
X154044147Y-47178276D01*
X154110155Y-47060411D01*
X154140510Y-47006208D01*
X154140511Y-47006206D01*
X154143334Y-47001165D01*
X154145190Y-46995698D01*
X154145192Y-46995693D01*
X154206728Y-46814414D01*
X154206729Y-46814409D01*
X154208584Y-46808945D01*
X154209412Y-46803236D01*
X154209413Y-46803231D01*
X154237179Y-46611727D01*
X154237712Y-46608053D01*
X154239232Y-46550000D01*
X154220658Y-46347859D01*
X154219090Y-46342299D01*
X154167125Y-46158046D01*
X154167124Y-46158044D01*
X154165557Y-46152487D01*
X154154978Y-46131033D01*
X154078331Y-45975609D01*
X154075776Y-45970428D01*
X153954320Y-45807779D01*
X153805258Y-45669987D01*
X153800375Y-45666906D01*
X153800371Y-45666903D01*
X153638464Y-45564748D01*
X153633581Y-45561667D01*
X153445039Y-45486446D01*
X153439379Y-45485320D01*
X153439375Y-45485319D01*
X153251613Y-45447971D01*
X153251610Y-45447971D01*
X153245946Y-45446844D01*
X153240171Y-45446768D01*
X153240167Y-45446768D01*
X153138793Y-45445441D01*
X153042971Y-45444187D01*
X153037274Y-45445166D01*
X153037273Y-45445166D01*
X152848607Y-45477585D01*
X152842910Y-45478564D01*
X152652463Y-45548824D01*
X152478010Y-45652612D01*
X152473670Y-45656418D01*
X152473666Y-45656421D01*
X152329733Y-45782648D01*
X152325392Y-45786455D01*
X152199720Y-45945869D01*
X152197031Y-45950980D01*
X152197029Y-45950983D01*
X152107589Y-46120980D01*
X152058170Y-46171952D01*
X151989037Y-46188115D01*
X151922141Y-46164336D01*
X151882003Y-46109973D01*
X151879955Y-46110863D01*
X151792972Y-45910814D01*
X151788105Y-45901739D01*
X151672426Y-45722926D01*
X151666136Y-45714757D01*
X151522806Y-45557240D01*
X151515273Y-45550215D01*
X151348139Y-45418222D01*
X151339552Y-45412517D01*
X151153117Y-45309599D01*
X151143705Y-45305369D01*
X151029391Y-45264888D01*
X150971855Y-45223294D01*
X150945939Y-45157196D01*
X150959873Y-45087580D01*
X151009232Y-45036549D01*
X151030943Y-45026804D01*
X151041165Y-45023334D01*
X151218276Y-44924147D01*
X151257969Y-44891135D01*
X151345696Y-44818172D01*
X151374345Y-44794345D01*
X151504147Y-44638276D01*
X151603334Y-44461165D01*
X151605190Y-44455698D01*
X151605192Y-44455693D01*
X151666728Y-44274414D01*
X151666729Y-44274409D01*
X151668584Y-44268945D01*
X151669412Y-44263236D01*
X151669413Y-44263231D01*
X151697179Y-44071727D01*
X151697712Y-44068053D01*
X151699232Y-44010000D01*
X151696564Y-43980964D01*
X152021148Y-43980964D01*
X152034424Y-44183522D01*
X152035845Y-44189118D01*
X152035846Y-44189123D01*
X152056119Y-44268945D01*
X152084392Y-44380269D01*
X152086809Y-44385512D01*
X152124010Y-44466208D01*
X152169377Y-44564616D01*
X152286533Y-44730389D01*
X152431938Y-44872035D01*
X152600720Y-44984812D01*
X152606023Y-44987090D01*
X152606026Y-44987092D01*
X152781921Y-45062662D01*
X152787228Y-45064942D01*
X152860244Y-45081464D01*
X152979579Y-45108467D01*
X152979584Y-45108468D01*
X152985216Y-45109742D01*
X152990987Y-45109969D01*
X152990989Y-45109969D01*
X153050756Y-45112317D01*
X153188053Y-45117712D01*
X153295348Y-45102155D01*
X153383231Y-45089413D01*
X153383236Y-45089412D01*
X153388945Y-45088584D01*
X153394409Y-45086729D01*
X153394414Y-45086728D01*
X153575693Y-45025192D01*
X153575698Y-45025190D01*
X153581165Y-45023334D01*
X153758276Y-44924147D01*
X153797969Y-44891135D01*
X153885696Y-44818172D01*
X153914345Y-44794345D01*
X154044147Y-44638276D01*
X154143334Y-44461165D01*
X154145190Y-44455698D01*
X154145192Y-44455693D01*
X154206728Y-44274414D01*
X154206729Y-44274409D01*
X154208584Y-44268945D01*
X154209412Y-44263236D01*
X154209413Y-44263231D01*
X154237179Y-44071727D01*
X154237712Y-44068053D01*
X154239232Y-44010000D01*
X154223894Y-43843071D01*
X154221187Y-43813613D01*
X154221186Y-43813610D01*
X154220658Y-43807859D01*
X154218401Y-43799856D01*
X154167125Y-43618046D01*
X154167124Y-43618044D01*
X154165557Y-43612487D01*
X154154978Y-43591033D01*
X154078331Y-43435609D01*
X154075776Y-43430428D01*
X153954320Y-43267779D01*
X153805258Y-43129987D01*
X153800375Y-43126906D01*
X153800371Y-43126903D01*
X153638464Y-43024748D01*
X153633581Y-43021667D01*
X153445039Y-42946446D01*
X153439379Y-42945320D01*
X153439375Y-42945319D01*
X153251613Y-42907971D01*
X153251610Y-42907971D01*
X153245946Y-42906844D01*
X153240171Y-42906768D01*
X153240167Y-42906768D01*
X153138793Y-42905441D01*
X153042971Y-42904187D01*
X153037274Y-42905166D01*
X153037273Y-42905166D01*
X152887191Y-42930955D01*
X152842910Y-42938564D01*
X152652463Y-43008824D01*
X152478010Y-43112612D01*
X152473670Y-43116418D01*
X152473666Y-43116421D01*
X152329733Y-43242648D01*
X152325392Y-43246455D01*
X152199720Y-43405869D01*
X152197031Y-43410980D01*
X152197029Y-43410983D01*
X152184073Y-43435609D01*
X152105203Y-43585515D01*
X152045007Y-43779378D01*
X152021148Y-43980964D01*
X151696564Y-43980964D01*
X151683894Y-43843071D01*
X151681187Y-43813613D01*
X151681186Y-43813610D01*
X151680658Y-43807859D01*
X151678401Y-43799856D01*
X151627125Y-43618046D01*
X151627124Y-43618044D01*
X151625557Y-43612487D01*
X151614978Y-43591033D01*
X151538331Y-43435609D01*
X151535776Y-43430428D01*
X151414320Y-43267779D01*
X151265258Y-43129987D01*
X151260375Y-43126906D01*
X151260371Y-43126903D01*
X151098464Y-43024748D01*
X151093581Y-43021667D01*
X150905039Y-42946446D01*
X150899379Y-42945320D01*
X150899375Y-42945319D01*
X150711613Y-42907971D01*
X150711610Y-42907971D01*
X150705946Y-42906844D01*
X150700171Y-42906768D01*
X150700167Y-42906768D01*
X150598793Y-42905441D01*
X150502971Y-42904187D01*
X150497274Y-42905166D01*
X150497273Y-42905166D01*
X150347191Y-42930955D01*
X150302910Y-42938564D01*
X150112463Y-43008824D01*
X149938010Y-43112612D01*
X149933670Y-43116418D01*
X149933666Y-43116421D01*
X149789733Y-43242648D01*
X149785392Y-43246455D01*
X149659720Y-43405869D01*
X149657031Y-43410980D01*
X149657029Y-43410983D01*
X149644073Y-43435609D01*
X149565203Y-43585515D01*
X149505007Y-43779378D01*
X149481148Y-43980964D01*
X149494424Y-44183522D01*
X149495845Y-44189118D01*
X149495846Y-44189123D01*
X149516119Y-44268945D01*
X149544392Y-44380269D01*
X149546809Y-44385512D01*
X149584010Y-44466208D01*
X149629377Y-44564616D01*
X149746533Y-44730389D01*
X149891938Y-44872035D01*
X150060720Y-44984812D01*
X150066023Y-44987090D01*
X150066026Y-44987092D01*
X150162954Y-45028735D01*
X150217647Y-45074003D01*
X150239184Y-45141654D01*
X150220727Y-45210210D01*
X150168136Y-45257904D01*
X150152361Y-45264268D01*
X150066868Y-45292212D01*
X150057359Y-45296209D01*
X149868463Y-45394542D01*
X149859738Y-45400036D01*
X149689433Y-45527905D01*
X149681726Y-45534748D01*
X149534590Y-45688717D01*
X149528104Y-45696727D01*
X149408098Y-45872649D01*
X149403000Y-45881623D01*
X149313338Y-46074783D01*
X149309777Y-46084464D01*
X149305291Y-46100640D01*
X149267813Y-46160939D01*
X149203684Y-46191403D01*
X149133266Y-46182360D01*
X149078915Y-46136682D01*
X149070867Y-46122698D01*
X148998331Y-45975609D01*
X148995776Y-45970428D01*
X148874320Y-45807779D01*
X148725258Y-45669987D01*
X148720375Y-45666906D01*
X148720371Y-45666903D01*
X148558464Y-45564748D01*
X148553581Y-45561667D01*
X148365039Y-45486446D01*
X148359379Y-45485320D01*
X148359375Y-45485319D01*
X148171613Y-45447971D01*
X148171610Y-45447971D01*
X148165946Y-45446844D01*
X148160171Y-45446768D01*
X148160167Y-45446768D01*
X148058793Y-45445441D01*
X147962971Y-45444187D01*
X147957274Y-45445166D01*
X147957273Y-45445166D01*
X147768607Y-45477585D01*
X147762910Y-45478564D01*
X147572463Y-45548824D01*
X147398010Y-45652612D01*
X147393670Y-45656418D01*
X147393666Y-45656421D01*
X147249733Y-45782648D01*
X147245392Y-45786455D01*
X147119720Y-45945869D01*
X147117031Y-45950980D01*
X147117029Y-45950983D01*
X147027589Y-46120980D01*
X146978170Y-46171952D01*
X146909037Y-46188115D01*
X146842141Y-46164336D01*
X146802003Y-46109973D01*
X146799955Y-46110863D01*
X146712972Y-45910814D01*
X146708105Y-45901739D01*
X146592426Y-45722926D01*
X146586136Y-45714757D01*
X146442806Y-45557240D01*
X146435273Y-45550215D01*
X146268139Y-45418222D01*
X146259552Y-45412517D01*
X146073117Y-45309599D01*
X146063705Y-45305369D01*
X145949391Y-45264888D01*
X145891855Y-45223294D01*
X145865939Y-45157196D01*
X145879873Y-45087580D01*
X145929232Y-45036549D01*
X145950943Y-45026804D01*
X145961165Y-45023334D01*
X146138276Y-44924147D01*
X146177969Y-44891135D01*
X146265696Y-44818172D01*
X146294345Y-44794345D01*
X146424147Y-44638276D01*
X146523334Y-44461165D01*
X146525190Y-44455698D01*
X146525192Y-44455693D01*
X146586728Y-44274414D01*
X146586729Y-44274409D01*
X146588584Y-44268945D01*
X146589412Y-44263236D01*
X146589413Y-44263231D01*
X146617179Y-44071727D01*
X146617712Y-44068053D01*
X146619232Y-44010000D01*
X146616564Y-43980964D01*
X146941148Y-43980964D01*
X146954424Y-44183522D01*
X146955845Y-44189118D01*
X146955846Y-44189123D01*
X146976119Y-44268945D01*
X147004392Y-44380269D01*
X147006809Y-44385512D01*
X147044010Y-44466208D01*
X147089377Y-44564616D01*
X147206533Y-44730389D01*
X147351938Y-44872035D01*
X147520720Y-44984812D01*
X147526023Y-44987090D01*
X147526026Y-44987092D01*
X147701921Y-45062662D01*
X147707228Y-45064942D01*
X147780244Y-45081464D01*
X147899579Y-45108467D01*
X147899584Y-45108468D01*
X147905216Y-45109742D01*
X147910987Y-45109969D01*
X147910989Y-45109969D01*
X147970756Y-45112317D01*
X148108053Y-45117712D01*
X148215348Y-45102155D01*
X148303231Y-45089413D01*
X148303236Y-45089412D01*
X148308945Y-45088584D01*
X148314409Y-45086729D01*
X148314414Y-45086728D01*
X148495693Y-45025192D01*
X148495698Y-45025190D01*
X148501165Y-45023334D01*
X148678276Y-44924147D01*
X148717969Y-44891135D01*
X148805696Y-44818172D01*
X148834345Y-44794345D01*
X148964147Y-44638276D01*
X149063334Y-44461165D01*
X149065190Y-44455698D01*
X149065192Y-44455693D01*
X149126728Y-44274414D01*
X149126729Y-44274409D01*
X149128584Y-44268945D01*
X149129412Y-44263236D01*
X149129413Y-44263231D01*
X149157179Y-44071727D01*
X149157712Y-44068053D01*
X149159232Y-44010000D01*
X149143894Y-43843071D01*
X149141187Y-43813613D01*
X149141186Y-43813610D01*
X149140658Y-43807859D01*
X149138401Y-43799856D01*
X149087125Y-43618046D01*
X149087124Y-43618044D01*
X149085557Y-43612487D01*
X149074978Y-43591033D01*
X148998331Y-43435609D01*
X148995776Y-43430428D01*
X148874320Y-43267779D01*
X148725258Y-43129987D01*
X148720375Y-43126906D01*
X148720371Y-43126903D01*
X148558464Y-43024748D01*
X148553581Y-43021667D01*
X148365039Y-42946446D01*
X148359379Y-42945320D01*
X148359375Y-42945319D01*
X148171613Y-42907971D01*
X148171610Y-42907971D01*
X148165946Y-42906844D01*
X148160171Y-42906768D01*
X148160167Y-42906768D01*
X148058793Y-42905441D01*
X147962971Y-42904187D01*
X147957274Y-42905166D01*
X147957273Y-42905166D01*
X147807191Y-42930955D01*
X147762910Y-42938564D01*
X147572463Y-43008824D01*
X147398010Y-43112612D01*
X147393670Y-43116418D01*
X147393666Y-43116421D01*
X147249733Y-43242648D01*
X147245392Y-43246455D01*
X147119720Y-43405869D01*
X147117031Y-43410980D01*
X147117029Y-43410983D01*
X147104073Y-43435609D01*
X147025203Y-43585515D01*
X146965007Y-43779378D01*
X146941148Y-43980964D01*
X146616564Y-43980964D01*
X146603894Y-43843071D01*
X146601187Y-43813613D01*
X146601186Y-43813610D01*
X146600658Y-43807859D01*
X146598401Y-43799856D01*
X146547125Y-43618046D01*
X146547124Y-43618044D01*
X146545557Y-43612487D01*
X146534978Y-43591033D01*
X146458331Y-43435609D01*
X146455776Y-43430428D01*
X146334320Y-43267779D01*
X146185258Y-43129987D01*
X146180375Y-43126906D01*
X146180371Y-43126903D01*
X146018464Y-43024748D01*
X146013581Y-43021667D01*
X145825039Y-42946446D01*
X145819379Y-42945320D01*
X145819375Y-42945319D01*
X145631613Y-42907971D01*
X145631610Y-42907971D01*
X145625946Y-42906844D01*
X145620171Y-42906768D01*
X145620167Y-42906768D01*
X145518793Y-42905441D01*
X145422971Y-42904187D01*
X145417274Y-42905166D01*
X145417273Y-42905166D01*
X145267191Y-42930955D01*
X145222910Y-42938564D01*
X145032463Y-43008824D01*
X144858010Y-43112612D01*
X144853670Y-43116418D01*
X144853666Y-43116421D01*
X144709733Y-43242648D01*
X144705392Y-43246455D01*
X144579720Y-43405869D01*
X144577031Y-43410980D01*
X144577029Y-43410983D01*
X144564073Y-43435609D01*
X144485203Y-43585515D01*
X144425007Y-43779378D01*
X144401148Y-43980964D01*
X144414424Y-44183522D01*
X144415845Y-44189118D01*
X144415846Y-44189123D01*
X144436119Y-44268945D01*
X144464392Y-44380269D01*
X144466809Y-44385512D01*
X144504010Y-44466208D01*
X144549377Y-44564616D01*
X144666533Y-44730389D01*
X144811938Y-44872035D01*
X144980720Y-44984812D01*
X144986023Y-44987090D01*
X144986026Y-44987092D01*
X145082954Y-45028735D01*
X145137647Y-45074003D01*
X145159184Y-45141654D01*
X145140727Y-45210210D01*
X145088136Y-45257904D01*
X145072361Y-45264268D01*
X144986868Y-45292212D01*
X144977359Y-45296209D01*
X144788463Y-45394542D01*
X144779738Y-45400036D01*
X144609433Y-45527905D01*
X144601726Y-45534748D01*
X144454590Y-45688717D01*
X144448104Y-45696727D01*
X144328098Y-45872649D01*
X144323000Y-45881623D01*
X144233338Y-46074783D01*
X144229777Y-46084464D01*
X144225291Y-46100640D01*
X144187813Y-46160939D01*
X144123684Y-46191403D01*
X144053266Y-46182360D01*
X143998915Y-46136682D01*
X143990867Y-46122698D01*
X143918331Y-45975609D01*
X143915776Y-45970428D01*
X143794320Y-45807779D01*
X143645258Y-45669987D01*
X143640375Y-45666906D01*
X143640371Y-45666903D01*
X143478464Y-45564748D01*
X143473581Y-45561667D01*
X143285039Y-45486446D01*
X143279379Y-45485320D01*
X143279375Y-45485319D01*
X143091613Y-45447971D01*
X143091610Y-45447971D01*
X143085946Y-45446844D01*
X143080171Y-45446768D01*
X143080167Y-45446768D01*
X142978793Y-45445441D01*
X142882971Y-45444187D01*
X142877274Y-45445166D01*
X142877273Y-45445166D01*
X142688607Y-45477585D01*
X142682910Y-45478564D01*
X142492463Y-45548824D01*
X142318010Y-45652612D01*
X142313670Y-45656418D01*
X142313666Y-45656421D01*
X142169733Y-45782648D01*
X142165392Y-45786455D01*
X142039720Y-45945869D01*
X142037031Y-45950980D01*
X142037029Y-45950983D01*
X142024073Y-45975609D01*
X141945203Y-46125515D01*
X141885007Y-46319378D01*
X141861148Y-46520964D01*
X141862408Y-46540196D01*
X141846907Y-46609477D01*
X141825774Y-46637532D01*
X141751822Y-46711484D01*
X141689510Y-46745510D01*
X141618695Y-46740445D01*
X141561859Y-46697898D01*
X141537048Y-46631378D01*
X141537183Y-46611703D01*
X141537712Y-46608053D01*
X141539232Y-46550000D01*
X141520658Y-46347859D01*
X141519090Y-46342299D01*
X141467125Y-46158046D01*
X141467124Y-46158044D01*
X141465557Y-46152487D01*
X141454978Y-46131033D01*
X141378331Y-45975609D01*
X141375776Y-45970428D01*
X141254320Y-45807779D01*
X141105258Y-45669987D01*
X141100375Y-45666906D01*
X141100371Y-45666903D01*
X140938464Y-45564748D01*
X140933581Y-45561667D01*
X140745039Y-45486446D01*
X140739379Y-45485320D01*
X140739375Y-45485319D01*
X140551613Y-45447971D01*
X140551610Y-45447971D01*
X140545946Y-45446844D01*
X140540171Y-45446768D01*
X140540167Y-45446768D01*
X140438793Y-45445441D01*
X140342971Y-45444187D01*
X140337274Y-45445166D01*
X140337273Y-45445166D01*
X140148607Y-45477585D01*
X140142910Y-45478564D01*
X139952463Y-45548824D01*
X139778010Y-45652612D01*
X139773670Y-45656418D01*
X139773666Y-45656421D01*
X139629733Y-45782648D01*
X139625392Y-45786455D01*
X139499720Y-45945869D01*
X139497031Y-45950980D01*
X139497029Y-45950983D01*
X139484073Y-45975609D01*
X139405203Y-46125515D01*
X139345007Y-46319378D01*
X139321148Y-46520964D01*
X139334424Y-46723522D01*
X139335845Y-46729118D01*
X139335846Y-46729123D01*
X139380208Y-46903796D01*
X139384392Y-46920269D01*
X139386809Y-46925512D01*
X139458367Y-47080734D01*
X139469377Y-47104616D01*
X139472710Y-47109332D01*
X139583194Y-47265664D01*
X139586533Y-47270389D01*
X139731938Y-47412035D01*
X139736742Y-47415245D01*
X139777288Y-47442337D01*
X139900720Y-47524812D01*
X139906023Y-47527090D01*
X139906026Y-47527092D01*
X140079635Y-47601680D01*
X140087228Y-47604942D01*
X140128386Y-47614255D01*
X140279579Y-47648467D01*
X140279584Y-47648468D01*
X140285216Y-47649742D01*
X140290987Y-47649969D01*
X140290989Y-47649969D01*
X140350756Y-47652317D01*
X140488053Y-47657712D01*
X140588499Y-47643148D01*
X140683231Y-47629413D01*
X140683236Y-47629412D01*
X140688945Y-47628584D01*
X140694409Y-47626729D01*
X140694414Y-47626728D01*
X140853999Y-47572556D01*
X140924934Y-47569600D01*
X140986206Y-47605463D01*
X141018363Y-47668760D01*
X141020500Y-47691869D01*
X141020500Y-49404220D01*
X141000498Y-49472341D01*
X140983595Y-49493315D01*
X140393315Y-50083595D01*
X140331003Y-50117621D01*
X140304220Y-50120500D01*
X139317524Y-50120500D01*
X139293576Y-50117951D01*
X139291911Y-50117872D01*
X139281728Y-50115680D01*
X139271387Y-50116904D01*
X139248381Y-50119627D01*
X139242450Y-50119977D01*
X139242458Y-50120072D01*
X139237280Y-50120500D01*
X139232080Y-50120500D01*
X139226951Y-50121354D01*
X139226948Y-50121354D01*
X139213039Y-50123669D01*
X139207161Y-50124506D01*
X139166603Y-50129306D01*
X139166602Y-50129306D01*
X139156263Y-50130530D01*
X139148011Y-50134493D01*
X139138978Y-50135996D01*
X139129809Y-50140943D01*
X139129807Y-50140944D01*
X139093872Y-50160334D01*
X139088579Y-50163031D01*
X139049522Y-50181785D01*
X139049518Y-50181788D01*
X139042372Y-50185219D01*
X139038096Y-50188814D01*
X139036173Y-50190737D01*
X139034241Y-50192509D01*
X139034162Y-50192552D01*
X139034049Y-50192428D01*
X139033509Y-50192904D01*
X139027790Y-50195990D01*
X139020723Y-50203635D01*
X138991188Y-50235586D01*
X138987758Y-50239152D01*
X137794595Y-51432315D01*
X137732283Y-51466341D01*
X137661468Y-51461276D01*
X137604632Y-51418729D01*
X137579821Y-51352209D01*
X137579500Y-51343220D01*
X137579500Y-47769940D01*
X137599502Y-47701819D01*
X137653158Y-47655326D01*
X137723432Y-47645222D01*
X137733298Y-47647045D01*
X137745216Y-47649742D01*
X137750987Y-47649969D01*
X137750989Y-47649969D01*
X137810756Y-47652317D01*
X137948053Y-47657712D01*
X138048499Y-47643148D01*
X138143231Y-47629413D01*
X138143236Y-47629412D01*
X138148945Y-47628584D01*
X138154409Y-47626729D01*
X138154414Y-47626728D01*
X138335693Y-47565192D01*
X138335698Y-47565190D01*
X138341165Y-47563334D01*
X138354508Y-47555862D01*
X138457625Y-47498113D01*
X138518276Y-47464147D01*
X138540501Y-47445663D01*
X138651908Y-47353006D01*
X138674345Y-47334345D01*
X138731467Y-47265664D01*
X138800453Y-47182718D01*
X138800455Y-47182715D01*
X138804147Y-47178276D01*
X138870155Y-47060411D01*
X138900510Y-47006208D01*
X138900511Y-47006206D01*
X138903334Y-47001165D01*
X138905190Y-46995698D01*
X138905192Y-46995693D01*
X138966728Y-46814414D01*
X138966729Y-46814409D01*
X138968584Y-46808945D01*
X138969412Y-46803236D01*
X138969413Y-46803231D01*
X138997179Y-46611727D01*
X138997712Y-46608053D01*
X138999232Y-46550000D01*
X138980658Y-46347859D01*
X138979090Y-46342299D01*
X138927125Y-46158046D01*
X138927124Y-46158044D01*
X138925557Y-46152487D01*
X138914978Y-46131033D01*
X138838331Y-45975609D01*
X138835776Y-45970428D01*
X138714320Y-45807779D01*
X138565258Y-45669987D01*
X138560375Y-45666906D01*
X138560371Y-45666903D01*
X138398464Y-45564748D01*
X138393581Y-45561667D01*
X138205039Y-45486446D01*
X138199379Y-45485320D01*
X138199375Y-45485319D01*
X138011613Y-45447971D01*
X138011610Y-45447971D01*
X138005946Y-45446844D01*
X138000171Y-45446768D01*
X138000167Y-45446768D01*
X137898793Y-45445441D01*
X137802971Y-45444187D01*
X137797274Y-45445166D01*
X137797273Y-45445166D01*
X137608607Y-45477585D01*
X137602910Y-45478564D01*
X137412463Y-45548824D01*
X137238010Y-45652612D01*
X137233670Y-45656418D01*
X137233666Y-45656421D01*
X137089733Y-45782648D01*
X137085392Y-45786455D01*
X136959720Y-45945869D01*
X136957031Y-45950980D01*
X136957029Y-45950983D01*
X136944073Y-45975609D01*
X136865203Y-46125515D01*
X136805007Y-46319378D01*
X136781148Y-46520964D01*
X136794424Y-46723522D01*
X136795845Y-46729118D01*
X136795846Y-46729123D01*
X136840208Y-46903796D01*
X136844392Y-46920269D01*
X136846809Y-46925512D01*
X136846811Y-46925517D01*
X136860774Y-46955806D01*
X136871129Y-47026043D01*
X136861747Y-47054270D01*
X136862841Y-47054654D01*
X136861690Y-47057931D01*
X136858936Y-47064507D01*
X136854486Y-47070734D01*
X136851501Y-47080715D01*
X136839799Y-47119844D01*
X136837964Y-47125492D01*
X136825985Y-47159603D01*
X136820982Y-47173851D01*
X136820500Y-47179416D01*
X136820500Y-47182124D01*
X136820386Y-47184758D01*
X136820357Y-47184856D01*
X136820193Y-47184849D01*
X136820149Y-47185553D01*
X136818287Y-47191778D01*
X136819573Y-47224502D01*
X136820403Y-47245635D01*
X136820500Y-47250582D01*
X136820500Y-56090616D01*
X136800498Y-56158737D01*
X136783595Y-56179711D01*
X136519784Y-56443522D01*
X136501036Y-56458664D01*
X136499811Y-56459779D01*
X136491060Y-56465429D01*
X136484613Y-56473607D01*
X136484611Y-56473609D01*
X136470271Y-56491800D01*
X136466325Y-56496241D01*
X136466398Y-56496303D01*
X136463039Y-56500267D01*
X136459362Y-56503944D01*
X136448108Y-56519692D01*
X136444602Y-56524362D01*
X136412844Y-56564647D01*
X136409812Y-56573281D01*
X136404486Y-56580734D01*
X136392657Y-56620289D01*
X136389799Y-56629844D01*
X136387964Y-56635492D01*
X136374382Y-56674167D01*
X136332939Y-56731812D01*
X136266909Y-56757900D01*
X136197257Y-56744149D01*
X136146097Y-56694923D01*
X136129500Y-56632418D01*
X136129500Y-56553920D01*
X136132049Y-56529973D01*
X136132128Y-56528307D01*
X136134320Y-56518124D01*
X136133096Y-56507782D01*
X136133096Y-56507779D01*
X136130374Y-56484787D01*
X136130023Y-56478846D01*
X136129928Y-56478854D01*
X136129500Y-56473674D01*
X136129500Y-56468476D01*
X136126329Y-56449424D01*
X136125492Y-56443547D01*
X136120693Y-56402997D01*
X136120692Y-56402995D01*
X136119469Y-56392659D01*
X136115508Y-56384410D01*
X136114004Y-56375374D01*
X136109056Y-56366203D01*
X136089652Y-56330240D01*
X136086957Y-56324951D01*
X136068212Y-56285915D01*
X136064780Y-56278768D01*
X136061186Y-56274492D01*
X136059246Y-56272552D01*
X136057493Y-56270641D01*
X136057444Y-56270551D01*
X136057567Y-56270439D01*
X136057095Y-56269904D01*
X136054010Y-56264186D01*
X136014413Y-56227583D01*
X136010848Y-56224154D01*
X135766405Y-55979711D01*
X135732379Y-55917399D01*
X135729500Y-55890616D01*
X135729500Y-47676488D01*
X135749502Y-47608367D01*
X135801427Y-47563802D01*
X135801165Y-47563334D01*
X135803491Y-47562032D01*
X135803493Y-47562030D01*
X135978276Y-47464147D01*
X136000501Y-47445663D01*
X136111908Y-47353006D01*
X136134345Y-47334345D01*
X136191467Y-47265664D01*
X136260453Y-47182718D01*
X136260455Y-47182715D01*
X136264147Y-47178276D01*
X136330155Y-47060411D01*
X136360510Y-47006208D01*
X136360511Y-47006206D01*
X136363334Y-47001165D01*
X136365190Y-46995698D01*
X136365192Y-46995693D01*
X136426728Y-46814414D01*
X136426729Y-46814409D01*
X136428584Y-46808945D01*
X136429412Y-46803236D01*
X136429413Y-46803231D01*
X136457179Y-46611727D01*
X136457712Y-46608053D01*
X136459232Y-46550000D01*
X136440658Y-46347859D01*
X136439090Y-46342299D01*
X136387125Y-46158046D01*
X136387124Y-46158044D01*
X136385557Y-46152487D01*
X136374978Y-46131033D01*
X136298331Y-45975609D01*
X136295776Y-45970428D01*
X136174320Y-45807779D01*
X136025258Y-45669987D01*
X136020375Y-45666906D01*
X136020371Y-45666903D01*
X135858464Y-45564748D01*
X135853581Y-45561667D01*
X135665039Y-45486446D01*
X135659379Y-45485320D01*
X135659375Y-45485319D01*
X135471613Y-45447971D01*
X135471610Y-45447971D01*
X135465946Y-45446844D01*
X135460171Y-45446768D01*
X135460167Y-45446768D01*
X135358793Y-45445441D01*
X135262971Y-45444187D01*
X135257274Y-45445166D01*
X135257273Y-45445166D01*
X135068607Y-45477585D01*
X135062910Y-45478564D01*
X134872463Y-45548824D01*
X134698010Y-45652612D01*
X134693670Y-45656418D01*
X134693666Y-45656421D01*
X134549733Y-45782648D01*
X134545392Y-45786455D01*
X134419720Y-45945869D01*
X134417031Y-45950980D01*
X134417029Y-45950983D01*
X134327589Y-46120980D01*
X134278170Y-46171952D01*
X134209037Y-46188115D01*
X134142141Y-46164336D01*
X134102003Y-46109973D01*
X134099955Y-46110863D01*
X134012972Y-45910814D01*
X134008105Y-45901739D01*
X133892426Y-45722926D01*
X133886136Y-45714757D01*
X133742806Y-45557240D01*
X133735273Y-45550215D01*
X133568139Y-45418222D01*
X133559552Y-45412517D01*
X133373117Y-45309599D01*
X133363705Y-45305369D01*
X133249391Y-45264888D01*
X133191855Y-45223294D01*
X133165939Y-45157196D01*
X133179873Y-45087580D01*
X133229232Y-45036549D01*
X133250943Y-45026804D01*
X133261165Y-45023334D01*
X133438276Y-44924147D01*
X133477969Y-44891135D01*
X133565696Y-44818172D01*
X133594345Y-44794345D01*
X133724147Y-44638276D01*
X133823334Y-44461165D01*
X133825190Y-44455698D01*
X133825192Y-44455693D01*
X133886728Y-44274414D01*
X133886729Y-44274409D01*
X133888584Y-44268945D01*
X133889412Y-44263236D01*
X133889413Y-44263231D01*
X133917179Y-44071727D01*
X133917712Y-44068053D01*
X133919232Y-44010000D01*
X133916564Y-43980964D01*
X134241148Y-43980964D01*
X134254424Y-44183522D01*
X134255845Y-44189118D01*
X134255846Y-44189123D01*
X134276119Y-44268945D01*
X134304392Y-44380269D01*
X134306809Y-44385512D01*
X134344010Y-44466208D01*
X134389377Y-44564616D01*
X134506533Y-44730389D01*
X134651938Y-44872035D01*
X134820720Y-44984812D01*
X134826023Y-44987090D01*
X134826026Y-44987092D01*
X135001921Y-45062662D01*
X135007228Y-45064942D01*
X135080244Y-45081464D01*
X135199579Y-45108467D01*
X135199584Y-45108468D01*
X135205216Y-45109742D01*
X135210987Y-45109969D01*
X135210989Y-45109969D01*
X135270756Y-45112317D01*
X135408053Y-45117712D01*
X135515348Y-45102155D01*
X135603231Y-45089413D01*
X135603236Y-45089412D01*
X135608945Y-45088584D01*
X135614409Y-45086729D01*
X135614414Y-45086728D01*
X135795693Y-45025192D01*
X135795698Y-45025190D01*
X135801165Y-45023334D01*
X135978276Y-44924147D01*
X136017969Y-44891135D01*
X136105696Y-44818172D01*
X136134345Y-44794345D01*
X136264147Y-44638276D01*
X136363334Y-44461165D01*
X136365190Y-44455698D01*
X136365192Y-44455693D01*
X136426728Y-44274414D01*
X136426729Y-44274409D01*
X136428584Y-44268945D01*
X136429412Y-44263236D01*
X136429413Y-44263231D01*
X136457179Y-44071727D01*
X136457712Y-44068053D01*
X136459232Y-44010000D01*
X136456564Y-43980964D01*
X136781148Y-43980964D01*
X136794424Y-44183522D01*
X136795845Y-44189118D01*
X136795846Y-44189123D01*
X136816119Y-44268945D01*
X136844392Y-44380269D01*
X136846809Y-44385512D01*
X136884010Y-44466208D01*
X136929377Y-44564616D01*
X137046533Y-44730389D01*
X137191938Y-44872035D01*
X137360720Y-44984812D01*
X137366023Y-44987090D01*
X137366026Y-44987092D01*
X137541921Y-45062662D01*
X137547228Y-45064942D01*
X137620244Y-45081464D01*
X137739579Y-45108467D01*
X137739584Y-45108468D01*
X137745216Y-45109742D01*
X137750987Y-45109969D01*
X137750989Y-45109969D01*
X137810756Y-45112317D01*
X137948053Y-45117712D01*
X138055348Y-45102155D01*
X138143231Y-45089413D01*
X138143236Y-45089412D01*
X138148945Y-45088584D01*
X138154409Y-45086729D01*
X138154414Y-45086728D01*
X138335693Y-45025192D01*
X138335698Y-45025190D01*
X138341165Y-45023334D01*
X138518276Y-44924147D01*
X138557969Y-44891135D01*
X138645696Y-44818172D01*
X138674345Y-44794345D01*
X138804147Y-44638276D01*
X138903334Y-44461165D01*
X138905190Y-44455698D01*
X138905192Y-44455693D01*
X138966728Y-44274414D01*
X138966729Y-44274409D01*
X138968584Y-44268945D01*
X138969412Y-44263236D01*
X138969413Y-44263231D01*
X138997179Y-44071727D01*
X138997712Y-44068053D01*
X138999232Y-44010000D01*
X138996564Y-43980964D01*
X139321148Y-43980964D01*
X139334424Y-44183522D01*
X139335845Y-44189118D01*
X139335846Y-44189123D01*
X139356119Y-44268945D01*
X139384392Y-44380269D01*
X139386809Y-44385512D01*
X139424010Y-44466208D01*
X139469377Y-44564616D01*
X139586533Y-44730389D01*
X139731938Y-44872035D01*
X139900720Y-44984812D01*
X139906023Y-44987090D01*
X139906026Y-44987092D01*
X140081921Y-45062662D01*
X140087228Y-45064942D01*
X140160244Y-45081464D01*
X140279579Y-45108467D01*
X140279584Y-45108468D01*
X140285216Y-45109742D01*
X140290987Y-45109969D01*
X140290989Y-45109969D01*
X140350756Y-45112317D01*
X140488053Y-45117712D01*
X140595348Y-45102155D01*
X140683231Y-45089413D01*
X140683236Y-45089412D01*
X140688945Y-45088584D01*
X140694409Y-45086729D01*
X140694414Y-45086728D01*
X140875693Y-45025192D01*
X140875698Y-45025190D01*
X140881165Y-45023334D01*
X141058276Y-44924147D01*
X141097969Y-44891135D01*
X141185696Y-44818172D01*
X141214345Y-44794345D01*
X141344147Y-44638276D01*
X141443334Y-44461165D01*
X141445190Y-44455698D01*
X141445192Y-44455693D01*
X141506728Y-44274414D01*
X141506729Y-44274409D01*
X141508584Y-44268945D01*
X141509412Y-44263236D01*
X141509413Y-44263231D01*
X141537179Y-44071727D01*
X141537712Y-44068053D01*
X141539232Y-44010000D01*
X141536564Y-43980964D01*
X141861148Y-43980964D01*
X141874424Y-44183522D01*
X141875845Y-44189118D01*
X141875846Y-44189123D01*
X141896119Y-44268945D01*
X141924392Y-44380269D01*
X141926809Y-44385512D01*
X141964010Y-44466208D01*
X142009377Y-44564616D01*
X142126533Y-44730389D01*
X142271938Y-44872035D01*
X142440720Y-44984812D01*
X142446023Y-44987090D01*
X142446026Y-44987092D01*
X142621921Y-45062662D01*
X142627228Y-45064942D01*
X142700244Y-45081464D01*
X142819579Y-45108467D01*
X142819584Y-45108468D01*
X142825216Y-45109742D01*
X142830987Y-45109969D01*
X142830989Y-45109969D01*
X142890756Y-45112317D01*
X143028053Y-45117712D01*
X143135348Y-45102155D01*
X143223231Y-45089413D01*
X143223236Y-45089412D01*
X143228945Y-45088584D01*
X143234409Y-45086729D01*
X143234414Y-45086728D01*
X143415693Y-45025192D01*
X143415698Y-45025190D01*
X143421165Y-45023334D01*
X143598276Y-44924147D01*
X143637969Y-44891135D01*
X143725696Y-44818172D01*
X143754345Y-44794345D01*
X143884147Y-44638276D01*
X143983334Y-44461165D01*
X143985190Y-44455698D01*
X143985192Y-44455693D01*
X144046728Y-44274414D01*
X144046729Y-44274409D01*
X144048584Y-44268945D01*
X144049412Y-44263236D01*
X144049413Y-44263231D01*
X144077179Y-44071727D01*
X144077712Y-44068053D01*
X144079232Y-44010000D01*
X144063894Y-43843071D01*
X144061187Y-43813613D01*
X144061186Y-43813610D01*
X144060658Y-43807859D01*
X144058401Y-43799856D01*
X144007125Y-43618046D01*
X144007124Y-43618044D01*
X144005557Y-43612487D01*
X143994978Y-43591033D01*
X143918331Y-43435609D01*
X143915776Y-43430428D01*
X143794320Y-43267779D01*
X143645258Y-43129987D01*
X143640375Y-43126906D01*
X143640371Y-43126903D01*
X143478464Y-43024748D01*
X143473581Y-43021667D01*
X143285039Y-42946446D01*
X143279379Y-42945320D01*
X143279375Y-42945319D01*
X143091613Y-42907971D01*
X143091610Y-42907971D01*
X143085946Y-42906844D01*
X143080171Y-42906768D01*
X143080167Y-42906768D01*
X142978793Y-42905441D01*
X142882971Y-42904187D01*
X142877274Y-42905166D01*
X142877273Y-42905166D01*
X142727191Y-42930955D01*
X142682910Y-42938564D01*
X142492463Y-43008824D01*
X142318010Y-43112612D01*
X142313670Y-43116418D01*
X142313666Y-43116421D01*
X142169733Y-43242648D01*
X142165392Y-43246455D01*
X142039720Y-43405869D01*
X142037031Y-43410980D01*
X142037029Y-43410983D01*
X142024073Y-43435609D01*
X141945203Y-43585515D01*
X141885007Y-43779378D01*
X141861148Y-43980964D01*
X141536564Y-43980964D01*
X141523894Y-43843071D01*
X141521187Y-43813613D01*
X141521186Y-43813610D01*
X141520658Y-43807859D01*
X141518401Y-43799856D01*
X141467125Y-43618046D01*
X141467124Y-43618044D01*
X141465557Y-43612487D01*
X141454978Y-43591033D01*
X141378331Y-43435609D01*
X141375776Y-43430428D01*
X141254320Y-43267779D01*
X141105258Y-43129987D01*
X141100375Y-43126906D01*
X141100371Y-43126903D01*
X140938464Y-43024748D01*
X140933581Y-43021667D01*
X140745039Y-42946446D01*
X140739379Y-42945320D01*
X140739375Y-42945319D01*
X140551613Y-42907971D01*
X140551610Y-42907971D01*
X140545946Y-42906844D01*
X140540171Y-42906768D01*
X140540167Y-42906768D01*
X140438793Y-42905441D01*
X140342971Y-42904187D01*
X140337274Y-42905166D01*
X140337273Y-42905166D01*
X140187191Y-42930955D01*
X140142910Y-42938564D01*
X139952463Y-43008824D01*
X139778010Y-43112612D01*
X139773670Y-43116418D01*
X139773666Y-43116421D01*
X139629733Y-43242648D01*
X139625392Y-43246455D01*
X139499720Y-43405869D01*
X139497031Y-43410980D01*
X139497029Y-43410983D01*
X139484073Y-43435609D01*
X139405203Y-43585515D01*
X139345007Y-43779378D01*
X139321148Y-43980964D01*
X138996564Y-43980964D01*
X138983894Y-43843071D01*
X138981187Y-43813613D01*
X138981186Y-43813610D01*
X138980658Y-43807859D01*
X138978401Y-43799856D01*
X138927125Y-43618046D01*
X138927124Y-43618044D01*
X138925557Y-43612487D01*
X138914978Y-43591033D01*
X138838331Y-43435609D01*
X138835776Y-43430428D01*
X138714320Y-43267779D01*
X138565258Y-43129987D01*
X138560375Y-43126906D01*
X138560371Y-43126903D01*
X138398464Y-43024748D01*
X138393581Y-43021667D01*
X138205039Y-42946446D01*
X138199379Y-42945320D01*
X138199375Y-42945319D01*
X138011613Y-42907971D01*
X138011610Y-42907971D01*
X138005946Y-42906844D01*
X138000171Y-42906768D01*
X138000167Y-42906768D01*
X137898793Y-42905441D01*
X137802971Y-42904187D01*
X137797274Y-42905166D01*
X137797273Y-42905166D01*
X137647191Y-42930955D01*
X137602910Y-42938564D01*
X137412463Y-43008824D01*
X137238010Y-43112612D01*
X137233670Y-43116418D01*
X137233666Y-43116421D01*
X137089733Y-43242648D01*
X137085392Y-43246455D01*
X136959720Y-43405869D01*
X136957031Y-43410980D01*
X136957029Y-43410983D01*
X136944073Y-43435609D01*
X136865203Y-43585515D01*
X136805007Y-43779378D01*
X136781148Y-43980964D01*
X136456564Y-43980964D01*
X136443894Y-43843071D01*
X136441187Y-43813613D01*
X136441186Y-43813610D01*
X136440658Y-43807859D01*
X136438401Y-43799856D01*
X136387125Y-43618046D01*
X136387124Y-43618044D01*
X136385557Y-43612487D01*
X136374978Y-43591033D01*
X136298331Y-43435609D01*
X136295776Y-43430428D01*
X136174320Y-43267779D01*
X136025258Y-43129987D01*
X136020375Y-43126906D01*
X136020371Y-43126903D01*
X135858464Y-43024748D01*
X135853581Y-43021667D01*
X135665039Y-42946446D01*
X135659379Y-42945320D01*
X135659375Y-42945319D01*
X135471613Y-42907971D01*
X135471610Y-42907971D01*
X135465946Y-42906844D01*
X135460171Y-42906768D01*
X135460167Y-42906768D01*
X135358793Y-42905441D01*
X135262971Y-42904187D01*
X135257274Y-42905166D01*
X135257273Y-42905166D01*
X135107191Y-42930955D01*
X135062910Y-42938564D01*
X134872463Y-43008824D01*
X134698010Y-43112612D01*
X134693670Y-43116418D01*
X134693666Y-43116421D01*
X134549733Y-43242648D01*
X134545392Y-43246455D01*
X134419720Y-43405869D01*
X134417031Y-43410980D01*
X134417029Y-43410983D01*
X134404073Y-43435609D01*
X134325203Y-43585515D01*
X134265007Y-43779378D01*
X134241148Y-43980964D01*
X133916564Y-43980964D01*
X133903894Y-43843071D01*
X133901187Y-43813613D01*
X133901186Y-43813610D01*
X133900658Y-43807859D01*
X133898401Y-43799856D01*
X133847125Y-43618046D01*
X133847124Y-43618044D01*
X133845557Y-43612487D01*
X133834978Y-43591033D01*
X133758331Y-43435609D01*
X133755776Y-43430428D01*
X133634320Y-43267779D01*
X133485258Y-43129987D01*
X133480375Y-43126906D01*
X133480371Y-43126903D01*
X133318464Y-43024748D01*
X133313581Y-43021667D01*
X133125039Y-42946446D01*
X133119379Y-42945320D01*
X133119375Y-42945319D01*
X132931613Y-42907971D01*
X132931610Y-42907971D01*
X132925946Y-42906844D01*
X132920171Y-42906768D01*
X132920167Y-42906768D01*
X132818793Y-42905441D01*
X132722971Y-42904187D01*
X132717274Y-42905166D01*
X132717273Y-42905166D01*
X132567191Y-42930955D01*
X132522910Y-42938564D01*
X132332463Y-43008824D01*
X132158010Y-43112612D01*
X132153670Y-43116418D01*
X132153666Y-43116421D01*
X132009733Y-43242648D01*
X132005392Y-43246455D01*
X131879720Y-43405869D01*
X131877031Y-43410980D01*
X131877029Y-43410983D01*
X131864073Y-43435609D01*
X131785203Y-43585515D01*
X131725007Y-43779378D01*
X131701148Y-43980964D01*
X131714424Y-44183522D01*
X131715845Y-44189118D01*
X131715846Y-44189123D01*
X131736119Y-44268945D01*
X131764392Y-44380269D01*
X131766809Y-44385512D01*
X131804010Y-44466208D01*
X131849377Y-44564616D01*
X131966533Y-44730389D01*
X132111938Y-44872035D01*
X132280720Y-44984812D01*
X132286023Y-44987090D01*
X132286026Y-44987092D01*
X132382954Y-45028735D01*
X132437647Y-45074003D01*
X132459184Y-45141654D01*
X132440727Y-45210210D01*
X132388136Y-45257904D01*
X132372361Y-45264268D01*
X132286868Y-45292212D01*
X132277359Y-45296209D01*
X132088463Y-45394542D01*
X132079738Y-45400036D01*
X131909433Y-45527905D01*
X131901726Y-45534748D01*
X131754590Y-45688717D01*
X131748104Y-45696727D01*
X131628098Y-45872649D01*
X131623000Y-45881623D01*
X131533338Y-46074783D01*
X131529777Y-46084464D01*
X131525291Y-46100640D01*
X131487813Y-46160939D01*
X131423684Y-46191403D01*
X131353266Y-46182360D01*
X131298915Y-46136682D01*
X131290867Y-46122698D01*
X131218331Y-45975609D01*
X131215776Y-45970428D01*
X131094320Y-45807779D01*
X130945258Y-45669987D01*
X130940375Y-45666906D01*
X130940371Y-45666903D01*
X130778464Y-45564748D01*
X130773581Y-45561667D01*
X130585039Y-45486446D01*
X130579379Y-45485320D01*
X130579375Y-45485319D01*
X130391613Y-45447971D01*
X130391610Y-45447971D01*
X130385946Y-45446844D01*
X130380171Y-45446768D01*
X130380167Y-45446768D01*
X130278793Y-45445441D01*
X130182971Y-45444187D01*
X130177274Y-45445166D01*
X130177273Y-45445166D01*
X129988607Y-45477585D01*
X129982910Y-45478564D01*
X129792463Y-45548824D01*
X129618010Y-45652612D01*
X129613670Y-45656418D01*
X129613666Y-45656421D01*
X129469733Y-45782648D01*
X129465392Y-45786455D01*
X129339720Y-45945869D01*
X129337031Y-45950980D01*
X129337029Y-45950983D01*
X129324073Y-45975609D01*
X129245203Y-46125515D01*
X129185007Y-46319378D01*
X129161148Y-46520964D01*
X129174424Y-46723522D01*
X129175845Y-46729118D01*
X129175846Y-46729123D01*
X129220208Y-46903796D01*
X129224392Y-46920269D01*
X129226809Y-46925512D01*
X129256618Y-46990173D01*
X129266973Y-47060411D01*
X129237710Y-47125096D01*
X129231287Y-47132019D01*
X129039095Y-47324211D01*
X128976783Y-47358237D01*
X128905968Y-47353172D01*
X128860905Y-47324211D01*
X128737015Y-47200321D01*
X128702989Y-47138009D01*
X128708054Y-47067194D01*
X128716176Y-47049660D01*
X128740509Y-47006211D01*
X128740513Y-47006203D01*
X128743334Y-47001165D01*
X128745190Y-46995698D01*
X128745192Y-46995693D01*
X128806728Y-46814414D01*
X128806729Y-46814409D01*
X128808584Y-46808945D01*
X128809412Y-46803236D01*
X128809413Y-46803231D01*
X128837179Y-46611727D01*
X128837712Y-46608053D01*
X128839232Y-46550000D01*
X128820658Y-46347859D01*
X128819090Y-46342299D01*
X128767125Y-46158046D01*
X128767124Y-46158044D01*
X128765557Y-46152487D01*
X128754978Y-46131033D01*
X128678331Y-45975609D01*
X128675776Y-45970428D01*
X128554320Y-45807779D01*
X128405258Y-45669987D01*
X128400375Y-45666906D01*
X128400371Y-45666903D01*
X128238464Y-45564748D01*
X128233581Y-45561667D01*
X128045039Y-45486446D01*
X128039379Y-45485320D01*
X128039375Y-45485319D01*
X127851613Y-45447971D01*
X127851610Y-45447971D01*
X127845946Y-45446844D01*
X127840171Y-45446768D01*
X127840167Y-45446768D01*
X127738793Y-45445441D01*
X127642971Y-45444187D01*
X127637274Y-45445166D01*
X127637273Y-45445166D01*
X127448607Y-45477585D01*
X127442910Y-45478564D01*
X127252463Y-45548824D01*
X127078010Y-45652612D01*
X127073670Y-45656418D01*
X127073666Y-45656421D01*
X126929733Y-45782648D01*
X126925392Y-45786455D01*
X126799720Y-45945869D01*
X126797031Y-45950980D01*
X126797029Y-45950983D01*
X126707589Y-46120980D01*
X126658170Y-46171952D01*
X126589037Y-46188115D01*
X126522141Y-46164336D01*
X126482003Y-46109973D01*
X126479955Y-46110863D01*
X126392972Y-45910814D01*
X126388105Y-45901739D01*
X126272426Y-45722926D01*
X126266136Y-45714757D01*
X126122806Y-45557240D01*
X126115273Y-45550215D01*
X125948139Y-45418222D01*
X125939552Y-45412517D01*
X125753117Y-45309599D01*
X125743705Y-45305369D01*
X125629391Y-45264888D01*
X125571855Y-45223294D01*
X125545939Y-45157196D01*
X125559873Y-45087580D01*
X125609232Y-45036549D01*
X125630943Y-45026804D01*
X125641165Y-45023334D01*
X125818276Y-44924147D01*
X125857969Y-44891135D01*
X125945696Y-44818172D01*
X125974345Y-44794345D01*
X126104147Y-44638276D01*
X126203334Y-44461165D01*
X126205190Y-44455698D01*
X126205192Y-44455693D01*
X126266728Y-44274414D01*
X126266729Y-44274409D01*
X126268584Y-44268945D01*
X126269412Y-44263236D01*
X126269413Y-44263231D01*
X126297179Y-44071727D01*
X126297712Y-44068053D01*
X126299232Y-44010000D01*
X126283894Y-43843071D01*
X126281187Y-43813613D01*
X126281186Y-43813610D01*
X126280658Y-43807859D01*
X126278401Y-43799856D01*
X126227125Y-43618046D01*
X126227124Y-43618044D01*
X126225557Y-43612487D01*
X126214978Y-43591033D01*
X126138331Y-43435609D01*
X126135776Y-43430428D01*
X126014320Y-43267779D01*
X125865258Y-43129987D01*
X125860375Y-43126906D01*
X125860371Y-43126903D01*
X125797226Y-43087062D01*
X125750287Y-43033795D01*
X125739598Y-42963608D01*
X125768553Y-42898784D01*
X125827957Y-42859904D01*
X125864461Y-42854500D01*
X127053637Y-42854500D01*
X127121758Y-42874502D01*
X127168251Y-42928158D01*
X127178355Y-42998432D01*
X127148861Y-43063012D01*
X127118061Y-43088784D01*
X127078010Y-43112612D01*
X127073670Y-43116418D01*
X127073666Y-43116421D01*
X126929733Y-43242648D01*
X126925392Y-43246455D01*
X126799720Y-43405869D01*
X126797031Y-43410980D01*
X126797029Y-43410983D01*
X126784073Y-43435609D01*
X126705203Y-43585515D01*
X126645007Y-43779378D01*
X126621148Y-43980964D01*
X126634424Y-44183522D01*
X126635845Y-44189118D01*
X126635846Y-44189123D01*
X126656119Y-44268945D01*
X126684392Y-44380269D01*
X126686809Y-44385512D01*
X126724010Y-44466208D01*
X126769377Y-44564616D01*
X126886533Y-44730389D01*
X127031938Y-44872035D01*
X127200720Y-44984812D01*
X127206023Y-44987090D01*
X127206026Y-44987092D01*
X127381921Y-45062662D01*
X127387228Y-45064942D01*
X127460244Y-45081464D01*
X127579579Y-45108467D01*
X127579584Y-45108468D01*
X127585216Y-45109742D01*
X127590987Y-45109969D01*
X127590989Y-45109969D01*
X127650756Y-45112317D01*
X127788053Y-45117712D01*
X127895348Y-45102155D01*
X127983231Y-45089413D01*
X127983236Y-45089412D01*
X127988945Y-45088584D01*
X127994409Y-45086729D01*
X127994414Y-45086728D01*
X128175693Y-45025192D01*
X128175698Y-45025190D01*
X128181165Y-45023334D01*
X128358276Y-44924147D01*
X128397969Y-44891135D01*
X128485696Y-44818172D01*
X128514345Y-44794345D01*
X128644147Y-44638276D01*
X128743334Y-44461165D01*
X128745190Y-44455698D01*
X128745192Y-44455693D01*
X128806728Y-44274414D01*
X128806729Y-44274409D01*
X128808584Y-44268945D01*
X128809412Y-44263236D01*
X128809413Y-44263231D01*
X128837179Y-44071727D01*
X128837712Y-44068053D01*
X128839232Y-44010000D01*
X128820658Y-43807859D01*
X128821152Y-43807814D01*
X128828033Y-43740802D01*
X128872317Y-43685309D01*
X128939573Y-43662567D01*
X129008447Y-43679796D01*
X129033766Y-43699369D01*
X129134253Y-43799856D01*
X129168279Y-43862168D01*
X129170285Y-43903760D01*
X129161148Y-43980964D01*
X129174424Y-44183522D01*
X129175845Y-44189118D01*
X129175846Y-44189123D01*
X129196119Y-44268945D01*
X129224392Y-44380269D01*
X129226809Y-44385512D01*
X129264010Y-44466208D01*
X129309377Y-44564616D01*
X129426533Y-44730389D01*
X129571938Y-44872035D01*
X129740720Y-44984812D01*
X129746023Y-44987090D01*
X129746026Y-44987092D01*
X129921921Y-45062662D01*
X129927228Y-45064942D01*
X130000244Y-45081464D01*
X130119579Y-45108467D01*
X130119584Y-45108468D01*
X130125216Y-45109742D01*
X130130987Y-45109969D01*
X130130989Y-45109969D01*
X130190756Y-45112317D01*
X130328053Y-45117712D01*
X130435348Y-45102155D01*
X130523231Y-45089413D01*
X130523236Y-45089412D01*
X130528945Y-45088584D01*
X130534409Y-45086729D01*
X130534414Y-45086728D01*
X130715693Y-45025192D01*
X130715698Y-45025190D01*
X130721165Y-45023334D01*
X130898276Y-44924147D01*
X130937969Y-44891135D01*
X131025696Y-44818172D01*
X131054345Y-44794345D01*
X131184147Y-44638276D01*
X131283334Y-44461165D01*
X131285190Y-44455698D01*
X131285192Y-44455693D01*
X131346728Y-44274414D01*
X131346729Y-44274409D01*
X131348584Y-44268945D01*
X131349412Y-44263236D01*
X131349413Y-44263231D01*
X131377179Y-44071727D01*
X131377712Y-44068053D01*
X131379232Y-44010000D01*
X131363894Y-43843071D01*
X131361187Y-43813613D01*
X131361186Y-43813610D01*
X131360658Y-43807859D01*
X131358401Y-43799856D01*
X131307125Y-43618046D01*
X131307124Y-43618044D01*
X131305557Y-43612487D01*
X131294978Y-43591033D01*
X131218331Y-43435609D01*
X131215776Y-43430428D01*
X131094320Y-43267779D01*
X130945258Y-43129987D01*
X130940375Y-43126906D01*
X130940371Y-43126903D01*
X130778464Y-43024748D01*
X130773581Y-43021667D01*
X130585039Y-42946446D01*
X130579379Y-42945320D01*
X130579375Y-42945319D01*
X130391613Y-42907971D01*
X130391610Y-42907971D01*
X130385946Y-42906844D01*
X130380171Y-42906768D01*
X130380167Y-42906768D01*
X130278793Y-42905441D01*
X130182971Y-42904187D01*
X130167753Y-42906802D01*
X130097228Y-42898625D01*
X130057321Y-42871719D01*
X129155196Y-41969593D01*
X129121172Y-41907283D01*
X129126237Y-41836467D01*
X129168784Y-41779632D01*
X129235304Y-41754821D01*
X129244293Y-41754500D01*
X161119500Y-41754500D01*
X161187621Y-41774502D01*
X161234114Y-41828158D01*
X161245500Y-41880500D01*
X161245500Y-64119500D01*
X161225498Y-64187621D01*
X161171842Y-64234114D01*
X161119500Y-64245500D01*
X125785895Y-64245500D01*
X125717774Y-64225498D01*
X125671281Y-64171842D01*
X125661177Y-64101568D01*
X125694044Y-64033248D01*
X125718726Y-64006964D01*
X125721482Y-64004121D01*
X125741919Y-63983684D01*
X125744601Y-63980226D01*
X125752307Y-63971204D01*
X125778284Y-63943541D01*
X125783710Y-63937763D01*
X125793952Y-63919133D01*
X125804802Y-63902616D01*
X125812973Y-63892082D01*
X125812974Y-63892081D01*
X125817833Y-63885816D01*
X125836052Y-63843714D01*
X125841274Y-63833054D01*
X125854341Y-63809285D01*
X125863375Y-63792853D01*
X125868663Y-63772258D01*
X125875060Y-63753572D01*
X125883508Y-63734051D01*
X125884747Y-63726227D01*
X125886119Y-63721505D01*
X125924333Y-63661670D01*
X125988830Y-63631994D01*
X126039726Y-63634953D01*
X126047612Y-63637066D01*
X126055246Y-63640228D01*
X126200000Y-63659285D01*
X126208188Y-63658207D01*
X126336566Y-63641306D01*
X126344754Y-63640228D01*
X126479643Y-63584355D01*
X126491359Y-63575365D01*
X126588921Y-63500503D01*
X126588924Y-63500500D01*
X126595474Y-63495474D01*
X126600501Y-63488923D01*
X126606343Y-63483081D01*
X126607408Y-63484146D01*
X126657372Y-63447661D01*
X126728243Y-63443437D01*
X126790147Y-63478199D01*
X126799049Y-63488472D01*
X126799496Y-63488919D01*
X126804526Y-63495474D01*
X126811076Y-63500500D01*
X126811079Y-63500503D01*
X126908641Y-63575365D01*
X126920357Y-63584355D01*
X127055246Y-63640228D01*
X127200000Y-63659285D01*
X127208188Y-63658207D01*
X127336566Y-63641306D01*
X127344754Y-63640228D01*
X127479643Y-63584355D01*
X127491359Y-63575365D01*
X127588921Y-63500503D01*
X127588924Y-63500500D01*
X127595474Y-63495474D01*
X127600501Y-63488923D01*
X127600505Y-63488919D01*
X127625038Y-63456947D01*
X127682376Y-63415080D01*
X127753247Y-63410858D01*
X127815150Y-63445622D01*
X127824962Y-63456947D01*
X127849495Y-63488919D01*
X127849499Y-63488923D01*
X127854526Y-63495474D01*
X127861076Y-63500500D01*
X127861079Y-63500503D01*
X127958641Y-63575365D01*
X127970357Y-63584355D01*
X128105246Y-63640228D01*
X128250000Y-63659285D01*
X128258188Y-63658207D01*
X128386566Y-63641306D01*
X128394754Y-63640228D01*
X128529643Y-63584355D01*
X128541359Y-63575365D01*
X128638921Y-63500503D01*
X128638924Y-63500500D01*
X128645474Y-63495474D01*
X128650503Y-63488921D01*
X128722759Y-63394754D01*
X128734355Y-63379642D01*
X128790228Y-63244754D01*
X128800391Y-63167554D01*
X128829113Y-63102627D01*
X128888378Y-63063535D01*
X128925313Y-63058000D01*
X128977885Y-63058000D01*
X128993124Y-63053525D01*
X128994329Y-63052135D01*
X128996000Y-63044452D01*
X128996000Y-63039884D01*
X129504000Y-63039884D01*
X129508475Y-63055123D01*
X129519359Y-63064554D01*
X129562916Y-63088337D01*
X129596942Y-63150648D01*
X129598744Y-63160988D01*
X129599609Y-63167554D01*
X129609772Y-63244754D01*
X129665645Y-63379642D01*
X129677241Y-63394754D01*
X129749498Y-63488921D01*
X129754526Y-63495474D01*
X129761076Y-63500500D01*
X129761079Y-63500503D01*
X129858641Y-63575365D01*
X129870357Y-63584355D01*
X130005246Y-63640228D01*
X130150000Y-63659285D01*
X130158188Y-63658207D01*
X130286566Y-63641306D01*
X130294754Y-63640228D01*
X130429643Y-63584355D01*
X130441359Y-63575365D01*
X130538921Y-63500503D01*
X130538924Y-63500500D01*
X130545474Y-63495474D01*
X130550503Y-63488921D01*
X130600037Y-63424366D01*
X130657375Y-63382499D01*
X130728246Y-63378277D01*
X130790149Y-63413041D01*
X130799963Y-63424366D01*
X130849498Y-63488921D01*
X130854526Y-63495474D01*
X130861076Y-63500500D01*
X130861079Y-63500503D01*
X130958641Y-63575365D01*
X130970357Y-63584355D01*
X131105246Y-63640228D01*
X131250000Y-63659285D01*
X131258188Y-63658207D01*
X131386566Y-63641306D01*
X131394754Y-63640228D01*
X131529643Y-63584355D01*
X131541359Y-63575365D01*
X131638921Y-63500503D01*
X131638924Y-63500500D01*
X131645474Y-63495474D01*
X131650501Y-63488923D01*
X131656343Y-63483081D01*
X131657408Y-63484146D01*
X131707372Y-63447661D01*
X131778243Y-63443437D01*
X131840147Y-63478199D01*
X131849049Y-63488472D01*
X131849496Y-63488919D01*
X131854526Y-63495474D01*
X131861076Y-63500500D01*
X131861079Y-63500503D01*
X131958641Y-63575365D01*
X131970357Y-63584355D01*
X132105246Y-63640228D01*
X132250000Y-63659285D01*
X132258188Y-63658207D01*
X132386566Y-63641306D01*
X132394754Y-63640228D01*
X132529643Y-63584355D01*
X132588856Y-63538919D01*
X132604646Y-63526803D01*
X132670866Y-63501202D01*
X132740415Y-63515467D01*
X132781313Y-63550061D01*
X132810053Y-63587515D01*
X132854526Y-63645474D01*
X132861076Y-63650500D01*
X132861079Y-63650503D01*
X132963804Y-63729327D01*
X132970357Y-63734355D01*
X133105246Y-63790228D01*
X133250000Y-63809285D01*
X133258188Y-63808207D01*
X133386566Y-63791306D01*
X133394754Y-63790228D01*
X133529643Y-63734355D01*
X133536196Y-63729327D01*
X133638921Y-63650503D01*
X133638924Y-63650500D01*
X133645474Y-63645474D01*
X133734355Y-63529642D01*
X133734695Y-63528822D01*
X133783605Y-63482185D01*
X133853319Y-63468748D01*
X133918047Y-63494216D01*
X133928916Y-63502556D01*
X133970357Y-63534355D01*
X134105246Y-63590228D01*
X134250000Y-63609285D01*
X134258188Y-63608207D01*
X134386566Y-63591306D01*
X134394754Y-63590228D01*
X134529643Y-63534355D01*
X134539485Y-63526803D01*
X134638921Y-63450503D01*
X134638924Y-63450500D01*
X134645474Y-63445474D01*
X134650500Y-63438924D01*
X134650505Y-63438919D01*
X134675038Y-63406947D01*
X134732376Y-63365080D01*
X134803247Y-63360858D01*
X134865150Y-63395622D01*
X134874962Y-63406947D01*
X134899495Y-63438919D01*
X134899500Y-63438924D01*
X134904526Y-63445474D01*
X134911076Y-63450500D01*
X134911079Y-63450503D01*
X135010515Y-63526803D01*
X135020357Y-63534355D01*
X135155246Y-63590228D01*
X135300000Y-63609285D01*
X135308188Y-63608207D01*
X135436566Y-63591306D01*
X135444754Y-63590228D01*
X135579643Y-63534355D01*
X135647632Y-63482185D01*
X135671472Y-63463892D01*
X135737692Y-63438291D01*
X135807241Y-63452556D01*
X135843506Y-63483232D01*
X135843657Y-63483081D01*
X135845467Y-63484891D01*
X135848140Y-63487152D01*
X135854526Y-63495474D01*
X135861076Y-63500500D01*
X135861079Y-63500503D01*
X135958641Y-63575365D01*
X135970357Y-63584355D01*
X136105246Y-63640228D01*
X136250000Y-63659285D01*
X136258188Y-63658207D01*
X136386566Y-63641306D01*
X136394754Y-63640228D01*
X136529643Y-63584355D01*
X136573760Y-63550503D01*
X136645474Y-63495474D01*
X136646999Y-63497461D01*
X136698217Y-63469493D01*
X136769032Y-63474558D01*
X136803552Y-63496743D01*
X136804526Y-63495474D01*
X136876241Y-63550503D01*
X136920357Y-63584355D01*
X137055246Y-63640228D01*
X137200000Y-63659285D01*
X137208188Y-63658207D01*
X137336566Y-63641306D01*
X137344754Y-63640228D01*
X137479643Y-63584355D01*
X137523760Y-63550503D01*
X137588923Y-63500501D01*
X137588924Y-63500500D01*
X137590725Y-63499118D01*
X137590727Y-63499117D01*
X137595474Y-63495474D01*
X137596042Y-63496215D01*
X137652118Y-63465601D01*
X137722933Y-63470671D01*
X137778854Y-63512019D01*
X137799495Y-63538919D01*
X137799499Y-63538923D01*
X137804526Y-63545474D01*
X137811076Y-63550500D01*
X137811079Y-63550503D01*
X137887685Y-63609285D01*
X137920357Y-63634355D01*
X138055246Y-63690228D01*
X138200000Y-63709285D01*
X138208188Y-63708207D01*
X138336566Y-63691306D01*
X138344754Y-63690228D01*
X138479643Y-63634355D01*
X138512315Y-63609285D01*
X138588921Y-63550503D01*
X138588924Y-63550500D01*
X138595474Y-63545474D01*
X138600501Y-63538923D01*
X138600505Y-63538919D01*
X138625038Y-63506947D01*
X138682376Y-63465080D01*
X138753247Y-63460858D01*
X138815150Y-63495622D01*
X138824962Y-63506947D01*
X138849495Y-63538919D01*
X138849499Y-63538923D01*
X138854526Y-63545474D01*
X138861076Y-63550500D01*
X138861079Y-63550503D01*
X138937685Y-63609285D01*
X138970357Y-63634355D01*
X139105246Y-63690228D01*
X139250000Y-63709285D01*
X139258188Y-63708207D01*
X139386566Y-63691306D01*
X139394754Y-63690228D01*
X139529643Y-63634355D01*
X139562315Y-63609285D01*
X139638921Y-63550503D01*
X139638924Y-63550500D01*
X139645474Y-63545474D01*
X139650501Y-63538923D01*
X139650505Y-63538919D01*
X139671146Y-63512019D01*
X139728484Y-63470152D01*
X139799355Y-63465930D01*
X139853984Y-63496181D01*
X139854526Y-63495474D01*
X139859239Y-63499091D01*
X139859242Y-63499092D01*
X139861076Y-63500500D01*
X139861077Y-63500501D01*
X139926241Y-63550503D01*
X139970357Y-63584355D01*
X140105246Y-63640228D01*
X140250000Y-63659285D01*
X140258188Y-63658207D01*
X140386566Y-63641306D01*
X140394754Y-63640228D01*
X140529643Y-63584355D01*
X140591159Y-63537152D01*
X140621472Y-63513892D01*
X140687692Y-63488291D01*
X140757241Y-63502556D01*
X140793506Y-63533232D01*
X140793657Y-63533081D01*
X140795467Y-63534891D01*
X140798140Y-63537152D01*
X140804526Y-63545474D01*
X140811076Y-63550500D01*
X140811079Y-63550503D01*
X140887685Y-63609285D01*
X140920357Y-63634355D01*
X141055246Y-63690228D01*
X141200000Y-63709285D01*
X141208188Y-63708207D01*
X141336566Y-63691306D01*
X141344754Y-63690228D01*
X141479643Y-63634355D01*
X141512315Y-63609285D01*
X141588921Y-63550503D01*
X141588924Y-63550500D01*
X141595474Y-63545474D01*
X141600501Y-63538923D01*
X141600505Y-63538919D01*
X141625038Y-63506947D01*
X141682376Y-63465080D01*
X141753247Y-63460858D01*
X141815150Y-63495622D01*
X141824962Y-63506947D01*
X141849495Y-63538919D01*
X141849499Y-63538923D01*
X141854526Y-63545474D01*
X141861076Y-63550500D01*
X141861079Y-63550503D01*
X141937685Y-63609285D01*
X141970357Y-63634355D01*
X142105246Y-63690228D01*
X142250000Y-63709285D01*
X142258188Y-63708207D01*
X142386566Y-63691306D01*
X142394754Y-63690228D01*
X142529643Y-63634355D01*
X142562315Y-63609285D01*
X142638921Y-63550503D01*
X142638924Y-63550500D01*
X142645474Y-63545474D01*
X142650501Y-63538923D01*
X142656343Y-63533081D01*
X142657408Y-63534146D01*
X142707372Y-63497661D01*
X142778243Y-63493437D01*
X142840147Y-63528199D01*
X142849049Y-63538472D01*
X142849496Y-63538919D01*
X142854526Y-63545474D01*
X142861076Y-63550500D01*
X142861079Y-63550503D01*
X142937685Y-63609285D01*
X142970357Y-63634355D01*
X143105246Y-63690228D01*
X143250000Y-63709285D01*
X143258188Y-63708207D01*
X143386566Y-63691306D01*
X143394754Y-63690228D01*
X143529643Y-63634355D01*
X143562315Y-63609285D01*
X143638921Y-63550503D01*
X143638924Y-63550500D01*
X143645474Y-63545474D01*
X143650503Y-63538921D01*
X143718348Y-63450503D01*
X143734355Y-63429642D01*
X143741232Y-63413041D01*
X143787069Y-63302380D01*
X143790228Y-63294754D01*
X143797889Y-63236567D01*
X143806974Y-63167554D01*
X143835696Y-63102627D01*
X143894961Y-63063535D01*
X143931896Y-63058000D01*
X143977885Y-63058000D01*
X143993124Y-63053525D01*
X143994329Y-63052135D01*
X143996000Y-63044452D01*
X143996000Y-63039884D01*
X144504000Y-63039884D01*
X144508475Y-63055123D01*
X144509865Y-63056328D01*
X144517548Y-63057999D01*
X144594669Y-63057999D01*
X144601490Y-63057629D01*
X144652352Y-63052105D01*
X144667604Y-63048479D01*
X144788054Y-63003324D01*
X144803649Y-62994786D01*
X144905724Y-62918285D01*
X144918285Y-62905724D01*
X144994788Y-62803646D01*
X145002817Y-62788981D01*
X145053076Y-62738835D01*
X145122467Y-62723821D01*
X145183339Y-62744725D01*
X145202316Y-62757405D01*
X145250699Y-62789734D01*
X145324933Y-62804500D01*
X145749931Y-62804500D01*
X146175066Y-62804499D01*
X146210818Y-62797388D01*
X146237126Y-62792156D01*
X146237128Y-62792155D01*
X146249301Y-62789734D01*
X146259621Y-62782839D01*
X146259622Y-62782838D01*
X146323168Y-62740377D01*
X146333484Y-62733484D01*
X146389734Y-62649301D01*
X146404500Y-62575067D01*
X146404499Y-61124934D01*
X146389734Y-61050699D01*
X146365140Y-61013891D01*
X146340377Y-60976832D01*
X146333484Y-60966516D01*
X146249301Y-60910266D01*
X146175067Y-60895500D01*
X145750069Y-60895500D01*
X145324934Y-60895501D01*
X145289182Y-60902612D01*
X145262874Y-60907844D01*
X145262872Y-60907845D01*
X145250699Y-60910266D01*
X145240379Y-60917161D01*
X145240378Y-60917162D01*
X145179985Y-60957516D01*
X145166516Y-60966516D01*
X145138576Y-61008331D01*
X145084099Y-61053857D01*
X145013656Y-61062704D01*
X144949612Y-61032063D01*
X144932985Y-61013891D01*
X144918284Y-60994275D01*
X144905724Y-60981715D01*
X144803649Y-60905214D01*
X144788054Y-60896676D01*
X144667606Y-60851522D01*
X144652351Y-60847895D01*
X144601486Y-60842369D01*
X144594672Y-60842000D01*
X144522115Y-60842000D01*
X144506876Y-60846475D01*
X144505671Y-60847865D01*
X144504000Y-60855548D01*
X144504000Y-63039884D01*
X143996000Y-63039884D01*
X143996000Y-60860116D01*
X143991525Y-60844877D01*
X143990135Y-60843672D01*
X143982452Y-60842001D01*
X143905331Y-60842001D01*
X143898510Y-60842371D01*
X143847648Y-60847895D01*
X143832396Y-60851521D01*
X143711946Y-60896676D01*
X143696351Y-60905214D01*
X143594276Y-60981715D01*
X143581719Y-60994272D01*
X143543652Y-61045065D01*
X143486792Y-61087580D01*
X143442825Y-61095500D01*
X142954000Y-61095501D01*
X142924934Y-61095501D01*
X142889182Y-61102612D01*
X142862874Y-61107844D01*
X142862872Y-61107845D01*
X142850699Y-61110266D01*
X142840379Y-61117161D01*
X142840378Y-61117162D01*
X142820002Y-61130777D01*
X142752249Y-61151992D01*
X142679998Y-61130777D01*
X142659621Y-61117161D01*
X142659618Y-61117160D01*
X142649301Y-61110266D01*
X142575067Y-61095500D01*
X142250053Y-61095500D01*
X141924934Y-61095501D01*
X141889182Y-61102612D01*
X141862874Y-61107844D01*
X141862872Y-61107845D01*
X141850699Y-61110266D01*
X141840379Y-61117161D01*
X141840378Y-61117162D01*
X141820002Y-61130777D01*
X141752249Y-61151992D01*
X141679998Y-61130777D01*
X141659621Y-61117161D01*
X141659618Y-61117160D01*
X141649301Y-61110266D01*
X141575067Y-61095500D01*
X141250053Y-61095500D01*
X140924934Y-61095501D01*
X140889182Y-61102612D01*
X140862874Y-61107844D01*
X140862872Y-61107845D01*
X140850699Y-61110266D01*
X140840379Y-61117161D01*
X140840378Y-61117162D01*
X140820002Y-61130777D01*
X140752249Y-61151992D01*
X140679998Y-61130777D01*
X140659621Y-61117161D01*
X140659618Y-61117160D01*
X140649301Y-61110266D01*
X140575067Y-61095500D01*
X140250053Y-61095500D01*
X139924934Y-61095501D01*
X139889182Y-61102612D01*
X139862874Y-61107844D01*
X139862872Y-61107845D01*
X139850699Y-61110266D01*
X139840379Y-61117161D01*
X139840378Y-61117162D01*
X139820002Y-61130777D01*
X139752249Y-61151992D01*
X139679998Y-61130777D01*
X139659621Y-61117161D01*
X139659618Y-61117160D01*
X139649301Y-61110266D01*
X139575067Y-61095500D01*
X139250053Y-61095500D01*
X138924934Y-61095501D01*
X138889182Y-61102612D01*
X138862874Y-61107844D01*
X138862872Y-61107845D01*
X138850699Y-61110266D01*
X138840379Y-61117161D01*
X138840378Y-61117162D01*
X138820002Y-61130777D01*
X138752249Y-61151992D01*
X138679998Y-61130777D01*
X138659621Y-61117161D01*
X138659618Y-61117160D01*
X138649301Y-61110266D01*
X138575067Y-61095500D01*
X138250053Y-61095500D01*
X137924934Y-61095501D01*
X137889182Y-61102612D01*
X137862874Y-61107844D01*
X137862872Y-61107845D01*
X137850699Y-61110266D01*
X137840379Y-61117161D01*
X137840378Y-61117162D01*
X137820002Y-61130777D01*
X137752249Y-61151992D01*
X137679998Y-61130777D01*
X137659621Y-61117161D01*
X137659618Y-61117160D01*
X137649301Y-61110266D01*
X137575067Y-61095500D01*
X137250053Y-61095500D01*
X136924934Y-61095501D01*
X136889182Y-61102612D01*
X136862874Y-61107844D01*
X136862872Y-61107845D01*
X136850699Y-61110266D01*
X136840379Y-61117161D01*
X136840378Y-61117162D01*
X136820002Y-61130777D01*
X136752249Y-61151992D01*
X136679998Y-61130777D01*
X136659621Y-61117161D01*
X136659618Y-61117160D01*
X136649301Y-61110266D01*
X136575067Y-61095500D01*
X136250053Y-61095500D01*
X135924934Y-61095501D01*
X135889182Y-61102612D01*
X135862874Y-61107844D01*
X135862872Y-61107845D01*
X135850699Y-61110266D01*
X135840379Y-61117161D01*
X135840378Y-61117162D01*
X135820002Y-61130777D01*
X135752249Y-61151992D01*
X135679998Y-61130777D01*
X135659621Y-61117161D01*
X135659618Y-61117160D01*
X135649301Y-61110266D01*
X135575067Y-61095500D01*
X135250053Y-61095500D01*
X134924934Y-61095501D01*
X134889182Y-61102612D01*
X134862874Y-61107844D01*
X134862872Y-61107845D01*
X134850699Y-61110266D01*
X134840379Y-61117161D01*
X134840378Y-61117162D01*
X134820002Y-61130777D01*
X134752249Y-61151992D01*
X134679998Y-61130777D01*
X134659621Y-61117161D01*
X134659618Y-61117160D01*
X134649301Y-61110266D01*
X134575067Y-61095500D01*
X134250053Y-61095500D01*
X133924934Y-61095501D01*
X133889182Y-61102612D01*
X133862874Y-61107844D01*
X133862872Y-61107845D01*
X133850699Y-61110266D01*
X133840379Y-61117161D01*
X133840378Y-61117162D01*
X133820002Y-61130777D01*
X133752249Y-61151992D01*
X133679998Y-61130777D01*
X133659621Y-61117161D01*
X133659618Y-61117160D01*
X133649301Y-61110266D01*
X133575067Y-61095500D01*
X133250053Y-61095500D01*
X132924934Y-61095501D01*
X132889182Y-61102612D01*
X132862874Y-61107844D01*
X132862872Y-61107845D01*
X132850699Y-61110266D01*
X132840379Y-61117161D01*
X132840378Y-61117162D01*
X132820002Y-61130777D01*
X132752249Y-61151992D01*
X132679998Y-61130777D01*
X132659621Y-61117161D01*
X132659618Y-61117160D01*
X132649301Y-61110266D01*
X132575067Y-61095500D01*
X132250053Y-61095500D01*
X131924934Y-61095501D01*
X131889182Y-61102612D01*
X131862874Y-61107844D01*
X131862872Y-61107845D01*
X131850699Y-61110266D01*
X131840379Y-61117161D01*
X131840378Y-61117162D01*
X131820002Y-61130777D01*
X131752249Y-61151992D01*
X131679998Y-61130777D01*
X131659621Y-61117161D01*
X131659618Y-61117160D01*
X131649301Y-61110266D01*
X131575067Y-61095500D01*
X131250053Y-61095500D01*
X130924934Y-61095501D01*
X130889182Y-61102612D01*
X130862874Y-61107844D01*
X130862872Y-61107845D01*
X130850699Y-61110266D01*
X130840379Y-61117161D01*
X130840378Y-61117162D01*
X130820002Y-61130777D01*
X130752249Y-61151992D01*
X130679998Y-61130777D01*
X130659621Y-61117161D01*
X130659618Y-61117160D01*
X130649301Y-61110266D01*
X130575067Y-61095500D01*
X130546010Y-61095500D01*
X130057175Y-61095501D01*
X129989055Y-61075499D01*
X129956350Y-61045066D01*
X129918285Y-60994276D01*
X129905724Y-60981715D01*
X129803649Y-60905214D01*
X129788054Y-60896676D01*
X129667606Y-60851522D01*
X129652351Y-60847895D01*
X129601486Y-60842369D01*
X129594672Y-60842000D01*
X129522115Y-60842000D01*
X129506876Y-60846475D01*
X129505671Y-60847865D01*
X129504000Y-60855548D01*
X129504000Y-63039884D01*
X128996000Y-63039884D01*
X128996000Y-60860116D01*
X128991525Y-60844877D01*
X128990135Y-60843672D01*
X128982452Y-60842001D01*
X128905331Y-60842001D01*
X128898510Y-60842371D01*
X128847648Y-60847895D01*
X128832396Y-60851521D01*
X128711946Y-60896676D01*
X128696351Y-60905214D01*
X128594276Y-60981715D01*
X128581719Y-60994272D01*
X128543652Y-61045065D01*
X128486792Y-61087580D01*
X128442825Y-61095500D01*
X127954000Y-61095501D01*
X127924934Y-61095501D01*
X127889182Y-61102612D01*
X127862874Y-61107844D01*
X127862872Y-61107845D01*
X127850699Y-61110266D01*
X127840379Y-61117161D01*
X127840378Y-61117162D01*
X127820002Y-61130777D01*
X127752249Y-61151992D01*
X127679998Y-61130777D01*
X127659621Y-61117161D01*
X127659618Y-61117160D01*
X127649301Y-61110266D01*
X127575067Y-61095500D01*
X127250053Y-61095500D01*
X126924934Y-61095501D01*
X126889182Y-61102612D01*
X126862874Y-61107844D01*
X126862872Y-61107845D01*
X126850699Y-61110266D01*
X126840379Y-61117161D01*
X126840378Y-61117162D01*
X126820002Y-61130777D01*
X126752249Y-61151992D01*
X126679998Y-61130777D01*
X126659621Y-61117161D01*
X126659618Y-61117160D01*
X126649301Y-61110266D01*
X126575067Y-61095500D01*
X126250053Y-61095500D01*
X125924934Y-61095501D01*
X125889182Y-61102612D01*
X125862874Y-61107844D01*
X125862872Y-61107845D01*
X125850699Y-61110266D01*
X125840379Y-61117161D01*
X125840378Y-61117162D01*
X125820002Y-61130777D01*
X125752249Y-61151992D01*
X125679998Y-61130777D01*
X125659621Y-61117161D01*
X125659618Y-61117160D01*
X125649301Y-61110266D01*
X125575067Y-61095500D01*
X125516149Y-61095500D01*
X124987018Y-61095501D01*
X124918897Y-61075499D01*
X124882253Y-61039503D01*
X124840377Y-60976832D01*
X124833484Y-60966516D01*
X124749301Y-60910266D01*
X124675067Y-60895500D01*
X124250069Y-60895500D01*
X123824934Y-60895501D01*
X123789182Y-60902612D01*
X123762874Y-60907844D01*
X123762872Y-60907845D01*
X123750699Y-60910266D01*
X123740379Y-60917161D01*
X123740378Y-60917162D01*
X123679985Y-60957516D01*
X123666516Y-60966516D01*
X123610266Y-61050699D01*
X123595500Y-61124933D01*
X123595501Y-62575066D01*
X123610266Y-62649301D01*
X123666516Y-62733484D01*
X123750699Y-62789734D01*
X123824933Y-62804500D01*
X123856265Y-62804500D01*
X124513382Y-62804499D01*
X124581502Y-62824501D01*
X124627995Y-62878157D01*
X124638099Y-62948430D01*
X124635423Y-62961827D01*
X124595500Y-63117317D01*
X124595500Y-63239395D01*
X124575498Y-63307516D01*
X124569060Y-63316620D01*
X124537029Y-63357915D01*
X124537027Y-63357919D01*
X124532167Y-63364184D01*
X124529018Y-63371461D01*
X124470388Y-63506947D01*
X124466492Y-63515949D01*
X124440624Y-63679278D01*
X124441370Y-63687170D01*
X124455160Y-63833054D01*
X124456186Y-63843910D01*
X124458870Y-63851365D01*
X124505380Y-63980552D01*
X124512201Y-63999499D01*
X124516658Y-64006058D01*
X124516660Y-64006061D01*
X124545622Y-64048678D01*
X124567368Y-64116262D01*
X124549123Y-64184874D01*
X124496680Y-64232731D01*
X124441410Y-64245500D01*
X106880500Y-64245500D01*
X106812379Y-64225498D01*
X106765886Y-64171842D01*
X106754500Y-64119500D01*
X106754500Y-58424933D01*
X123595500Y-58424933D01*
X123595501Y-59875066D01*
X123610266Y-59949301D01*
X123666516Y-60033484D01*
X123750699Y-60089734D01*
X123824933Y-60104500D01*
X124249931Y-60104500D01*
X124675066Y-60104499D01*
X124710818Y-60097388D01*
X124737126Y-60092156D01*
X124737128Y-60092155D01*
X124749301Y-60089734D01*
X124759621Y-60082839D01*
X124759622Y-60082838D01*
X124823168Y-60040377D01*
X124833484Y-60033484D01*
X124889734Y-59949301D01*
X124904500Y-59875067D01*
X124904499Y-58424934D01*
X124889734Y-58350699D01*
X124833484Y-58266516D01*
X124749301Y-58210266D01*
X124675067Y-58195500D01*
X124250069Y-58195500D01*
X123824934Y-58195501D01*
X123789182Y-58202612D01*
X123762874Y-58207844D01*
X123762872Y-58207845D01*
X123750699Y-58210266D01*
X123740379Y-58217161D01*
X123740378Y-58217162D01*
X123679985Y-58257516D01*
X123666516Y-58266516D01*
X123610266Y-58350699D01*
X123595500Y-58424933D01*
X106754500Y-58424933D01*
X106754500Y-54542186D01*
X108641018Y-54542186D01*
X108666579Y-54810100D01*
X108730547Y-55071518D01*
X108831583Y-55320963D01*
X108967569Y-55553210D01*
X109135658Y-55763395D01*
X109332327Y-55947113D01*
X109553457Y-56100516D01*
X109794416Y-56220391D01*
X109798750Y-56221812D01*
X109798753Y-56221813D01*
X110045823Y-56302807D01*
X110045829Y-56302808D01*
X110050156Y-56304227D01*
X110054647Y-56305007D01*
X110054648Y-56305007D01*
X110311538Y-56349611D01*
X110311546Y-56349612D01*
X110315319Y-56350267D01*
X110319156Y-56350458D01*
X110398777Y-56354422D01*
X110398785Y-56354422D01*
X110400348Y-56354500D01*
X110568374Y-56354500D01*
X110570642Y-56354335D01*
X110570654Y-56354335D01*
X110701457Y-56344844D01*
X110768425Y-56339985D01*
X110772880Y-56339001D01*
X110772883Y-56339001D01*
X111026770Y-56282947D01*
X111026772Y-56282946D01*
X111031226Y-56281963D01*
X111282900Y-56186613D01*
X111361768Y-56142806D01*
X111514179Y-56058149D01*
X111514180Y-56058148D01*
X111518172Y-56055931D01*
X111664842Y-55943996D01*
X111728491Y-55895421D01*
X111728495Y-55895417D01*
X111732116Y-55892654D01*
X111920249Y-55700203D01*
X112027242Y-55553210D01*
X112075942Y-55486304D01*
X112075947Y-55486297D01*
X112078630Y-55482610D01*
X112203941Y-55244433D01*
X112293557Y-54990662D01*
X112320462Y-54854156D01*
X112344720Y-54731083D01*
X112344721Y-54731077D01*
X112345601Y-54726611D01*
X112345828Y-54722055D01*
X112358755Y-54462383D01*
X112358755Y-54462377D01*
X112358982Y-54457814D01*
X112333421Y-54189900D01*
X112322400Y-54144857D01*
X112270539Y-53932920D01*
X112269453Y-53928482D01*
X112168417Y-53679037D01*
X112032431Y-53446790D01*
X111909671Y-53293286D01*
X111867194Y-53240171D01*
X111867193Y-53240169D01*
X111864342Y-53236605D01*
X111667673Y-53052887D01*
X111446543Y-52899484D01*
X111205584Y-52779609D01*
X111201250Y-52778188D01*
X111201247Y-52778187D01*
X110954177Y-52697193D01*
X110954171Y-52697192D01*
X110949844Y-52695773D01*
X110933090Y-52692864D01*
X110688462Y-52650389D01*
X110688454Y-52650388D01*
X110684681Y-52649733D01*
X110674718Y-52649237D01*
X110601223Y-52645578D01*
X110601215Y-52645578D01*
X110599652Y-52645500D01*
X110431626Y-52645500D01*
X110429358Y-52645665D01*
X110429346Y-52645665D01*
X110298543Y-52655156D01*
X110231575Y-52660015D01*
X110227120Y-52660999D01*
X110227117Y-52660999D01*
X109973230Y-52717053D01*
X109973228Y-52717054D01*
X109968774Y-52718037D01*
X109717100Y-52813387D01*
X109713114Y-52815601D01*
X109713112Y-52815602D01*
X109522071Y-52921716D01*
X109481828Y-52944069D01*
X109471752Y-52951759D01*
X109271509Y-53104579D01*
X109271505Y-53104583D01*
X109267884Y-53107346D01*
X109264699Y-53110604D01*
X109264698Y-53110605D01*
X109191409Y-53185576D01*
X109079751Y-53299797D01*
X109077066Y-53303486D01*
X108924058Y-53513696D01*
X108924053Y-53513703D01*
X108921370Y-53517390D01*
X108796059Y-53755567D01*
X108757794Y-53863925D01*
X108708325Y-54004010D01*
X108706443Y-54009338D01*
X108683744Y-54124502D01*
X108667267Y-54208104D01*
X108654399Y-54273389D01*
X108654172Y-54277942D01*
X108654172Y-54277945D01*
X108643021Y-54501953D01*
X108641018Y-54542186D01*
X106754500Y-54542186D01*
X106754500Y-41880500D01*
X106774502Y-41812379D01*
X106828158Y-41765886D01*
X106880500Y-41754500D01*
X110115707Y-41754500D01*
X110183828Y-41774502D01*
G37*
G04 #@! TD.AperFunction*
G04 #@! TA.AperFunction,Conductor*
G36*
X115226121Y-46316002D02*
G01*
X115272614Y-46369658D01*
X115284000Y-46422000D01*
X115284000Y-47868517D01*
X115288064Y-47882359D01*
X115301478Y-47884393D01*
X115308184Y-47883534D01*
X115318262Y-47881392D01*
X115522255Y-47820191D01*
X115531842Y-47816433D01*
X115723095Y-47722739D01*
X115731945Y-47717464D01*
X115905328Y-47593792D01*
X115913200Y-47587139D01*
X116064052Y-47436812D01*
X116070730Y-47428965D01*
X116195003Y-47256020D01*
X116200313Y-47247183D01*
X116294670Y-47056267D01*
X116298469Y-47046672D01*
X116315066Y-46992047D01*
X116354007Y-46932683D01*
X116418862Y-46903796D01*
X116489038Y-46914558D01*
X116542256Y-46961551D01*
X116550048Y-46975922D01*
X116609377Y-47104616D01*
X116612710Y-47109332D01*
X116723194Y-47265664D01*
X116726533Y-47270389D01*
X116871938Y-47412035D01*
X116876742Y-47415245D01*
X116917288Y-47442337D01*
X117040720Y-47524812D01*
X117046023Y-47527090D01*
X117046028Y-47527093D01*
X117078187Y-47540909D01*
X117112992Y-47555862D01*
X117114237Y-47556397D01*
X117168930Y-47601665D01*
X117190500Y-47672165D01*
X117190500Y-47816080D01*
X117187951Y-47840028D01*
X117187872Y-47841693D01*
X117185680Y-47851876D01*
X117186904Y-47862217D01*
X117189627Y-47885223D01*
X117189977Y-47891154D01*
X117190072Y-47891146D01*
X117190500Y-47896324D01*
X117190500Y-47901524D01*
X117191354Y-47906653D01*
X117191354Y-47906656D01*
X117193669Y-47920565D01*
X117194506Y-47926443D01*
X117198146Y-47957194D01*
X117200530Y-47977341D01*
X117204493Y-47985593D01*
X117205996Y-47994626D01*
X117210943Y-48003795D01*
X117210944Y-48003797D01*
X117230334Y-48039732D01*
X117233031Y-48045025D01*
X117251785Y-48084082D01*
X117251788Y-48084086D01*
X117255219Y-48091232D01*
X117258814Y-48095508D01*
X117260737Y-48097431D01*
X117262509Y-48099363D01*
X117262552Y-48099442D01*
X117262428Y-48099555D01*
X117262904Y-48100095D01*
X117265990Y-48105814D01*
X117273635Y-48112881D01*
X117305586Y-48142416D01*
X117309152Y-48145846D01*
X117683522Y-48520216D01*
X117698664Y-48538964D01*
X117699779Y-48540189D01*
X117705429Y-48548940D01*
X117713607Y-48555387D01*
X117713609Y-48555389D01*
X117731800Y-48569729D01*
X117736241Y-48573675D01*
X117736303Y-48573602D01*
X117740267Y-48576961D01*
X117743944Y-48580638D01*
X117759692Y-48591892D01*
X117764362Y-48595398D01*
X117804647Y-48627156D01*
X117813281Y-48630188D01*
X117820734Y-48635514D01*
X117869850Y-48650203D01*
X117875492Y-48652036D01*
X117916367Y-48666390D01*
X117923851Y-48669018D01*
X117929416Y-48669500D01*
X117932124Y-48669500D01*
X117934758Y-48669614D01*
X117934856Y-48669643D01*
X117934849Y-48669807D01*
X117935553Y-48669851D01*
X117941778Y-48671713D01*
X117995635Y-48669597D01*
X118000582Y-48669500D01*
X119680616Y-48669500D01*
X119748737Y-48689502D01*
X119769711Y-48706405D01*
X120133595Y-49070289D01*
X120167621Y-49132601D01*
X120170500Y-49159384D01*
X120170500Y-50846080D01*
X120167951Y-50870028D01*
X120167872Y-50871693D01*
X120165680Y-50881876D01*
X120166904Y-50892217D01*
X120169627Y-50915223D01*
X120169977Y-50921154D01*
X120170072Y-50921146D01*
X120170500Y-50926324D01*
X120170500Y-50931524D01*
X120171354Y-50936653D01*
X120171354Y-50936656D01*
X120173669Y-50950565D01*
X120174506Y-50956443D01*
X120178770Y-50992466D01*
X120180530Y-51007341D01*
X120184493Y-51015593D01*
X120185996Y-51024626D01*
X120190943Y-51033795D01*
X120190944Y-51033797D01*
X120210334Y-51069732D01*
X120213031Y-51075025D01*
X120231785Y-51114082D01*
X120231788Y-51114086D01*
X120235219Y-51121232D01*
X120238814Y-51125508D01*
X120240737Y-51127431D01*
X120242509Y-51129363D01*
X120242552Y-51129442D01*
X120242428Y-51129555D01*
X120242904Y-51130095D01*
X120245990Y-51135814D01*
X120253635Y-51142881D01*
X120285586Y-51172416D01*
X120289152Y-51175846D01*
X121543522Y-52430216D01*
X121558664Y-52448964D01*
X121559779Y-52450189D01*
X121565429Y-52458940D01*
X121573607Y-52465387D01*
X121573609Y-52465389D01*
X121591800Y-52479729D01*
X121596241Y-52483675D01*
X121596303Y-52483602D01*
X121600267Y-52486961D01*
X121603944Y-52490638D01*
X121619692Y-52501892D01*
X121624362Y-52505398D01*
X121664647Y-52537156D01*
X121673281Y-52540188D01*
X121680734Y-52545514D01*
X121690715Y-52548499D01*
X121691664Y-52548783D01*
X121692797Y-52549519D01*
X121700062Y-52553078D01*
X121699630Y-52553959D01*
X121751198Y-52587464D01*
X121780368Y-52652191D01*
X121769914Y-52722414D01*
X121723154Y-52775837D01*
X121655563Y-52795500D01*
X115423293Y-52795500D01*
X115355172Y-52775498D01*
X115334198Y-52758595D01*
X113181405Y-50605802D01*
X113147379Y-50543490D01*
X113144500Y-50516707D01*
X113144500Y-47501427D01*
X113164502Y-47433306D01*
X113189930Y-47404553D01*
X113269912Y-47338032D01*
X113269913Y-47338031D01*
X113274345Y-47334345D01*
X113331467Y-47265664D01*
X113400453Y-47182718D01*
X113400455Y-47182715D01*
X113404147Y-47178276D01*
X113470155Y-47060411D01*
X113500510Y-47006208D01*
X113500511Y-47006206D01*
X113503334Y-47001165D01*
X113505720Y-46994135D01*
X113506170Y-46993496D01*
X113507541Y-46990416D01*
X113508146Y-46990685D01*
X113546553Y-46936059D01*
X113612305Y-46909278D01*
X113682098Y-46922295D01*
X113733773Y-46970980D01*
X113741777Y-46987229D01*
X113811770Y-47159603D01*
X113816413Y-47168794D01*
X113927694Y-47350388D01*
X113933777Y-47358699D01*
X114073213Y-47519667D01*
X114080580Y-47526883D01*
X114244434Y-47662916D01*
X114252881Y-47668831D01*
X114436756Y-47776279D01*
X114446042Y-47780729D01*
X114645001Y-47856703D01*
X114654899Y-47859579D01*
X114758250Y-47880606D01*
X114772299Y-47879410D01*
X114776000Y-47869065D01*
X114776000Y-46422000D01*
X114796002Y-46353879D01*
X114849658Y-46307386D01*
X114902000Y-46296000D01*
X115158000Y-46296000D01*
X115226121Y-46316002D01*
G37*
G04 #@! TD.AperFunction*
G04 #@! TA.AperFunction,Conductor*
G36*
X150786121Y-46316002D02*
G01*
X150832614Y-46369658D01*
X150844000Y-46422000D01*
X150844000Y-47868517D01*
X150848064Y-47882359D01*
X150861478Y-47884393D01*
X150868184Y-47883534D01*
X150878262Y-47881392D01*
X151082255Y-47820191D01*
X151091842Y-47816433D01*
X151283095Y-47722739D01*
X151291945Y-47717464D01*
X151421332Y-47625173D01*
X151488405Y-47601899D01*
X151557414Y-47618583D01*
X151606448Y-47669927D01*
X151620500Y-47727752D01*
X151620500Y-51140616D01*
X151600498Y-51208737D01*
X151583595Y-51229711D01*
X150429711Y-52383595D01*
X150367399Y-52417621D01*
X150340616Y-52420500D01*
X146871943Y-52420500D01*
X146803822Y-52400498D01*
X146757329Y-52346842D01*
X146747225Y-52276568D01*
X146776719Y-52211988D01*
X146784253Y-52204852D01*
X146785814Y-52204010D01*
X146790536Y-52198901D01*
X146790542Y-52198896D01*
X146822416Y-52164414D01*
X146825846Y-52160848D01*
X148130216Y-50856478D01*
X148148964Y-50841336D01*
X148150189Y-50840221D01*
X148158940Y-50834571D01*
X148165387Y-50826393D01*
X148165389Y-50826391D01*
X148179729Y-50808200D01*
X148183678Y-50803756D01*
X148183604Y-50803694D01*
X148186957Y-50799737D01*
X148190638Y-50796056D01*
X148201865Y-50780346D01*
X148205421Y-50775609D01*
X148209576Y-50770339D01*
X148237156Y-50735353D01*
X148240189Y-50726716D01*
X148245513Y-50719266D01*
X148260202Y-50670151D01*
X148262034Y-50664514D01*
X148276390Y-50623633D01*
X148276390Y-50623632D01*
X148279018Y-50616149D01*
X148279500Y-50610584D01*
X148279500Y-50607876D01*
X148279614Y-50605242D01*
X148279643Y-50605144D01*
X148279807Y-50605151D01*
X148279851Y-50604447D01*
X148281713Y-50598222D01*
X148279597Y-50544365D01*
X148279500Y-50539418D01*
X148279500Y-47728869D01*
X148299502Y-47660748D01*
X148353158Y-47614255D01*
X148364995Y-47609557D01*
X148416680Y-47592013D01*
X148495693Y-47565192D01*
X148495698Y-47565190D01*
X148501165Y-47563334D01*
X148514508Y-47555862D01*
X148617625Y-47498113D01*
X148678276Y-47464147D01*
X148700501Y-47445663D01*
X148811908Y-47353006D01*
X148834345Y-47334345D01*
X148891467Y-47265664D01*
X148960453Y-47182718D01*
X148960455Y-47182715D01*
X148964147Y-47178276D01*
X149030155Y-47060411D01*
X149060510Y-47006208D01*
X149060511Y-47006206D01*
X149063334Y-47001165D01*
X149065720Y-46994135D01*
X149066170Y-46993496D01*
X149067541Y-46990416D01*
X149068146Y-46990685D01*
X149106553Y-46936059D01*
X149172305Y-46909278D01*
X149242098Y-46922295D01*
X149293773Y-46970980D01*
X149301777Y-46987229D01*
X149371770Y-47159603D01*
X149376413Y-47168794D01*
X149487694Y-47350388D01*
X149493777Y-47358699D01*
X149633213Y-47519667D01*
X149640580Y-47526883D01*
X149804434Y-47662916D01*
X149812881Y-47668831D01*
X149996756Y-47776279D01*
X150006042Y-47780729D01*
X150205001Y-47856703D01*
X150214899Y-47859579D01*
X150318250Y-47880606D01*
X150332299Y-47879410D01*
X150336000Y-47869065D01*
X150336000Y-46422000D01*
X150356002Y-46353879D01*
X150409658Y-46307386D01*
X150462000Y-46296000D01*
X150718000Y-46296000D01*
X150786121Y-46316002D01*
G37*
G04 #@! TD.AperFunction*
G04 #@! TA.AperFunction,Conductor*
G36*
X116961758Y-42874502D02*
G01*
X117008251Y-42928158D01*
X117018355Y-42998432D01*
X116988861Y-43063012D01*
X116958061Y-43088784D01*
X116918010Y-43112612D01*
X116913670Y-43116418D01*
X116913666Y-43116421D01*
X116769733Y-43242648D01*
X116765392Y-43246455D01*
X116639720Y-43405869D01*
X116637031Y-43410980D01*
X116637029Y-43410983D01*
X116624073Y-43435609D01*
X116545203Y-43585515D01*
X116485007Y-43779378D01*
X116461148Y-43980964D01*
X116474424Y-44183522D01*
X116475845Y-44189118D01*
X116475846Y-44189123D01*
X116496119Y-44268945D01*
X116524392Y-44380269D01*
X116526809Y-44385512D01*
X116564010Y-44466208D01*
X116609377Y-44564616D01*
X116726533Y-44730389D01*
X116871938Y-44872035D01*
X117040720Y-44984812D01*
X117046023Y-44987090D01*
X117046026Y-44987092D01*
X117221921Y-45062662D01*
X117227228Y-45064942D01*
X117300244Y-45081464D01*
X117419579Y-45108467D01*
X117419584Y-45108468D01*
X117425216Y-45109742D01*
X117430987Y-45109969D01*
X117430989Y-45109969D01*
X117490756Y-45112317D01*
X117628053Y-45117712D01*
X117735348Y-45102155D01*
X117823231Y-45089413D01*
X117823236Y-45089412D01*
X117828945Y-45088584D01*
X117834409Y-45086729D01*
X117834414Y-45086728D01*
X118015693Y-45025192D01*
X118015698Y-45025190D01*
X118021165Y-45023334D01*
X118198276Y-44924147D01*
X118237969Y-44891135D01*
X118325696Y-44818172D01*
X118354345Y-44794345D01*
X118484147Y-44638276D01*
X118583334Y-44461165D01*
X118585720Y-44454135D01*
X118586170Y-44453496D01*
X118587541Y-44450416D01*
X118588146Y-44450685D01*
X118626553Y-44396059D01*
X118692305Y-44369278D01*
X118762098Y-44382295D01*
X118813773Y-44430980D01*
X118821777Y-44447229D01*
X118891770Y-44619603D01*
X118896413Y-44628794D01*
X119007694Y-44810388D01*
X119013777Y-44818699D01*
X119153213Y-44979667D01*
X119160580Y-44986883D01*
X119324434Y-45122916D01*
X119332881Y-45128831D01*
X119516756Y-45236279D01*
X119526042Y-45240729D01*
X119675124Y-45297657D01*
X119731627Y-45340644D01*
X119755920Y-45407355D01*
X119740290Y-45476610D01*
X119689699Y-45526421D01*
X119673785Y-45533579D01*
X119632463Y-45548824D01*
X119458010Y-45652612D01*
X119453670Y-45656418D01*
X119453666Y-45656421D01*
X119309733Y-45782648D01*
X119305392Y-45786455D01*
X119179720Y-45945869D01*
X119177031Y-45950980D01*
X119177029Y-45950983D01*
X119164073Y-45975609D01*
X119085203Y-46125515D01*
X119025007Y-46319378D01*
X119001148Y-46520964D01*
X119014424Y-46723522D01*
X119015845Y-46729118D01*
X119015846Y-46729123D01*
X119060208Y-46903796D01*
X119064392Y-46920269D01*
X119066809Y-46925512D01*
X119138367Y-47080734D01*
X119149377Y-47104616D01*
X119152710Y-47109332D01*
X119263194Y-47265664D01*
X119266533Y-47270389D01*
X119411938Y-47412035D01*
X119416742Y-47415245D01*
X119457288Y-47442337D01*
X119580720Y-47524812D01*
X119586023Y-47527090D01*
X119586026Y-47527092D01*
X119759635Y-47601680D01*
X119767228Y-47604942D01*
X119808386Y-47614255D01*
X119959579Y-47648467D01*
X119959584Y-47648468D01*
X119965216Y-47649742D01*
X119970987Y-47649969D01*
X119970989Y-47649969D01*
X120030756Y-47652317D01*
X120168053Y-47657712D01*
X120268499Y-47643148D01*
X120363231Y-47629413D01*
X120363236Y-47629412D01*
X120368945Y-47628584D01*
X120378994Y-47625173D01*
X120453999Y-47599712D01*
X120524934Y-47596756D01*
X120586206Y-47632619D01*
X120618363Y-47695916D01*
X120620500Y-47719025D01*
X120620500Y-48179616D01*
X120600498Y-48247737D01*
X120546842Y-48294230D01*
X120476568Y-48304334D01*
X120411988Y-48274840D01*
X120405405Y-48268711D01*
X120196478Y-48059784D01*
X120181336Y-48041036D01*
X120180221Y-48039811D01*
X120174571Y-48031060D01*
X120166393Y-48024613D01*
X120166391Y-48024611D01*
X120148200Y-48010271D01*
X120143759Y-48006325D01*
X120143697Y-48006398D01*
X120139733Y-48003039D01*
X120136056Y-47999362D01*
X120120308Y-47988108D01*
X120115638Y-47984602D01*
X120075353Y-47952844D01*
X120066719Y-47949812D01*
X120059266Y-47944486D01*
X120010150Y-47929797D01*
X120004508Y-47927964D01*
X119963633Y-47913610D01*
X119963632Y-47913610D01*
X119956149Y-47910982D01*
X119950584Y-47910500D01*
X119947876Y-47910500D01*
X119945242Y-47910386D01*
X119945144Y-47910357D01*
X119945151Y-47910193D01*
X119944447Y-47910149D01*
X119938222Y-47908287D01*
X119884365Y-47910403D01*
X119879418Y-47910500D01*
X118199384Y-47910500D01*
X118131263Y-47890498D01*
X118110289Y-47873595D01*
X117997111Y-47760417D01*
X117963085Y-47698105D01*
X117968150Y-47627290D01*
X118010697Y-47570454D01*
X118024640Y-47561388D01*
X118061629Y-47540673D01*
X118198276Y-47464147D01*
X118220501Y-47445663D01*
X118331908Y-47353006D01*
X118354345Y-47334345D01*
X118411467Y-47265664D01*
X118480453Y-47182718D01*
X118480455Y-47182715D01*
X118484147Y-47178276D01*
X118550155Y-47060411D01*
X118580510Y-47006208D01*
X118580511Y-47006206D01*
X118583334Y-47001165D01*
X118585190Y-46995698D01*
X118585192Y-46995693D01*
X118646728Y-46814414D01*
X118646729Y-46814409D01*
X118648584Y-46808945D01*
X118649412Y-46803236D01*
X118649413Y-46803231D01*
X118677179Y-46611727D01*
X118677712Y-46608053D01*
X118679232Y-46550000D01*
X118660658Y-46347859D01*
X118659090Y-46342299D01*
X118607125Y-46158046D01*
X118607124Y-46158044D01*
X118605557Y-46152487D01*
X118594978Y-46131033D01*
X118518331Y-45975609D01*
X118515776Y-45970428D01*
X118394320Y-45807779D01*
X118245258Y-45669987D01*
X118240375Y-45666906D01*
X118240371Y-45666903D01*
X118078464Y-45564748D01*
X118073581Y-45561667D01*
X117885039Y-45486446D01*
X117879379Y-45485320D01*
X117879375Y-45485319D01*
X117691613Y-45447971D01*
X117691610Y-45447971D01*
X117685946Y-45446844D01*
X117680171Y-45446768D01*
X117680167Y-45446768D01*
X117578793Y-45445441D01*
X117482971Y-45444187D01*
X117477274Y-45445166D01*
X117477273Y-45445166D01*
X117288607Y-45477585D01*
X117282910Y-45478564D01*
X117092463Y-45548824D01*
X116918010Y-45652612D01*
X116913670Y-45656418D01*
X116913666Y-45656421D01*
X116769733Y-45782648D01*
X116765392Y-45786455D01*
X116639720Y-45945869D01*
X116637031Y-45950980D01*
X116637029Y-45950983D01*
X116547589Y-46120980D01*
X116498170Y-46171952D01*
X116429037Y-46188115D01*
X116362141Y-46164336D01*
X116322003Y-46109973D01*
X116319955Y-46110863D01*
X116232972Y-45910814D01*
X116228105Y-45901739D01*
X116112426Y-45722926D01*
X116106136Y-45714757D01*
X115962806Y-45557240D01*
X115955273Y-45550215D01*
X115788139Y-45418222D01*
X115779552Y-45412517D01*
X115593117Y-45309599D01*
X115583705Y-45305369D01*
X115469391Y-45264888D01*
X115411855Y-45223294D01*
X115385939Y-45157196D01*
X115399873Y-45087580D01*
X115449232Y-45036549D01*
X115470943Y-45026804D01*
X115481165Y-45023334D01*
X115658276Y-44924147D01*
X115697969Y-44891135D01*
X115785696Y-44818172D01*
X115814345Y-44794345D01*
X115944147Y-44638276D01*
X116043334Y-44461165D01*
X116045190Y-44455698D01*
X116045192Y-44455693D01*
X116106728Y-44274414D01*
X116106729Y-44274409D01*
X116108584Y-44268945D01*
X116109412Y-44263236D01*
X116109413Y-44263231D01*
X116137179Y-44071727D01*
X116137712Y-44068053D01*
X116139232Y-44010000D01*
X116123894Y-43843071D01*
X116121187Y-43813613D01*
X116121186Y-43813610D01*
X116120658Y-43807859D01*
X116118401Y-43799856D01*
X116067125Y-43618046D01*
X116067124Y-43618044D01*
X116065557Y-43612487D01*
X116054978Y-43591033D01*
X115978331Y-43435609D01*
X115975776Y-43430428D01*
X115854320Y-43267779D01*
X115705258Y-43129987D01*
X115700375Y-43126906D01*
X115700371Y-43126903D01*
X115637226Y-43087062D01*
X115590287Y-43033795D01*
X115579598Y-42963608D01*
X115608553Y-42898784D01*
X115667957Y-42859904D01*
X115704461Y-42854500D01*
X116893637Y-42854500D01*
X116961758Y-42874502D01*
G37*
G04 #@! TD.AperFunction*
M02*
